<?xml version="1.0" encoding="UTF-8" standalone="no"?>
<svg
   xmlns:dc="http://purl.org/dc/elements/1.1/"
   xmlns:cc="http://creativecommons.org/ns#"
   xmlns:rdf="http://www.w3.org/1999/02/22-rdf-syntax-ns#"
   xmlns:svg="http://www.w3.org/2000/svg"
   xmlns="http://www.w3.org/2000/svg"
   viewBox="0 0 20 20"
   height="20"
   width="20"
   xml:space="preserve"
   version="1.1"
   id="svg2"><metadata
     id="metadata8"><rdf:RDF><cc:Work
         rdf:about=""><dc:format>image/svg+xml</dc:format><dc:type
           rdf:resource="http://purl.org/dc/dcmitype/StillImage" /></cc:Work></rdf:RDF></metadata><defs
     id="defs6"><clipPath
       id="clipPath16"
       clipPathUnits="userSpaceOnUse"><path
         id="path18"
         d="M 0,16 16,16 16,0 0,0 0,16 Z" /></clipPath><clipPath
       id="clipPath24"
       clipPathUnits="userSpaceOnUse"><path
         id="path26"
         d="M 4.88281e-4,16 16,16 16,0 4.88281e-4,0 l 0,16 z" /></clipPath></defs><g
     transform="matrix(1.25,0,0,-1.25,0,20)"
     id="g10"><g
       id="g12"><g
         clip-path="url(#clipPath16)"
         id="g14"><g
           id="g20"><g
             id="g22" /><g
             id="g28"><g
               style="opacity:0"
               id="g30"
               clip-path="url(#clipPath24)"><path
                 id="path32"
                 style="fill:#f6f6f6;fill-opacity:1;fill-rule:nonzero;stroke:none"
                 d="M 16,0 0,0 0,16 16,16 16,0 Z" /></g></g></g></g></g><g
       transform="translate(3.6171,16.0002)"
       id="g34"><path
         id="path36"
         style="fill:#f6f6f6;fill-opacity:1;fill-rule:nonzero;stroke:none"
         d="m 0,0 -3.617,-3.617 0,-1.796 2.515,-2.516 1.501,1.499 0,-3.586 2.585,0 0.428,-0.428 0,-3.556 2.587,0 -2.001,-2 4.828,0 3.557,3.557 0,0.886 L 8.826,-8 8.797,-8 6.813,-6.016 8.312,-4.515 5.398,-1.601 3.984,-3.015 3.812,-3.015 0.797,0 0,0 Z" /></g><g
       transform="translate(0.5157,11.4849)"
       id="g38"><path
         id="path40"
         style="fill:#c27d1a;fill-opacity:1;fill-rule:nonzero;stroke:none"
         d="m 0,0 2,-2 1.5,1.5 1,0 0,-4.001 3,0 L 7,-5 l 0.484,-0.485 1.616,0 -1.985,1.985 -1.615,0 0,3 1,0 L 6,-1 7.5,-2.5 10,0 8.5,1.5 l -1,-1 -2,0 -1,0 1,1 -2,2 L 0,0 Z m 8.516,-3.485 1.968,0 L 9.499,-2.5 8.516,-3.485 Z" /></g><g
       transform="translate(10.0296,7.0002)"
       id="g42"><path
         id="path44"
         style="fill:#424242;fill-opacity:1;fill-rule:nonzero;stroke:none"
         d="m 0,0 2,-2 -4.001,0 0,-2.001 4.001,0 L 0,-6 2,-6 4.999,-3.001 2,0 0,0 Z" /></g></g></svg>