<?xml version="1.0" encoding="UTF-8" standalone="no"?>
<svg
   xmlns:dc="http://purl.org/dc/elements/1.1/"
   xmlns:cc="http://creativecommons.org/ns#"
   xmlns:rdf="http://www.w3.org/1999/02/22-rdf-syntax-ns#"
   xmlns:svg="http://www.w3.org/2000/svg"
   xmlns="http://www.w3.org/2000/svg"
   viewBox="0 0 20 20"
   height="20"
   width="20"
   xml:space="preserve"
   version="1.1"
   id="svg2"><metadata
     id="metadata8"><rdf:RDF><cc:Work
         rdf:about=""><dc:format>image/svg+xml</dc:format><dc:type
           rdf:resource="http://purl.org/dc/dcmitype/StillImage" /></cc:Work></rdf:RDF></metadata><defs
     id="defs6"><clipPath
       id="clipPath16"
       clipPathUnits="userSpaceOnUse"><path
         id="path18"
         d="M 0,16 16,16 16,0 0,0 0,16 Z" /></clipPath><clipPath
       id="clipPath24"
       clipPathUnits="userSpaceOnUse"><path
         id="path26"
         d="M 0,16 16,16 16,0 0,0 0,16 Z" /></clipPath><clipPath
       id="clipPath38"
       clipPathUnits="userSpaceOnUse"><path
         id="path40"
         d="M 0,16 16,16 16,0 0,0 0,16 Z" /></clipPath><clipPath
       id="clipPath54"
       clipPathUnits="userSpaceOnUse"><path
         id="path56"
         d="M 0,16 16,16 16,0 0,0 0,16 Z" /></clipPath></defs><g
     transform="matrix(1.25,0,0,-1.25,0,20)"
     id="g10"><g
       id="g12"><g
         clip-path="url(#clipPath16)"
         id="g14"><g
           id="g20"><g
             id="g22" /><g
             id="g28"><g
               style="opacity:0"
               id="g30"
               clip-path="url(#clipPath24)"><path
                 id="path32"
                 style="fill:#f6f6f6;fill-opacity:1;fill-rule:nonzero;stroke:none"
                 d="M 16,0 0,0 0,16 16,16 16,0 Z" /></g></g></g></g></g><g
       id="g34"><g
         clip-path="url(#clipPath38)"
         id="g36"><g
           transform="translate(0,10.5859)"
           id="g42"><path
             id="path44"
             style="fill:#f6f6f6;fill-opacity:1;fill-rule:nonzero;stroke:none"
             d="m 0,0 0,1.828 3.586,3.586 0.828,0 3,-3 0.172,0 1.414,1.414 2.914,-2.914 -1.5,-1.5 2.5,-2.5 -0.71,-0.71 c 0.106,-0.06 0.206,-0.127 0.296,-0.206 0.281,0.245 0.633,0.416 1.071,0.416 1.317,0 2.429,-1.137 2.429,-2.482 0,-0.594 -0.197,-1.189 -0.54,-1.631 -0.312,-0.376 -2.147,-2.534 -2.147,-2.534 l -0.3,-0.353 -0.908,0 -0.298,0.332 c 0,0 -1.954,2.176 -2.247,2.529 -0.197,0.254 -0.339,0.545 -0.434,0.851 L 9,-7 6.586,-4.586 4,-4.586 4,-1 2.5,-2.5 0,0 Z" /></g></g></g><g
       transform="translate(0.5004,11.5002)"
       id="g46"><path
         id="path48"
         style="fill:#c27d1a;fill-opacity:1;fill-rule:nonzero;stroke:none"
         d="m 0,0 2,-2 1.499,1.5 1.001,0 0,-4 3,0 L 6.999,-5 8.5,-6.5 11,-4.001 9.499,-2.5 8.5,-3.5 l -3,0 0,3 1,0 L 5.999,-1 7.5,-2.5 10,0 8.5,1.499 l -1,-1 -2,0 -1,0 1,1 L 3.499,3.5 0,0 Z" /></g><g
       id="g50"><g
         clip-path="url(#clipPath54)"
         id="g52"><g
           transform="translate(15,4.5176)"
           id="g58"><path
             id="path60"
             style="fill:#424242;fill-opacity:1;fill-rule:nonzero;stroke:none"
             d="m 0,0 c 0,-0.375 -0.127,-0.756 -0.33,-1.018 -0.29,-0.349 -2.119,-2.5 -2.119,-2.5 0,0 -1.932,2.151 -2.222,2.5 C -4.873,-0.756 -5,-0.375 -5,0 c 0,0.818 0.701,1.482 1.429,1.482 0.526,0 0.86,-0.747 1.071,-1.25 0.211,0.503 0.544,1.25 1.071,1.25 C -0.7,1.482 0,0.818 0,0" /></g></g></g></g></svg>