<?xml version="1.0" encoding="UTF-8" standalone="no"?>
<svg
   xmlns:dc="http://purl.org/dc/elements/1.1/"
   xmlns:cc="http://creativecommons.org/ns#"
   xmlns:rdf="http://www.w3.org/1999/02/22-rdf-syntax-ns#"
   xmlns:svg="http://www.w3.org/2000/svg"
   xmlns="http://www.w3.org/2000/svg"
   viewBox="0 0 20 20"
   height="20"
   width="20"
   xml:space="preserve"
   version="1.1"
   id="svg2"><metadata
     id="metadata8"><rdf:RDF><cc:Work
         rdf:about=""><dc:format>image/svg+xml</dc:format><dc:type
           rdf:resource="http://purl.org/dc/dcmitype/StillImage" /></cc:Work></rdf:RDF></metadata><defs
     id="defs6"><clipPath
       id="clipPath16"
       clipPathUnits="userSpaceOnUse"><path
         id="path18"
         d="M 0,16 16,16 16,0 0,0 0,16 Z" /></clipPath><clipPath
       id="clipPath24"
       clipPathUnits="userSpaceOnUse"><path
         id="path26"
         d="M 4.88281e-4,16 16,16 16,0 4.88281e-4,0 l 0,16 z" /></clipPath></defs><g
     transform="matrix(1.25,0,0,-1.25,0,20)"
     id="g10"><g
       id="g12"><g
         clip-path="url(#clipPath16)"
         id="g14"><g
           id="g20"><g
             id="g22" /><g
             id="g28"><g
               style="opacity:0"
               id="g30"
               clip-path="url(#clipPath24)"><path
                 id="path32"
                 style="fill:#f6f6f6;fill-opacity:1;fill-rule:nonzero;stroke:none"
                 d="M 16,0 0,0 0,16 16,16 16,0 Z" /></g></g></g></g></g><g
       transform="translate(3.5856,16.0002)"
       id="g34"><path
         id="path36"
         style="fill:#f6f6f6;fill-opacity:1;fill-rule:nonzero;stroke:none"
         d="m 0,0 -3.586,-3.586 0,-1.827 2.501,-2.501 1.499,1.501 0,-3.587 2.587,0 2.413,-2.415 1.414,1.415 0.586,0 0,-2.001 -1,0 0,-2.999 2,0 1,0 2.001,0 0,2.999 -1,0 0,2.001 1,0 0,3 -2.001,0 -0.586,0 -2,2.001 L 8.329,-4.5 5.414,-1.586 4.001,-3 3.829,-3 0.829,0 0,0 Z" /></g><g
       transform="translate(0.5004,11.5002)"
       id="g38"><path
         id="path40"
         style="fill:#c27d1a;fill-opacity:1;fill-rule:nonzero;stroke:none"
         d="m 0,0 2,-2 1.499,1.501 1.001,0 0,-4.001 3,0 L 6.999,-5 8.5,-6.5 11,-4 9.499,-2.499 8.5,-3.5 l -3,0 0,3.001 1,0 L 5.999,-1 7.5,-2.499 10,0 8.5,1.5 l -1,-1 -2,0 -1,0 1,1 -2.001,2 L 0,0 Z" /></g><path
       id="path42"
       style="fill:#424242;fill-opacity:1;fill-rule:nonzero;stroke:none"
       d="m 14,2 -1,0 0,-1 1,0 0,1 z m -2,0 -1,0 0,-1 1,0 0,1 z m 0,5 -1,0 0,-1 1,0 0,1 z m 2,0 -1,0 0,-1 1,0 0,1 z m -1,-5 -1,0 0,4 1,0 0,-4 z" /></g></svg>