<?xml version="1.0" encoding="UTF-8" standalone="no"?>
<svg
   xmlns:dc="http://purl.org/dc/elements/1.1/"
   xmlns:cc="http://creativecommons.org/ns#"
   xmlns:rdf="http://www.w3.org/1999/02/22-rdf-syntax-ns#"
   xmlns:svg="http://www.w3.org/2000/svg"
   xmlns="http://www.w3.org/2000/svg"
   viewBox="0 0 20 20"
   height="20"
   width="20"
   xml:space="preserve"
   version="1.1"
   id="svg2"><metadata
     id="metadata8"><rdf:RDF><cc:Work
         rdf:about=""><dc:format>image/svg+xml</dc:format><dc:type
           rdf:resource="http://purl.org/dc/dcmitype/StillImage" /></cc:Work></rdf:RDF></metadata><defs
     id="defs6"><clipPath
       id="clipPath16"
       clipPathUnits="userSpaceOnUse"><path
         id="path18"
         d="M 0,16 16,16 16,0 0,0 0,16 Z" /></clipPath><clipPath
       id="clipPath24"
       clipPathUnits="userSpaceOnUse"><path
         id="path26"
         d="M 4.88281e-4,16 16,16 16,0 4.88281e-4,0 l 0,16 z" /></clipPath><clipPath
       id="clipPath38"
       clipPathUnits="userSpaceOnUse"><path
         id="path40"
         d="M 0,16 16,16 16,0 0,0 0,16 Z" /></clipPath><clipPath
       id="clipPath50"
       clipPathUnits="userSpaceOnUse"><path
         id="path52"
         d="M 0,16 16,16 16,0 0,0 0,16 Z" /></clipPath><clipPath
       id="clipPath62"
       clipPathUnits="userSpaceOnUse"><path
         id="path64"
         d="M 0,16 16,16 16,0 0,0 0,16 Z" /></clipPath></defs><g
     transform="matrix(1.25,0,0,-1.25,0,20)"
     id="g10"><g
       id="g12"><g
         clip-path="url(#clipPath16)"
         id="g14"><g
           id="g20"><g
             id="g22" /><g
             id="g28"><g
               style="opacity:0"
               id="g30"
               clip-path="url(#clipPath24)"><path
                 id="path32"
                 style="fill:#f6f6f6;fill-opacity:1;fill-rule:nonzero;stroke:none"
                 d="M 16,0 0,0 0,16 16,16 16,0 Z" /></g></g></g></g></g><g
       id="g34"><g
         clip-path="url(#clipPath38)"
         id="g36"><g
           transform="translate(16,5)"
           id="g42"><path
             id="path44"
             style="fill:#f6f6f6;fill-opacity:1;fill-rule:nonzero;stroke:none"
             d="M 0,0 0,-0.976 0,-1.463 0,-5 l -7,0 0,3.469 0,0.117 L -9.414,1 -12,1 l 0,3.586 -1.5,-1.5 -2.5,2.5 0,1.828 3.586,3.586 0.828,0 3,-3 0.172,0 L -7,9.414 -4.086,6.5 -5.586,5 -3.578,2.993 C -3.52,2.995 -3.467,3 -3.406,3 c 2.78,0 3.21,-1.827 3.329,-3 L 0,0 Z" /></g></g></g><g
       id="g46"><g
         clip-path="url(#clipPath50)"
         id="g48"><g
           transform="translate(7.5,6.5)"
           id="g54"><path
             id="path56"
             style="fill:#c27d1a;fill-opacity:1;fill-rule:nonzero;stroke:none"
             d="m 0,0 0.5,0.5 -3,0 0,4 -1,0 L -5,3 l -2,2 3.5,3.5 2,-2 -1,-1 1,0 2,0 1,1 L 3,5 0.5,2.5 -1,4 l 0.5,0.5 -1,0 0,-3 3,0 1,1 1.184,-1.183 C 2.054,0.833 1.712,-0.501 1.585,-1.415 L 1.5,-1.5 0,0 Z" /></g></g></g><g
       id="g58"><g
         clip-path="url(#clipPath62)"
         id="g60"><path
           id="path66"
           style="fill:#424242;fill-opacity:1;fill-rule:nonzero;stroke:none"
           d="m 13,3 -1,0 0,-1 1,0 0,1 z m 2,1 0,-3 -5,0 0,3 1,0 3,0 1,0 z M 10.018,4.469 C 10.148,5.594 10.198,7 12.594,7 14.82,7 14.879,5.588 14.964,4.469 l -0.966,0 C 13.984,5.215 13.843,6.01 12.594,6.01 11.352,6.01 11.078,5.198 11.019,4.469 l -1.001,0 z" /></g></g><path
       id="path68"
       style="fill:#f0eff1;fill-opacity:1;fill-rule:nonzero;stroke:none"
       d="m 12,2 1,0 0,1 -1,0 0,-1 z" /></g></svg>