<?xml version="1.0" encoding="UTF-8" standalone="no"?>
<svg
   xmlns:dc="http://purl.org/dc/elements/1.1/"
   xmlns:cc="http://creativecommons.org/ns#"
   xmlns:rdf="http://www.w3.org/1999/02/22-rdf-syntax-ns#"
   xmlns:svg="http://www.w3.org/2000/svg"
   xmlns="http://www.w3.org/2000/svg"
   viewBox="0 0 20 20"
   height="20"
   width="20"
   xml:space="preserve"
   version="1.1"
   id="svg2"><metadata
     id="metadata8"><rdf:RDF><cc:Work
         rdf:about=""><dc:format>image/svg+xml</dc:format><dc:type
           rdf:resource="http://purl.org/dc/dcmitype/StillImage" /></cc:Work></rdf:RDF></metadata><defs
     id="defs6"><clipPath
       id="clipPath16"
       clipPathUnits="userSpaceOnUse"><path
         id="path18"
         d="M 0,16 16,16 16,0 0,0 0,16 Z" /></clipPath><clipPath
       id="clipPath24"
       clipPathUnits="userSpaceOnUse"><path
         id="path26"
         d="M 4.88281e-4,16 16,16 16,0 4.88281e-4,0 l 0,16 z" /></clipPath><clipPath
       id="clipPath38"
       clipPathUnits="userSpaceOnUse"><path
         id="path40"
         d="M 0,16 16,16 16,0 0,0 0,16 Z" /></clipPath><clipPath
       id="clipPath50"
       clipPathUnits="userSpaceOnUse"><path
         id="path52"
         d="M 0,16 16,16 16,0 0,0 0,16 Z" /></clipPath><clipPath
       id="clipPath62"
       clipPathUnits="userSpaceOnUse"><path
         id="path64"
         d="M 0,16 16,16 16,0 0,0 0,16 Z" /></clipPath></defs><g
     transform="matrix(1.25,0,0,-1.25,0,20)"
     id="g10"><g
       id="g12"><g
         clip-path="url(#clipPath16)"
         id="g14"><g
           id="g20"><g
             id="g22" /><g
             id="g28"><g
               style="opacity:0"
               id="g30"
               clip-path="url(#clipPath24)"><path
                 id="path32"
                 style="fill:#f6f6f6;fill-opacity:1;fill-rule:nonzero;stroke:none"
                 d="M 16,0 0,0 0,16 16,16 16,0 Z" /></g></g></g></g></g><g
       id="g34"><g
         clip-path="url(#clipPath38)"
         id="g36"><g
           transform="translate(16,0)"
           id="g42"><path
             id="path44"
             style="fill:#f6f6f6;fill-opacity:1;fill-rule:nonzero;stroke:none"
             d="M 0,0 -1.689,0 -3.586,1.696 -4.562,0.524 C -4.873,0.18 -5.294,0 -5.742,0 c -0.431,0 -0.847,0.163 -1.14,0.448 -0.304,0.296 -0.48,0.71 -0.481,1.135 -10e-4,0.426 0.168,0.828 0.476,1.133 l 1.08,0.966 -1.044,0.933 c -0.137,0.135 -0.238,0.281 -0.32,0.434 l -0.798,-0.511 -1.427,1.428 -2.587,0 0,3.586 -1.5,-1.5 -2.517,2.517 0,1.794 3.637,3.637 0.76,0 3.034,-3.034 0.173,0 1.414,1.414 2.914,-2.914 -1.5,-1.5 2.5,-2.5 -1.1,-1.101 0.582,-0.698 1.897,1.696 L 0,7.363 0,6.001 -1.933,3.682 0,1.362 0,0 Z" /></g></g></g><g
       id="g46"><g
         clip-path="url(#clipPath50)"
         id="g48"><g
           transform="translate(11.5176,7.5127)"
           id="g54"><path
             id="path56"
             style="fill:#c27d1a;fill-opacity:1;fill-rule:nonzero;stroke:none"
             d="m 0,0 -0.371,-0.372 c -0.255,0.172 -0.564,0.269 -0.889,0.269 -0.431,0 -0.846,-0.163 -1.139,-0.448 -0.305,-0.296 -0.48,-0.71 -0.481,-1.135 -10e-4,-0.184 0.037,-0.362 0.101,-0.535 L -4,-1.006 l 0.5,0.493 -3.018,0 0,4 -0.983,0 -1.5,-1.493 -2,2.003 3.5,3.501 2,-2.005 -1,-1.006 1,0 2.001,0 1,1.007 1.5,-1.497 -2.5,-2.499 -1.501,1.495 0.501,0.494 -1.018,0 0,-3 3.018,0 1,1.007 L 0,0 Z" /></g></g></g><g
       id="g58"><g
         clip-path="url(#clipPath62)"
         id="g60"><g
           transform="translate(11.6934,3.6816)"
           id="g66"><path
             id="path68"
             style="fill:#a1260d;fill-opacity:1;fill-rule:nonzero;stroke:none"
             d="m 0,0 -1.878,-1.679 c -0.259,-0.255 -0.216,-0.628 0,-0.838 0.21,-0.204 0.641,-0.235 0.853,0 L 0.615,-0.55 3,-2.682 l 0.307,0 L 1.072,0 3.307,2.682 3,2.682 0.615,0.55 -1.025,2.517 c -0.212,0.234 -0.643,0.204 -0.853,0 -0.216,-0.21 -0.259,-0.583 0,-0.838 L 0,0 Z" /></g></g></g></g></svg>