<?xml version="1.0" encoding="UTF-8" standalone="no"?>
<svg
   xmlns:dc="http://purl.org/dc/elements/1.1/"
   xmlns:cc="http://creativecommons.org/ns#"
   xmlns:rdf="http://www.w3.org/1999/02/22-rdf-syntax-ns#"
   xmlns:svg="http://www.w3.org/2000/svg"
   xmlns="http://www.w3.org/2000/svg"
   viewBox="0 0 20 20"
   height="20"
   width="20"
   xml:space="preserve"
   version="1.1"
   id="svg2"><metadata
     id="metadata8"><rdf:RDF><cc:Work
         rdf:about=""><dc:format>image/svg+xml</dc:format><dc:type
           rdf:resource="http://purl.org/dc/dcmitype/StillImage" /></cc:Work></rdf:RDF></metadata><defs
     id="defs6"><clipPath
       id="clipPath16"
       clipPathUnits="userSpaceOnUse"><path
         id="path18"
         d="M 0,16 16,16 16,0 0,0 0,16 Z" /></clipPath><clipPath
       id="clipPath24"
       clipPathUnits="userSpaceOnUse"><path
         id="path26"
         d="M 4.88281e-4,16 16,16 16,0 4.88281e-4,0 l 0,16 z" /></clipPath></defs><g
     transform="matrix(1.25,0,0,-1.25,0,20)"
     id="g10"><g
       id="g12"><g
         clip-path="url(#clipPath16)"
         id="g14"><g
           id="g20"><g
             id="g22" /><g
             id="g28"><g
               style="opacity:0"
               id="g30"
               clip-path="url(#clipPath24)"><path
                 id="path32"
                 style="fill:#f6f6f6;fill-opacity:1;fill-rule:nonzero;stroke:none"
                 d="M 16,0 0,0 0,16 16,16 16,0 Z" /></g></g></g></g></g><g
       transform="translate(5.5863,16.0002)"
       id="g34"><path
         id="path36"
         style="fill:#f6f6f6;fill-opacity:1;fill-rule:nonzero;stroke:none"
         d="m 0,0 -5.586,-5.586 0,-0.828 3.999,-4 2.415,2.414 0.586,0 0,-5.001 1.586,0 2.999,-2.999 0.828,0 3.587,3.585 0,0.829 -2.086,2.086 2.086,2.086 0,0.828 L 7.413,-3.587 5.999,-5 l -2.171,0 1,0.999 L 0.828,0 0,0 Z" /></g><g
       transform="translate(13,6)"
       id="g38"><path
         id="path40"
         style="fill:#c27d1a;fill-opacity:1;fill-rule:nonzero;stroke:none"
         d="m 0,0 2,-2 -3,-3 -2,2 1,1 -3,0 0,5 -2,0 -2,-2 -3,3 5,5 3,-3 -2,-2 5,0 1,1 2,-2 -3,-3 -2,2 1,1 -2,0 0,-4 2.998,-0.002 L 0,0 Z" /></g></g></svg>