<?xml version="1.0" encoding="UTF-8" standalone="no"?>
<svg
   xmlns:dc="http://purl.org/dc/elements/1.1/"
   xmlns:cc="http://creativecommons.org/ns#"
   xmlns:rdf="http://www.w3.org/1999/02/22-rdf-syntax-ns#"
   xmlns:svg="http://www.w3.org/2000/svg"
   xmlns="http://www.w3.org/2000/svg"
   viewBox="0 0 20 20"
   height="20"
   width="20"
   xml:space="preserve"
   version="1.1"
   id="svg2"><metadata
     id="metadata8"><rdf:RDF><cc:Work
         rdf:about=""><dc:format>image/svg+xml</dc:format><dc:type
           rdf:resource="http://purl.org/dc/dcmitype/StillImage" /></cc:Work></rdf:RDF></metadata><defs
     id="defs6"><clipPath
       id="clipPath16"
       clipPathUnits="userSpaceOnUse"><path
         id="path18"
         d="M 0,16 16,16 16,0 0,0 0,16 Z" /></clipPath><clipPath
       id="clipPath24"
       clipPathUnits="userSpaceOnUse"><path
         id="path26"
         d="M 4.88281e-4,16 16,16 16,0 4.88281e-4,0 l 0,16 z" /></clipPath></defs><g
     transform="matrix(1.25,0,0,-1.25,0,20)"
     id="g10"><g
       id="g12"><g
         clip-path="url(#clipPath16)"
         id="g14"><g
           id="g20"><g
             id="g22" /><g
             id="g28"><g
               style="opacity:0"
               id="g30"
               clip-path="url(#clipPath24)"><path
                 id="path32"
                 style="fill:#f6f6f6;fill-opacity:1;fill-rule:nonzero;stroke:none"
                 d="M 16,0 0,0 0,16 16,16 16,0 Z" /></g></g></g></g></g><g
       transform="translate(3.6018,16.0002)"
       id="g34"><path
         id="path36"
         style="fill:#f6f6f6;fill-opacity:1;fill-rule:nonzero;stroke:none"
         d="m 0,0 -3.602,-3.602 0,-1.812 2.508,-2.508 1.5,1.5 0,-3.586 2.586,0 1.406,-1.407 0,-2.585 2.018,0 0,-2 3.983,0 0,2 1.999,0 0,3.982 -1.999,0 0,2.018 -1.587,0 -1.992,1.992 1.5,1.5 -2.914,2.914 -1.414,-1.414 -0.172,0 L 0.813,0 0,0 Z" /></g><g
       transform="translate(0.5076,11.493)"
       id="g38"><path
         id="path40"
         style="fill:#c27d1a;fill-opacity:1;fill-rule:nonzero;stroke:none"
         d="m 0,0 2,-1.996 1.5,1.503 0.993,0 0,-4 3.008,0 L 7,-4.988 l 0.51,-0.505 1.98,0 0.002,0.002 0,1.998 1,0 -0.992,0.996 -0.999,-0.996 -3.008,0 0,3 1.007,0 L 6,-0.997 7.501,-2.499 10,0 8.501,1.504 l -1,-0.997 -2.001,0 -1,0 1,0.996 -2,1.998 L 0,0 Z" /></g><g
       transform="translate(15,3)"
       id="g42"><path
         id="path44"
         style="fill:#388a34;fill-opacity:1;fill-rule:nonzero;stroke:none"
         d="m 0,0 -2,0 0,-2 -1.982,0 0,2 -2.018,0 0,1.982 2.018,0 0,2.018 1.982,0 0,-2.018 2,0 L 0,0 Z" /></g></g></svg>