<?xml version="1.0" encoding="UTF-8" standalone="no"?>
<svg
   xmlns:dc="http://purl.org/dc/elements/1.1/"
   xmlns:cc="http://creativecommons.org/ns#"
   xmlns:rdf="http://www.w3.org/1999/02/22-rdf-syntax-ns#"
   xmlns:svg="http://www.w3.org/2000/svg"
   xmlns="http://www.w3.org/2000/svg"
   viewBox="0 0 20 20"
   height="20"
   width="20"
   xml:space="preserve"
   version="1.1"
   id="svg2"><metadata
     id="metadata8"><rdf:RDF><cc:Work
         rdf:about=""><dc:format>image/svg+xml</dc:format><dc:type
           rdf:resource="http://purl.org/dc/dcmitype/StillImage" /></cc:Work></rdf:RDF></metadata><defs
     id="defs6"><clipPath
       id="clipPath16"
       clipPathUnits="userSpaceOnUse"><path
         id="path18"
         d="M 0,16 16,16 16,0 0,0 0,16 Z" /></clipPath><clipPath
       id="clipPath24"
       clipPathUnits="userSpaceOnUse"><path
         id="path26"
         d="M 0,16 16,16 16,0 0,0 0,16 Z" /></clipPath></defs><g
     transform="matrix(1.25,0,0,-1.25,0,20)"
     id="g10"><g
       id="g12"><g
         clip-path="url(#clipPath16)"
         id="g14"><g
           id="g20"><g
             id="g22" /><g
             id="g28"><g
               style="opacity:0"
               id="g30"
               clip-path="url(#clipPath24)"><path
                 id="path32"
                 style="fill:#f6f6f6;fill-opacity:1;fill-rule:nonzero;stroke:none"
                 d="M 16,0 0,0 0,16 16,16 16,0 Z" /></g></g></g></g></g><g
       transform="translate(3.5856,15.9993)"
       id="g34"><path
         id="path36"
         style="fill:#f6f6f6;fill-opacity:1;fill-rule:nonzero;stroke:none"
         d="m 0,0 -3.586,-3.585 0,-1.828 2.501,-2.501 1.499,1.501 0,-3.586 2.587,0 2.413,-2.415 0,-0.085 1.393,-1.045 -0.737,-2.455 1.677,0 1.168,0.875 1.167,-0.875 1.676,0 -0.737,2.455 1.394,1.045 0,1.5 -2.157,0 -0.599,2 -0.831,0 0.5,0.499 -2.5,2.501 1.501,1.5 L 5.414,-1.585 4.001,-3 3.829,-3 0.829,0 0,0 Z" /></g><g
       transform="translate(0.5004,11.5002)"
       id="g38"><path
         id="path40"
         style="fill:#c27d1a;fill-opacity:1;fill-rule:nonzero;stroke:none"
         d="m 0,0 2,-2 1.499,1.5 1.001,0 0,-4 3,0 L 6.999,-5 8.5,-6.5 11,-4.001 9.499,-2.5 8.5,-3.5 l -3,0 0,3 1,0 L 5.999,-1 7.5,-2.5 10,0 8.5,1.499 l -1,-1 -2,0 -1,0 1,1 L 3.499,3.5 0,0 Z" /></g><g
       transform="translate(14,1)"
       id="g42"><path
         id="path44"
         style="fill:#424242;fill-opacity:1;fill-rule:nonzero;stroke:none"
         d="M 0,0 -1.5,1.125 -3,0 -2.449,1.837 -4,3 -2.1,3 -1.5,5 -0.9,3 1,3 -0.551,1.837 0,0 Z" /></g></g></svg>