<?xml version="1.0" encoding="UTF-8" standalone="no"?>
<svg
   xmlns:dc="http://purl.org/dc/elements/1.1/"
   xmlns:cc="http://creativecommons.org/ns#"
   xmlns:rdf="http://www.w3.org/1999/02/22-rdf-syntax-ns#"
   xmlns:svg="http://www.w3.org/2000/svg"
   xmlns="http://www.w3.org/2000/svg"
   viewBox="0 0 20 20"
   height="20"
   width="20"
   xml:space="preserve"
   version="1.1"
   id="svg2"><metadata
     id="metadata8"><rdf:RDF><cc:Work
         rdf:about=""><dc:format>image/svg+xml</dc:format><dc:type
           rdf:resource="http://purl.org/dc/dcmitype/StillImage" /></cc:Work></rdf:RDF></metadata><defs
     id="defs6"><clipPath
       id="clipPath16"
       clipPathUnits="userSpaceOnUse"><path
         id="path18"
         d="M 0,16 16,16 16,0 0,0 0,16 Z" /></clipPath><clipPath
       id="clipPath24"
       clipPathUnits="userSpaceOnUse"><path
         id="path26"
         d="M 4.88281e-4,16.0005 16,16.0005 16,0 4.88281e-4,0 l 0,16.0005 z" /></clipPath><clipPath
       id="clipPath38"
       clipPathUnits="userSpaceOnUse"><path
         id="path40"
         d="M 0,16 16,16 16,0 0,0 0,16 Z" /></clipPath><clipPath
       id="clipPath50"
       clipPathUnits="userSpaceOnUse"><path
         id="path52"
         d="M 0,16 16,16 16,0 0,0 0,16 Z" /></clipPath></defs><g
     transform="matrix(1.25,0,0,-1.25,0,20)"
     id="g10"><g
       id="g12"><g
         clip-path="url(#clipPath16)"
         id="g14"><g
           id="g20"><g
             id="g22" /><g
             id="g28"><g
               style="opacity:0"
               id="g30"
               clip-path="url(#clipPath24)"><path
                 id="path32"
                 style="fill:#f6f6f6;fill-opacity:1;fill-rule:nonzero;stroke:none"
                 d="M 16,0 0,0 0,16 16,16 16,0 Z" /></g></g></g></g></g><g
       id="g34"><g
         clip-path="url(#clipPath38)"
         id="g36"><g
           transform="translate(16,8)"
           id="g42"><path
             id="path44"
             style="fill:#f6f6f6;fill-opacity:1;fill-rule:nonzero;stroke:none"
             d="m 0,0 c 0,-4.418 -3.582,-8 -8,-8 -4.418,0 -8,3.582 -8,8 0,4.418 3.582,8 8,8 4.418,0 8,-3.582 8,-8" /></g></g></g><g
       id="g46"><g
         clip-path="url(#clipPath50)"
         id="g48"><g
           transform="translate(10.6402,12.0544)"
           id="g54"><path
             id="path56"
             style="fill:#e51400;fill-opacity:1;fill-rule:nonzero;stroke:none"
             d="m 0,0 c -0.493,0.318 -1.045,0.547 -1.64,0.672 l 0,2.201 C -0.452,2.702 0.635,2.238 1.555,1.555 L 0,0 Z" /></g><g
           transform="translate(1.0699,9)"
           id="g58"><path
             id="path60"
             style="fill:#424242;fill-opacity:1;fill-rule:nonzero;stroke:none"
             d="M 0,0 C 0.173,1.187 0.635,2.275 1.323,3.193 L 2.879,1.637 C 2.558,1.145 2.326,0.594 2.2,0 L 0,0 Z" /></g><g
           transform="translate(5.3598,12.0544)"
           id="g62"><path
             id="path64"
             style="fill:#ffcc00;fill-opacity:1;fill-rule:nonzero;stroke:none"
             d="m 0,0 -1.555,1.555 c 0.92,0.683 2.007,1.147 3.195,1.318 l 0,-2.201 C 1.045,0.547 0.493,0.318 0,0" /></g><g
           transform="translate(12.0515,10.6373)"
           id="g66"><path
             id="path68"
             style="fill:#a1260d;fill-opacity:1;fill-rule:nonzero;stroke:none"
             d="M 0,0 1.556,1.556 C 2.244,0.638 2.705,-0.451 2.879,-1.637 l -2.2,0 C 0.552,-1.044 0.321,-0.493 0,0" /></g><g
           transform="translate(10.6404,3.9454)"
           id="g70"><path
             id="path72"
             style="fill:#00539c;fill-opacity:1;fill-rule:nonzero;stroke:none"
             d="M 0,0 1.554,-1.554 C 0.635,-2.238 -0.451,-2.702 -1.64,-2.873 l 0,2.202 C -1.045,-0.547 -0.493,-0.318 0,0" /></g><g
           transform="translate(14.9301,7)"
           id="g74"><path
             id="path76"
             style="fill:#9b4f96;fill-opacity:1;fill-rule:nonzero;stroke:none"
             d="m 0,0 c -0.173,-1.186 -0.635,-2.274 -1.323,-3.193 l -1.555,1.556 C -2.558,-1.145 -2.326,-0.594 -2.2,0 L 0,0 Z" /></g><g
           transform="translate(3.9484,5.3627)"
           id="g78"><path
             id="path80"
             style="fill:#339933;fill-opacity:1;fill-rule:nonzero;stroke:none"
             d="m 0,0 -1.556,-1.556 c -0.688,0.919 -1.149,2.007 -1.323,3.193 l 2.2,0 C -0.552,1.044 -0.321,0.493 0,0" /></g><g
           transform="translate(5.3596,3.9454)"
           id="g82"><path
             id="path84"
             style="fill:#1ba1e2;fill-opacity:1;fill-rule:nonzero;stroke:none"
             d="m 0,0 c 0.493,-0.318 1.046,-0.547 1.64,-0.671 l 0,-2.202 c -1.189,0.171 -2.275,0.635 -3.194,1.319 L 0,0 Z" /></g></g></g></g></svg>