<?xml version="1.0" encoding="UTF-8" standalone="no"?>
<svg
   xmlns:dc="http://purl.org/dc/elements/1.1/"
   xmlns:cc="http://creativecommons.org/ns#"
   xmlns:rdf="http://www.w3.org/1999/02/22-rdf-syntax-ns#"
   xmlns:svg="http://www.w3.org/2000/svg"
   xmlns="http://www.w3.org/2000/svg"
   viewBox="0 0 20 20"
   height="20"
   width="20"
   xml:space="preserve"
   version="1.1"
   id="svg2"><metadata
     id="metadata8"><rdf:RDF><cc:Work
         rdf:about=""><dc:format>image/svg+xml</dc:format><dc:type
           rdf:resource="http://purl.org/dc/dcmitype/StillImage" /></cc:Work></rdf:RDF></metadata><defs
     id="defs6"><clipPath
       id="clipPath16"
       clipPathUnits="userSpaceOnUse"><path
         id="path18"
         d="M 0,16 16,16 16,0 0,0 0,16 Z" /></clipPath><clipPath
       id="clipPath24"
       clipPathUnits="userSpaceOnUse"><path
         id="path26"
         d="M 4.88281e-4,16.0005 16,16.0005 16,0 4.88281e-4,0 l 0,16.0005 z" /></clipPath></defs><g
     transform="matrix(1.25,0,0,-1.25,0,20)"
     id="g10"><g
       id="g12"><g
         clip-path="url(#clipPath16)"
         id="g14"><g
           id="g20"><g
             id="g22" /><g
             id="g28"><g
               style="opacity:0"
               id="g30"
               clip-path="url(#clipPath24)"><path
                 id="path32"
                 style="fill:#f6f6f6;fill-opacity:1;fill-rule:nonzero;stroke:none"
                 d="M 16,0 0,0 0,16 16,16 16,0 Z" /></g></g></g></g></g><g
       transform="translate(1.5858,16.0002)"
       id="g34"><path
         id="path36"
         style="fill:#f6f6f6;fill-opacity:1;fill-rule:nonzero;stroke:none"
         d="m 0,0 -1.586,-1.586 0,-7.828 L 0,-11 l 7.414,0 0,-1.5 1.393,-1.045 L 8.07,-16 l 1.677,0 1.167,0.875 1.168,-0.875 1.676,0 -0.737,2.455 1.393,1.045 0,1.5 -2.156,0 -0.599,2 -1.245,0 0,7.414 L 8.828,0 0,0 Z" /></g><g
       transform="translate(10,7.4141)"
       id="g38"><path
         id="path40"
         style="fill:#424242;fill-opacity:1;fill-rule:nonzero;stroke:none"
         d="m 0,0 -0.414,-0.414 -7.172,0 L -8,0 l 0,6.172 0.414,0.414 7.172,0 L 0,6.172 0,0 Z m 0,7.586 -8,0 -1,-1 0,-7 1,-1 8,0 1,1 0,7 -1,1 z" /></g><path
       id="path42"
       style="fill:#00539c;fill-opacity:1;fill-rule:nonzero;stroke:none"
       d="m 4,11 4.001,0 0,1 L 4,12 4,11 Z" /><path
       id="path44"
       style="fill:#00539c;fill-opacity:1;fill-rule:nonzero;stroke:none"
       d="m 4,9 4.001,0 0,1 L 4,10 4,9 Z" /><path
       id="path46"
       style="fill:#f0eff1;fill-opacity:1;fill-rule:nonzero;stroke:none"
       d="m 8,11 -4,0 0,1 4,0 0,-1 z M 8,9 4,9 4,10 8,10 8,9 Z M 9.586,14 2.414,14 2,13.586 2,7.414 2.414,7 9.586,7 10,7.414 10,13.586 9.586,14 Z" /><g
       transform="translate(13.4492,2.8369)"
       id="g48"><path
         id="path50"
         style="fill:#424242;fill-opacity:1;fill-rule:nonzero;stroke:none"
         d="m 0,0 1.551,1.163 -1.901,0 -0.599,2 -0.6,-2 -1.9,0 1.551,-1.163 -0.551,-1.837 1.5,1.125 1.5,-1.125 L 0,0 Z" /></g></g></svg>