<?xml version="1.0" encoding="UTF-8" standalone="no"?>
<svg
   xmlns:dc="http://purl.org/dc/elements/1.1/"
   xmlns:cc="http://creativecommons.org/ns#"
   xmlns:rdf="http://www.w3.org/1999/02/22-rdf-syntax-ns#"
   xmlns:svg="http://www.w3.org/2000/svg"
   xmlns="http://www.w3.org/2000/svg"
   viewBox="0 0 20 20"
   height="20"
   width="20"
   xml:space="preserve"
   version="1.1"
   id="svg2"><metadata
     id="metadata8"><rdf:RDF><cc:Work
         rdf:about=""><dc:format>image/svg+xml</dc:format><dc:type
           rdf:resource="http://purl.org/dc/dcmitype/StillImage" /></cc:Work></rdf:RDF></metadata><defs
     id="defs6"><clipPath
       id="clipPath16"
       clipPathUnits="userSpaceOnUse"><path
         id="path18"
         d="M 0,16 16,16 16,0 0,0 0,16 Z" /></clipPath><clipPath
       id="clipPath24"
       clipPathUnits="userSpaceOnUse"><path
         id="path26"
         d="M 4.88281e-4,16.0005 16,16.0005 16,0 4.88281e-4,0 l 0,16.0005 z" /></clipPath><clipPath
       id="clipPath42"
       clipPathUnits="userSpaceOnUse"><path
         id="path44"
         d="M 0,16 16,16 16,0 0,0 0,16 Z" /></clipPath><clipPath
       id="clipPath62"
       clipPathUnits="userSpaceOnUse"><path
         id="path64"
         d="M 0,16 16,16 16,0 0,0 0,16 Z" /></clipPath></defs><g
     transform="matrix(1.25,0,0,-1.25,0,20)"
     id="g10"><g
       id="g12"><g
         clip-path="url(#clipPath16)"
         id="g14"><g
           id="g20"><g
             id="g22" /><g
             id="g28"><g
               style="opacity:0"
               id="g30"
               clip-path="url(#clipPath24)"><path
                 id="path32"
                 style="fill:#f6f6f6;fill-opacity:1;fill-rule:nonzero;stroke:none"
                 d="M 16,0 0,0 0,16 16,16 16,0 Z" /></g></g></g><g
           transform="translate(12.043,7.9956)"
           id="g34"><path
             id="path36"
             style="fill:#f6f6f6;fill-opacity:1;fill-rule:nonzero;stroke:none"
             d="m 0,0 0.005,0.004 -0.048,0 0,6.414 -1.586,1.586 -8.828,0 -1.586,-1.586 0,-7.828 1.586,-1.586 6.556,0 c -0.084,-0.321 -0.142,-0.652 -0.142,-1 0,-2.209 1.791,-4 4,-4 2.209,0 4,1.791 4,4 C 3.957,-1.801 2.188,-0.023 0,0" /></g></g></g><g
       id="g38"><g
         clip-path="url(#clipPath42)"
         id="g40"><g
           transform="translate(9.3799,7)"
           id="g46"><path
             id="path48"
             style="fill:#424242;fill-opacity:1;fill-rule:nonzero;stroke:none"
             d="m 0,0 -6.966,0 -0.414,0.414 0,6.172 L -6.966,7 0.206,7 0.62,6.586 l 0,-6.141 c 0.311,0.181 0.644,0.321 1,0.413 l 0,6.142 -1,1 -8,0 -1,-1 0,-7 1,-1 6.555,0 c 0.22,0.378 0.497,0.714 0.825,1" /></g><g
           transform="translate(12,1.7832)"
           id="g50"><path
             id="path52"
             style="fill:#424242;fill-opacity:1;fill-rule:nonzero;stroke:none"
             d="M 0,0 C -0.47,0 -0.904,0.148 -1.264,0.398 L 1.818,3.48 C 2.068,3.121 2.217,2.687 2.217,2.217 2.217,0.994 1.223,0 0,0 M -1.587,0.672 -1.545,0.63 c -0.013,0.015 -0.027,0.029 -0.042,0.042 m -0.63,1.545 c 0,1.222 0.994,2.217 2.217,2.217 0.47,0 0.904,-0.149 1.264,-0.399 L -1.818,0.953 c -0.25,0.36 -0.399,0.794 -0.399,1.264 M 1.587,3.762 1.545,3.804 C 1.558,3.789 1.572,3.774 1.587,3.762 M 0,5.217 c -1.654,0 -3,-1.346 -3,-3 0,-1.654 1.346,-3 3,-3 1.654,0 3,1.346 3,3 0,1.654 -1.346,3 -3,3" /></g></g></g><path
       id="path54"
       style="fill:#00539c;fill-opacity:1;fill-rule:nonzero;stroke:none"
       d="m 4,11 4.001,0 0,1 L 4,12 4,11 Z" /><path
       id="path56"
       style="fill:#00539c;fill-opacity:1;fill-rule:nonzero;stroke:none"
       d="m 4,9 4.001,0 0,1 L 4,10 4,9 Z" /><g
       id="g58"><g
         clip-path="url(#clipPath62)"
         id="g60"><path
           id="path66"
           style="fill:#f0eff1;fill-opacity:1;fill-rule:nonzero;stroke:none"
           d="m 4,12 4,0 0,-1 -4,0 0,1 z M 8,9 4,9 4,10 8,10 8,9 Z M 10,7.445 10,13.586 9.586,14 2.414,14 2,13.586 2,7.414 2.414,7 9.38,7 C 9.571,7.168 9.778,7.316 10,7.445" /><g
           transform="translate(9.7832,4)"
           id="g68"><path
             id="path70"
             style="fill:#f0eff1;fill-opacity:1;fill-rule:nonzero;stroke:none"
             d="m 0,0 c 0,1.223 0.994,2.217 2.217,2.217 0.47,0 0.904,-0.149 1.263,-0.399 L 0.398,-1.264 C 0.148,-0.904 0,-0.47 0,0" /></g><g
           transform="translate(12,1.7832)"
           id="g72"><path
             id="path74"
             style="fill:#f0eff1;fill-opacity:1;fill-rule:nonzero;stroke:none"
             d="M 0,0 C -0.47,0 -0.904,0.148 -1.264,0.398 L 1.818,3.48 C 2.068,3.121 2.217,2.687 2.217,2.217 2.217,0.994 1.223,0 0,0" /></g></g></g></g></svg>