<?xml version="1.0" encoding="UTF-8" standalone="no"?>
<svg
   xmlns:dc="http://purl.org/dc/elements/1.1/"
   xmlns:cc="http://creativecommons.org/ns#"
   xmlns:rdf="http://www.w3.org/1999/02/22-rdf-syntax-ns#"
   xmlns:svg="http://www.w3.org/2000/svg"
   xmlns="http://www.w3.org/2000/svg"
   viewBox="0 0 20 20"
   height="20"
   width="20"
   xml:space="preserve"
   version="1.1"
   id="svg2"><metadata
     id="metadata8"><rdf:RDF><cc:Work
         rdf:about=""><dc:format>image/svg+xml</dc:format><dc:type
           rdf:resource="http://purl.org/dc/dcmitype/StillImage" /></cc:Work></rdf:RDF></metadata><defs
     id="defs6"><clipPath
       id="clipPath16"
       clipPathUnits="userSpaceOnUse"><path
         id="path18"
         d="M 0,16 16,16 16,0 0,0 0,16 Z" /></clipPath><clipPath
       id="clipPath24"
       clipPathUnits="userSpaceOnUse"><path
         id="path26"
         d="M 4.88281e-4,16.0005 16,16.0005 16,0 4.88281e-4,0 l 0,16.0005 z" /></clipPath><clipPath
       id="clipPath42"
       clipPathUnits="userSpaceOnUse"><path
         id="path44"
         d="M 0,16 16,16 16,0 0,0 0,16 Z" /></clipPath></defs><g
     transform="matrix(1.25,0,0,-1.25,0,20)"
     id="g10"><g
       id="g12"><g
         clip-path="url(#clipPath16)"
         id="g14"><g
           id="g20"><g
             id="g22" /><g
             id="g28"><g
               style="opacity:0"
               id="g30"
               clip-path="url(#clipPath24)"><path
                 id="path32"
                 style="fill:#f6f6f6;fill-opacity:1;fill-rule:nonzero;stroke:none"
                 d="M 16,0 0,0 0,16 16,16 16,0 Z" /></g></g></g><g
           transform="translate(15.3447,6.8428)"
           id="g34"><path
             id="path36"
             style="fill:#f6f6f6;fill-opacity:1;fill-rule:nonzero;stroke:none"
             d="m 0,0 c -0.397,0.563 -1.015,0.925 -1.835,1.078 -0.43,0.079 -0.798,0.079 -0.942,0.079 -0.096,0 -0.308,0 -0.568,-0.028 l 0,6.442 -1.586,1.586 -8.828,0 -1.586,-1.586 0,-7.828 1.586,-1.586 7.495,0 c -0.021,-0.155 -0.052,-0.3 -0.064,-0.463 -0.021,-0.311 -0.02,-0.537 -0.02,-0.537 l 0,-4 7,0 -0.001,3.959 C 0.664,-2.574 0.693,-0.978 0,0" /></g></g></g><g
       id="g38"><g
         clip-path="url(#clipPath42)"
         id="g40"><g
           transform="translate(2,7.4141)"
           id="g46"><path
             id="path48"
             style="fill:#424242;fill-opacity:1;fill-rule:nonzero;stroke:none"
             d="m 0,0 0,6.172 0.414,0.414 7.172,0 L 8,6.172 8,0 7.586,-0.414 0.414,-0.414 0,0 Z m 7.283,-1.414 c 0.016,0.05 0.029,0.091 0.043,0.129 0.168,0.451 0.403,0.806 0.696,1.056 l 0.045,0.038 0.083,0.057 C 8.148,-0.135 8.146,-0.136 8.146,-0.136 c -0.003,0 0.055,0.042 0.115,0.081 C 8.39,0.031 8.467,0.08 8.548,0.124 8.675,0.195 8.833,0.262 9,0.323 l 0,6.263 -1,1 -8,0 -1,-1 0,-7 1,-1 7,0 0.283,0 z" /></g><g
           transform="translate(11.0186,4.4688)"
           id="g50"><path
             id="path52"
             style="fill:#424242;fill-opacity:1;fill-rule:nonzero;stroke:none"
             d="M 0,0 C 0.06,0.729 0.334,1.541 1.575,1.541 2.824,1.541 2.966,0.746 2.979,0 L 3.945,0 C 3.86,1.119 3.802,2.531 1.575,2.531 -0.82,2.531 -0.87,1.125 -1.001,0 L 0,0 Z" /></g><path
           id="path54"
           style="fill:#424242;fill-opacity:1;fill-rule:nonzero;stroke:none"
           d="m 13,2 -1,0 0,1 1,0 0,-1 z m 1,2 -3,0 -1,0 0,-3 5,0 0,3 -1,0 z" /></g></g><path
       id="path56"
       style="fill:#00539c;fill-opacity:1;fill-rule:nonzero;stroke:none"
       d="m 4,11 4.001,0 0,1 L 4,12 4,11 Z" /><path
       id="path58"
       style="fill:#00539c;fill-opacity:1;fill-rule:nonzero;stroke:none"
       d="m 4,9 4.001,0 0,1 L 4,10 4,9 Z" /><path
       id="path60"
       style="fill:#f0eff1;fill-opacity:1;fill-rule:nonzero;stroke:none"
       d="m 8,11 -4,0 0,1 4,0 0,-1 z M 8,9 4,9 4,10 8,10 8,9 Z M 9.586,14 2.414,14 2,13.586 2,7.414 2.414,7 9.586,7 10,7.414 10,13.586 9.586,14 Z" /><path
       id="path62"
       style="fill:#f0eff1;fill-opacity:1;fill-rule:nonzero;stroke:none"
       d="m 12,2 1,0 0,1 -1,0 0,-1 z" /></g></svg>