<?xml version="1.0" encoding="UTF-8" standalone="no"?>
<svg
   xmlns:dc="http://purl.org/dc/elements/1.1/"
   xmlns:cc="http://creativecommons.org/ns#"
   xmlns:rdf="http://www.w3.org/1999/02/22-rdf-syntax-ns#"
   xmlns:svg="http://www.w3.org/2000/svg"
   xmlns="http://www.w3.org/2000/svg"
   viewBox="0 0 20 20"
   height="20"
   width="20"
   xml:space="preserve"
   version="1.1"
   id="svg2"><metadata
     id="metadata8"><rdf:RDF><cc:Work
         rdf:about=""><dc:format>image/svg+xml</dc:format><dc:type
           rdf:resource="http://purl.org/dc/dcmitype/StillImage" /></cc:Work></rdf:RDF></metadata><defs
     id="defs6"><clipPath
       id="clipPath16"
       clipPathUnits="userSpaceOnUse"><path
         id="path18"
         d="M 0,16 16,16 16,0 0,0 0,16 Z" /></clipPath><clipPath
       id="clipPath28"
       clipPathUnits="userSpaceOnUse"><path
         id="path30"
         d="M 0,16 16,16 16,0 0,0 0,16 Z" /></clipPath><clipPath
       id="clipPath42"
       clipPathUnits="userSpaceOnUse"><path
         id="path44"
         d="M 0,16 16,16 16,0 0,0 0,16 Z" /></clipPath></defs><g
     transform="matrix(1.25,0,0,-1.25,0,20)"
     id="g10"><g
       id="g12"><g
         clip-path="url(#clipPath16)"
         id="g14"><g
           transform="translate(13.5713,7)"
           id="g20"><path
             id="path22"
             style="fill:#f6f6f6;fill-opacity:1;fill-rule:nonzero;stroke:none"
             d="M 0,0 C -0.438,0 -0.79,-0.171 -1.071,-0.416 -1.353,-0.171 -1.704,0 -2.143,0 c -0.23,0 -0.451,-0.046 -0.664,-0.11 0.146,0.255 0.236,0.546 0.236,0.86 l 0,4.5 c 0,0.965 -0.785,1.75 -1.75,1.75 l -0.25,0 0,2 -7,0 0,-2 -0.25,0 c -0.965,0 -1.75,-0.785 -1.75,-1.75 l 0,-4.5 c 0,-0.965 0.785,-1.75 1.75,-1.75 l 7.5,0 c 0.095,0 0.188,0.014 0.28,0.028 -0.326,-0.423 -0.53,-0.945 -0.53,-1.51 0,-0.593 0.196,-1.187 0.559,-1.657 0.293,-0.353 2.247,-2.529 2.247,-2.529 L -1.467,-7 l 0.908,0 0.3,0.353 c 0,0 1.836,2.158 2.148,2.534 0.342,0.442 0.54,1.037 0.54,1.631 C 2.429,-1.137 1.316,0 0,0" /></g></g></g><g
       id="g24"><g
         clip-path="url(#clipPath28)"
         id="g26"><path
           id="path32"
           style="fill:#652d90;fill-opacity:1;fill-rule:nonzero;stroke:none"
           d="m 9,8 -1,0 0,4 1,0 0,-4 z m -5,6 3,0 0,-1 -3,0 0,1 z M 3,8 2,8 2,12 3,12 3,8 Z M 9.25,13 8,13 8,15 3,15 3,13 1.75,13 C 1.336,13 1,12.664 1,12.25 L 1,7.75 C 1,7.336 1.336,7 1.75,7 l 7.5,0 C 9.664,7 10,7.336 10,7.75 l 0,4.5 C 10,12.664 9.664,13 9.25,13" /></g></g><path
       id="path34"
       style="fill:#f0eff1;fill-opacity:1;fill-rule:nonzero;stroke:none"
       d="M 2,8 3,8 3,12 2,12 2,8 Z" /><path
       id="path36"
       style="fill:#f0eff1;fill-opacity:1;fill-rule:nonzero;stroke:none"
       d="M 8,8 9,8 9,12 8,12 8,8 Z" /><g
       id="g38"><g
         clip-path="url(#clipPath42)"
         id="g40"><g
           transform="translate(13.5713,6)"
           id="g46"><path
             id="path48"
             style="fill:#424242;fill-opacity:1;fill-rule:nonzero;stroke:none"
             d="M 0,0 C -0.527,0 -0.86,-0.747 -1.071,-1.25 -1.282,-0.747 -1.616,0 -2.143,0 -2.87,0 -3.571,-0.664 -3.571,-1.482 c 0,-0.375 0.127,-0.756 0.329,-1.018 0.29,-0.35 2.221,-2.5 2.221,-2.5 0,0 1.83,2.15 2.12,2.5 0.203,0.262 0.33,0.643 0.33,1.018 C 1.429,-0.664 0.729,0 0,0" /></g></g></g></g></svg>