<?xml version="1.0" encoding="UTF-8" standalone="no"?>
<svg
   xmlns:dc="http://purl.org/dc/elements/1.1/"
   xmlns:cc="http://creativecommons.org/ns#"
   xmlns:rdf="http://www.w3.org/1999/02/22-rdf-syntax-ns#"
   xmlns:svg="http://www.w3.org/2000/svg"
   xmlns="http://www.w3.org/2000/svg"
   viewBox="0 0 20 20"
   height="20"
   width="20"
   xml:space="preserve"
   version="1.1"
   id="svg2"><metadata
     id="metadata8"><rdf:RDF><cc:Work
         rdf:about=""><dc:format>image/svg+xml</dc:format><dc:type
           rdf:resource="http://purl.org/dc/dcmitype/StillImage" /></cc:Work></rdf:RDF></metadata><defs
     id="defs6"><clipPath
       id="clipPath16"
       clipPathUnits="userSpaceOnUse"><path
         id="path18"
         d="M 0,16 16,16 16,0 0,0 0,16 Z" /></clipPath><clipPath
       id="clipPath28"
       clipPathUnits="userSpaceOnUse"><path
         id="path30"
         d="M 0,16 16,16 16,0 0,0 0,16 Z" /></clipPath><clipPath
       id="clipPath42"
       clipPathUnits="userSpaceOnUse"><path
         id="path44"
         d="M 0,16 16,16 16,0 0,0 0,16 Z" /></clipPath></defs><g
     transform="matrix(1.25,0,0,-1.25,0,20)"
     id="g10"><g
       id="g12"><g
         clip-path="url(#clipPath16)"
         id="g14"><g
           transform="translate(9,5)"
           id="g20"><path
             id="path22"
             style="fill:#f6f6f6;fill-opacity:1;fill-rule:nonzero;stroke:none"
             d="M 0,0 0,-1.563 0,-5 7,-5 6.92,0 C 6.796,1.174 6.349,2.969 3.594,2.969 2.946,2.969 2.426,2.874 1.997,2.719 1.997,2.73 2,2.739 2,2.75 l 0,4.5 C 2,8.215 1.215,9 0.25,9 L 0,9 0,11 -7,11 -7,9 -7.25,9 C -8.215,9 -9,8.215 -9,7.25 l 0,-4.5 C -9,1.785 -8.215,1 -7.25,1 l 7.5,0 C 0.269,1 0.286,1.005 0.305,1.006 0.181,0.652 0.117,0.301 0.077,0 L 0,0 Z" /></g></g></g><g
       id="g24"><g
         clip-path="url(#clipPath28)"
         id="g26"><path
           id="path32"
           style="fill:#652d90;fill-opacity:1;fill-rule:nonzero;stroke:none"
           d="m 9,8 -1,0 0,4 1,0 0,-4 z m -5,6 3,0 0,-1 -3,0 0,1 z M 3,8 2,8 2,12 3,12 3,8 Z M 9.25,13 8,13 8,15 3,15 3,13 1.75,13 C 1.336,13 1,12.664 1,12.25 L 1,7.75 C 1,7.336 1.336,7 1.75,7 l 7.5,0 C 9.664,7 10,7.336 10,7.75 l 0,4.5 C 10,12.664 9.664,13 9.25,13" /></g></g><path
       id="path34"
       style="fill:#f0eff1;fill-opacity:1;fill-rule:nonzero;stroke:none"
       d="M 2,8 3,8 3,12 2,12 2,8 Z" /><path
       id="path36"
       style="fill:#f0eff1;fill-opacity:1;fill-rule:nonzero;stroke:none"
       d="M 8,8 9,8 9,12 8,12 8,8 Z" /><g
       id="g38"><g
         clip-path="url(#clipPath42)"
         id="g40"><g
           transform="translate(11.0186,4.4375)"
           id="g46"><path
             id="path48"
             style="fill:#424242;fill-opacity:1;fill-rule:nonzero;stroke:none"
             d="M 0,0 C 0.06,0.729 0.334,1.541 1.575,1.541 2.824,1.541 2.966,0.746 2.979,0 L 3.945,0 C 3.86,1.119 3.802,2.531 1.575,2.531 -0.82,2.531 -0.87,1.125 -1.001,0 L 0,0 Z" /></g><path
           id="path50"
           style="fill:#424242;fill-opacity:1;fill-rule:nonzero;stroke:none"
           d="m 13,2 -1,0 0,1 1,0 0,-1 z m 1,2 -3,0 -1,0 0,-3 5,0 0,3 -1,0 z" /></g></g><path
       id="path52"
       style="fill:#f0eff1;fill-opacity:1;fill-rule:nonzero;stroke:none"
       d="m 12,2 1,0 0,1 -1,0 0,-1 z" /></g></svg>