<?xml version="1.0" encoding="UTF-8" standalone="no"?>
<svg
   xmlns:dc="http://purl.org/dc/elements/1.1/"
   xmlns:cc="http://creativecommons.org/ns#"
   xmlns:rdf="http://www.w3.org/1999/02/22-rdf-syntax-ns#"
   xmlns:svg="http://www.w3.org/2000/svg"
   xmlns="http://www.w3.org/2000/svg"
   viewBox="0 0 20 20"
   height="20"
   width="20"
   xml:space="preserve"
   version="1.1"
   id="svg2"><metadata
     id="metadata8"><rdf:RDF><cc:Work
         rdf:about=""><dc:format>image/svg+xml</dc:format><dc:type
           rdf:resource="http://purl.org/dc/dcmitype/StillImage" /></cc:Work></rdf:RDF></metadata><defs
     id="defs6"><clipPath
       id="clipPath16"
       clipPathUnits="userSpaceOnUse"><path
         id="path18"
         d="M 0,16 16,16 16,0 0,0 0,16 Z" /></clipPath><clipPath
       id="clipPath32"
       clipPathUnits="userSpaceOnUse"><path
         id="path34"
         d="M 0,16 16,16 16,0 0,0 0,16 Z" /></clipPath></defs><g
     transform="matrix(1.25,0,0,-1.25,0,20)"
     id="g10"><g
       id="g12"><g
         clip-path="url(#clipPath16)"
         id="g14"><g
           transform="translate(1.75,6)"
           id="g20"><path
             id="path22"
             style="fill:#f6f6f6;fill-opacity:1;fill-rule:nonzero;stroke:none"
             d="m 0,0 c -0.965,0 -1.75,0.785 -1.75,1.75 l 0,4.5 C -1.75,7.215 -0.965,8 0,8 l 0.25,0 0,2 7,0 0,-2 0.25,0 C 8.465,8 9.25,7.215 9.25,6.25 l 0,-4.5 C 9.25,0.785 8.465,0 7.5,0 L 0,0 Z" /></g><g
           transform="translate(13.2441,7)"
           id="g24"><path
             id="path26"
             style="fill:#f6f6f6;fill-opacity:1;fill-rule:nonzero;stroke:none"
             d="m 0,0 -1.488,0 -0.6,-2 -2.156,0 0,-1.5 1.392,-1.044 L -3.588,-7 -1.91,-7 -0.744,-6.125 0.422,-7 2.1,-7 1.363,-4.544 2.756,-3.5 2.756,-2 0.6,-2 0,0 Z" /></g></g></g><g
       id="g28"><g
         clip-path="url(#clipPath32)"
         id="g30"><path
           id="path36"
           style="fill:#652d90;fill-opacity:1;fill-rule:nonzero;stroke:none"
           d="m 9,8 -1,0 0,4 1,0 0,-4 z m -5,6 3,0 0,-1 -3,0 0,1 z M 3,8 2,8 2,12 3,12 3,8 Z M 9.25,13 8,13 8,15 3,15 3,13 1.75,13 C 1.336,13 1,12.664 1,12.25 L 1,7.75 C 1,7.336 1.336,7 1.75,7 l 7.5,0 C 9.664,7 10,7.336 10,7.75 l 0,4.5 C 10,12.664 9.664,13 9.25,13" /></g></g><path
       id="path38"
       style="fill:#f0eff1;fill-opacity:1;fill-rule:nonzero;stroke:none"
       d="M 2,8 3,8 3,12 2,12 2,8 Z" /><path
       id="path40"
       style="fill:#f0eff1;fill-opacity:1;fill-rule:nonzero;stroke:none"
       d="M 8,8 9,8 9,12 8,12 8,8 Z" /><g
       transform="translate(13.4492,2.8369)"
       id="g42"><path
         id="path44"
         style="fill:#424242;fill-opacity:1;fill-rule:nonzero;stroke:none"
         d="m 0,0 1.551,1.163 -1.901,0 -0.599,2 -0.6,-2 -1.9,0 1.551,-1.163 -0.551,-1.837 1.5,1.125 1.5,-1.125 L 0,0 Z" /></g></g></svg>