<?xml version="1.0" encoding="UTF-8" standalone="no"?>
<svg
   xmlns:dc="http://purl.org/dc/elements/1.1/"
   xmlns:cc="http://creativecommons.org/ns#"
   xmlns:rdf="http://www.w3.org/1999/02/22-rdf-syntax-ns#"
   xmlns:svg="http://www.w3.org/2000/svg"
   xmlns="http://www.w3.org/2000/svg"
   viewBox="0 0 20 20"
   height="20"
   width="20"
   xml:space="preserve"
   version="1.1"
   id="svg2"><metadata
     id="metadata8"><rdf:RDF><cc:Work
         rdf:about=""><dc:format>image/svg+xml</dc:format><dc:type
           rdf:resource="http://purl.org/dc/dcmitype/StillImage" /></cc:Work></rdf:RDF></metadata><defs
     id="defs6"><clipPath
       id="clipPath16"
       clipPathUnits="userSpaceOnUse"><path
         id="path18"
         d="M 0,16 16,16 16,0 0,0 0,16 Z" /></clipPath><clipPath
       id="clipPath24"
       clipPathUnits="userSpaceOnUse"><path
         id="path26"
         d="M 4.88281e-4,16 16,16 16,0 4.88281e-4,0 l 0,16 z" /></clipPath><clipPath
       id="clipPath48"
       clipPathUnits="userSpaceOnUse"><path
         id="path50"
         d="M 0,16 16,16 16,0 0,0 0,16 Z" /></clipPath></defs><g
     transform="matrix(1.25,0,0,-1.25,0,20)"
     id="g10"><g
       id="g12"><g
         clip-path="url(#clipPath16)"
         id="g14"><g
           id="g20"><g
             id="g22" /><g
             id="g28"><g
               style="opacity:0"
               id="g30"
               clip-path="url(#clipPath24)"><path
                 id="path32"
                 style="fill:#f6f6f6;fill-opacity:1;fill-rule:nonzero;stroke:none"
                 d="M 16,0 0,0 0,16 16,16 16,0 Z" /></g></g></g></g></g><g
       transform="translate(5.5863,16.0002)"
       id="g34"><path
         id="path36"
         style="fill:#f6f6f6;fill-opacity:1;fill-rule:nonzero;stroke:none"
         d="m 0,0 -1.587,-1.586 0,-2.415 -2.414,0 -1.585,-1.585 0,-3.828 1.585,-1.586 4.829,0 1.586,1.586 0,2.414 2.414,0 1.585,1.586 0,3.828 L 4.828,0 0,0 Z" /></g><path
       id="path38"
       style="fill:#c27d1a;fill-opacity:1;fill-rule:nonzero;stroke:none"
       d="M 6,9 2,9 2,10 6,10 6,9 Z M 6,7 2,7 2,8 6,8 6,7 Z M 6,11 2,11 1,10 1,7 2,6 6,6 7,7 7,10 6,11 Z" /><path
       id="path40"
       style="fill:#c27d1a;fill-opacity:1;fill-rule:nonzero;stroke:none"
       d="m 10,13 -4,0 0,1 4,0 0,-1 z m 0,2 -4,0 -1,-1 0,-2 5,0 0,-1 L 7.414,11 8,10.414 8,10 l 2,0 1,1 0,3 -1,1 z" /><path
       id="path42"
       style="fill:#f0eff1;fill-opacity:1;fill-rule:nonzero;stroke:none"
       d="M 6,10 2,10 2,9 6,9 6,10 Z M 6,8 2,8 2,7 6,7 6,8 Z m 4,6 -4,0 0,-1 4,0 0,1 z m 0,-2 0,-1 -2.586,0 -1,1 3.586,0 z" /><g
       id="g44"><g
         clip-path="url(#clipPath48)"
         id="g46"><g
           transform="translate(12,0)"
           id="g52"><path
             id="path54"
             style="fill:#f6f6f6;fill-opacity:1;fill-rule:nonzero;stroke:none"
             d="M 0,0 C -2.206,0 -4,1.794 -4,4 -4,6.206 -2.206,8 0,8 2.206,8 4,6.206 4,4 4,1.794 2.206,0 0,0" /></g><g
           transform="translate(12,1.7832)"
           id="g56"><path
             id="path58"
             style="fill:#424242;fill-opacity:1;fill-rule:nonzero;stroke:none"
             d="M 0,0 C -0.47,0 -0.904,0.148 -1.264,0.398 L 1.818,3.48 C 2.068,3.121 2.217,2.687 2.217,2.217 2.217,0.994 1.223,0 0,0 m -2.217,2.217 c 0,1.222 0.994,2.217 2.217,2.217 0.47,0 0.904,-0.149 1.264,-0.399 L -1.818,0.953 c -0.25,0.359 -0.399,0.794 -0.399,1.264 m 2.217,3 c -1.654,0 -3,-1.346 -3,-3 0,-1.655 1.346,-3 3,-3 1.654,0 3,1.345 3,3 0,1.654 -1.346,3 -3,3" /></g></g></g></g></svg>