<?xml version="1.0" encoding="UTF-8" standalone="no"?>
<svg
   xmlns:dc="http://purl.org/dc/elements/1.1/"
   xmlns:cc="http://creativecommons.org/ns#"
   xmlns:rdf="http://www.w3.org/1999/02/22-rdf-syntax-ns#"
   xmlns:svg="http://www.w3.org/2000/svg"
   xmlns="http://www.w3.org/2000/svg"
   viewBox="0 0 20 20"
   height="20"
   width="20"
   xml:space="preserve"
   version="1.1"
   id="svg2"><metadata
     id="metadata8"><rdf:RDF><cc:Work
         rdf:about=""><dc:format>image/svg+xml</dc:format><dc:type
           rdf:resource="http://purl.org/dc/dcmitype/StillImage" /></cc:Work></rdf:RDF></metadata><defs
     id="defs6"><clipPath
       id="clipPath16"
       clipPathUnits="userSpaceOnUse"><path
         id="path18"
         d="M 0,16 16,16 16,0 0,0 0,16 Z" /></clipPath><clipPath
       id="clipPath24"
       clipPathUnits="userSpaceOnUse"><path
         id="path26"
         d="M 4.88281e-4,16.0005 16,16.0005 16,0 4.88281e-4,0 l 0,16.0005 z" /></clipPath></defs><g
     transform="matrix(1.25,0,0,-1.25,0,20)"
     id="g10"><g
       id="g12"><g
         clip-path="url(#clipPath16)"
         id="g14"><g
           id="g20"><g
             id="g22" /><g
             id="g28"><g
               style="opacity:0"
               id="g30"
               clip-path="url(#clipPath24)"><path
                 id="path32"
                 style="fill:#f6f6f6;fill-opacity:1;fill-rule:nonzero;stroke:none"
                 d="M 16,0 0,0 0,16 16,16 16,0 Z" /></g></g></g></g></g><g
       transform="translate(12.4141,14)"
       id="g34"><path
         id="path36"
         style="fill:#f6f6f6;fill-opacity:1;fill-rule:nonzero;stroke:none"
         d="m 0,0 -4.828,0 -1.586,-1.586 0,-2.414 -4,0 0,-7 8,0 0,4 2.414,0 1.586,1.586 0,3.828 L 0,0 Z" /></g><path
       id="path38"
       style="fill:#424242;fill-opacity:1;fill-rule:nonzero;stroke:none"
       d="m 12,11 -4,0 0,1 4,0 0,-1 z m 0,2 -4,0 -1,-1 0,-2 5,0 0,-1 -2,0 0,-1 2,0 1,1 0,3 -1,1 z" /><path
       id="path40"
       style="fill:#424242;fill-opacity:1;fill-rule:nonzero;stroke:none"
       d="M 4,7 8,7 8,6 4,6 4,7 Z M 3,4 9,4 9,9 3,9 3,4 Z" /><path
       id="path42"
       style="fill:#f0eff1;fill-opacity:1;fill-rule:nonzero;stroke:none"
       d="m 4,6 4.001,0 0,1 L 4,7 4,6 Z" /><path
       id="path44"
       style="fill:#f0eff1;fill-opacity:1;fill-rule:nonzero;stroke:none"
       d="m 8,11 4,0 0,1 -4,0 0,-1 z" /><path
       id="path46"
       style="fill:#f0eff1;fill-opacity:1;fill-rule:nonzero;stroke:none"
       d="m 10,9 2,0 0,1 -2,0 0,-1 z" /></g></svg>