<?xml version="1.0" encoding="UTF-8" standalone="no"?>
<svg
   xmlns:dc="http://purl.org/dc/elements/1.1/"
   xmlns:cc="http://creativecommons.org/ns#"
   xmlns:rdf="http://www.w3.org/1999/02/22-rdf-syntax-ns#"
   xmlns:svg="http://www.w3.org/2000/svg"
   xmlns="http://www.w3.org/2000/svg"
   viewBox="0 0 20 20"
   height="20"
   width="20"
   xml:space="preserve"
   version="1.1"
   id="svg2"><metadata
     id="metadata8"><rdf:RDF><cc:Work
         rdf:about=""><dc:format>image/svg+xml</dc:format><dc:type
           rdf:resource="http://purl.org/dc/dcmitype/StillImage" /></cc:Work></rdf:RDF></metadata><defs
     id="defs6"><clipPath
       id="clipPath20"
       clipPathUnits="userSpaceOnUse"><path
         id="path22"
         d="M 0,16 16,16 16,0 0,0 0,16 Z" /></clipPath><clipPath
       id="clipPath42"
       clipPathUnits="userSpaceOnUse"><path
         id="path44"
         d="M 0,16 16,16 16,0 0,0 0,16 Z" /></clipPath></defs><g
     transform="matrix(1.25,0,0,-1.25,0,20)"
     id="g10"><g
       transform="translate(5.5863,16.0002)"
       id="g12"><path
         id="path14"
         style="fill:#f6f6f6;fill-opacity:1;fill-rule:nonzero;stroke:none"
         d="m 0,0 -1.587,-1.586 0,-2.415 -3.999,0 0,-6.999 8,0 0,4 2.414,0 1.585,1.586 0,3.828 L 4.828,0 0,0 Z" /></g><g
       id="g16"><g
         clip-path="url(#clipPath20)"
         id="g18"><g
           transform="translate(13.5713,7)"
           id="g24"><path
             id="path26"
             style="fill:#f6f6f6;fill-opacity:1;fill-rule:nonzero;stroke:none"
             d="M 0,0 C -0.276,0 -0.677,-0.055 -1.071,-0.305 -1.466,-0.055 -1.866,0 -2.143,0 c -1.316,0 -2.428,-1.137 -2.428,-2.482 0,-0.594 0.196,-1.188 0.56,-1.657 0.293,-0.354 2.246,-2.529 2.246,-2.529 L -1.468,-7 l 0.909,0 0.3,0.352 c 0,0 1.836,2.159 2.148,2.535 0.342,0.442 0.54,1.037 0.54,1.631 C 2.429,-1.137 1.316,0 0,0" /></g></g></g><path
       id="path28"
       style="fill:#00539c;fill-opacity:1;fill-rule:nonzero;stroke:none"
       d="m 10,13 -4,0 0,1 4,0 0,-1 z m 0,2 -4,0 -1,-1 0,-2 5,0 0,-1 -2,0 0,-1 2,0 1,1 0,3 -1,1 z" /><path
       id="path30"
       style="fill:#00539c;fill-opacity:1;fill-rule:nonzero;stroke:none"
       d="M 2,9 6,9 6,8 2,8 2,9 Z M 1,6 7,6 7,11 1,11 1,6 Z" /><path
       id="path32"
       style="fill:#f0eff1;fill-opacity:1;fill-rule:nonzero;stroke:none"
       d="m 2,8 4.001,0 0,1 L 2,9 2,8 Z" /><path
       id="path34"
       style="fill:#f0eff1;fill-opacity:1;fill-rule:nonzero;stroke:none"
       d="m 6,13 4,0 0,1.001 -4,0 L 6,13 Z" /><path
       id="path36"
       style="fill:#f0eff1;fill-opacity:1;fill-rule:nonzero;stroke:none"
       d="m 8,11 2,0 0,1 -2,0 0,-1 z" /><g
       id="g38"><g
         clip-path="url(#clipPath42)"
         id="g40"><g
           transform="translate(13.5713,6)"
           id="g46"><path
             id="path48"
             style="fill:#424242;fill-opacity:1;fill-rule:nonzero;stroke:none"
             d="M 0,0 C -0.527,0 -0.86,-0.747 -1.071,-1.25 -1.282,-0.747 -1.616,0 -2.143,0 -2.87,0 -3.571,-0.664 -3.571,-1.482 c 0,-0.375 0.127,-0.756 0.329,-1.018 0.29,-0.35 2.221,-2.5 2.221,-2.5 0,0 1.83,2.15 2.12,2.5 0.203,0.262 0.33,0.643 0.33,1.018 C 1.429,-0.664 0.729,0 0,0" /></g></g></g></g></svg>