<?xml version="1.0" encoding="UTF-8" standalone="no"?>
<svg
   xmlns:dc="http://purl.org/dc/elements/1.1/"
   xmlns:cc="http://creativecommons.org/ns#"
   xmlns:rdf="http://www.w3.org/1999/02/22-rdf-syntax-ns#"
   xmlns:svg="http://www.w3.org/2000/svg"
   xmlns="http://www.w3.org/2000/svg"
   viewBox="0 0 20 20"
   height="20"
   width="20"
   xml:space="preserve"
   version="1.1"
   id="svg2"><metadata
     id="metadata8"><rdf:RDF><cc:Work
         rdf:about=""><dc:format>image/svg+xml</dc:format><dc:type
           rdf:resource="http://purl.org/dc/dcmitype/StillImage" /></cc:Work></rdf:RDF></metadata><defs
     id="defs6"><clipPath
       id="clipPath20"
       clipPathUnits="userSpaceOnUse"><path
         id="path22"
         d="M 0,16 16,16 16,0 0,0 0,16 Z" /></clipPath><clipPath
       id="clipPath42"
       clipPathUnits="userSpaceOnUse"><path
         id="path44"
         d="M 0,16 16,16 16,0 0,0 0,16 Z" /></clipPath><clipPath
       id="clipPath54"
       clipPathUnits="userSpaceOnUse"><path
         id="path56"
         d="M 0,16 16,16 16,0 0,0 0,16 Z" /></clipPath></defs><g
     transform="matrix(1.25,0,0,-1.25,0,20)"
     id="g10"><g
       transform="translate(5.5863,16.0002)"
       id="g12"><path
         id="path14"
         style="fill:#f6f6f6;fill-opacity:1;fill-rule:nonzero;stroke:none"
         d="m 0,0 -1.587,-1.586 0,-2.415 -3.999,0 0,-6.999 8,0 0,4 2.414,0 1.585,1.586 0,3.828 L 4.828,0 0,0 Z" /></g><g
       id="g16"><g
         clip-path="url(#clipPath20)"
         id="g18"><g
           transform="translate(12,7.9995)"
           id="g24"><path
             id="path26"
             style="fill:#f6f6f6;fill-opacity:1;fill-rule:nonzero;stroke:none"
             d="m 0,0 c -2.206,0 -4,-1.794 -4,-4 0,-2.207 1.794,-4 4,-4 2.206,0 4,1.793 4,4 0,2.206 -1.794,4 -4,4" /></g></g></g><path
       id="path28"
       style="fill:#00539c;fill-opacity:1;fill-rule:nonzero;stroke:none"
       d="m 10,13 -4,0 0,1 4,0 0,-1 z m 0,2 -4,0 -1,-1 0,-2 5,0 0,-1 -2,0 0,-1 2,0 1,1 0,3 -1,1 z" /><path
       id="path30"
       style="fill:#00539c;fill-opacity:1;fill-rule:nonzero;stroke:none"
       d="M 2,9 6,9 6,8 2,8 2,9 Z M 1,6 7,6 7,11 1,11 1,6 Z" /><path
       id="path32"
       style="fill:#f0eff1;fill-opacity:1;fill-rule:nonzero;stroke:none"
       d="m 2,8 4.001,0 0,1 L 2,9 2,8 Z" /><path
       id="path34"
       style="fill:#f0eff1;fill-opacity:1;fill-rule:nonzero;stroke:none"
       d="m 6,13 4,0 0,1.001 -4,0 L 6,13 Z" /><path
       id="path36"
       style="fill:#f0eff1;fill-opacity:1;fill-rule:nonzero;stroke:none"
       d="m 8,11 2,0 0,1 -2,0 0,-1 z" /><g
       id="g38"><g
         clip-path="url(#clipPath42)"
         id="g40"><g
           transform="translate(12,1.7832)"
           id="g46"><path
             id="path48"
             style="fill:#424242;fill-opacity:1;fill-rule:nonzero;stroke:none"
             d="M 0,0 C -0.47,0 -0.904,0.148 -1.264,0.398 L 1.818,3.48 C 2.068,3.121 2.217,2.686 2.217,2.217 2.217,0.994 1.223,0 0,0 m -1.587,0.672 0.042,-0.043 c -0.013,0.016 -0.027,0.029 -0.042,0.043 m -0.63,1.545 c 0,1.222 0.994,2.217 2.217,2.217 0.47,0 0.904,-0.149 1.264,-0.399 L -1.818,0.953 c -0.25,0.36 -0.399,0.793 -0.399,1.264 M 1.587,3.762 1.545,3.803 C 1.558,3.789 1.572,3.773 1.587,3.762 M 0,5.217 c -1.654,0 -3,-1.346 -3,-3 0,-1.654 1.346,-3 3,-3 1.654,0 3,1.346 3,3 0,1.654 -1.346,3 -3,3" /></g></g></g><g
       id="g50"><g
         clip-path="url(#clipPath54)"
         id="g52"><g
           transform="translate(9.7832,4)"
           id="g58"><path
             id="path60"
             style="fill:#f0eff1;fill-opacity:1;fill-rule:nonzero;stroke:none"
             d="m 0,0 c 0,1.223 0.994,2.217 2.217,2.217 0.47,0 0.904,-0.149 1.263,-0.399 L 0.398,-1.264 C 0.148,-0.904 0,-0.471 0,0" /></g><g
           transform="translate(12,1.7832)"
           id="g62"><path
             id="path64"
             style="fill:#f0eff1;fill-opacity:1;fill-rule:nonzero;stroke:none"
             d="M 0,0 C -0.47,0 -0.904,0.148 -1.264,0.398 L 1.818,3.48 C 2.068,3.121 2.217,2.686 2.217,2.217 2.217,0.994 1.223,0 0,0" /></g></g></g></g></svg>