<?xml version="1.0" encoding="UTF-8" standalone="no"?>
<svg
   xmlns:dc="http://purl.org/dc/elements/1.1/"
   xmlns:cc="http://creativecommons.org/ns#"
   xmlns:rdf="http://www.w3.org/1999/02/22-rdf-syntax-ns#"
   xmlns:svg="http://www.w3.org/2000/svg"
   xmlns="http://www.w3.org/2000/svg"
   viewBox="0 0 20 20"
   height="20"
   width="20"
   xml:space="preserve"
   version="1.1"
   id="svg2"><metadata
     id="metadata8"><rdf:RDF><cc:Work
         rdf:about=""><dc:format>image/svg+xml</dc:format><dc:type
           rdf:resource="http://purl.org/dc/dcmitype/StillImage" /></cc:Work></rdf:RDF></metadata><defs
     id="defs6" /><g
     transform="matrix(1.25,0,0,-1.25,0,20)"
     id="g10"><g
       transform="translate(5.5863,16.0002)"
       id="g12"><path
         id="path14"
         style="fill:#f6f6f6;fill-opacity:1;fill-rule:nonzero;stroke:none"
         d="m 0,0 -1.587,-1.586 0,-2.415 -2.414,0 -1.585,-1.585 0,-3.828 1.585,-1.586 4.829,0 1.586,1.586 0,2.414 2.414,0 1.585,1.586 0,3.828 L 4.828,0 0,0 Z" /></g><g
       transform="translate(11.7558,7.0002)"
       id="g16"><path
         id="path18"
         style="fill:#f6f6f6;fill-opacity:1;fill-rule:nonzero;stroke:none"
         d="m 0,0 -0.599,-2 -2.157,0 0,-1.5 1.393,-1.045 L -2.1,-7 -0.423,-7 0.744,-6.125 1.912,-7 3.588,-7 2.851,-4.545 4.244,-3.5 4.244,-2 2.088,-2 1.489,0 0,0 Z" /></g><path
       id="path20"
       style="fill:#c27d1a;fill-opacity:1;fill-rule:nonzero;stroke:none"
       d="M 6,9 2,9 2,10 6,10 6,9 Z M 6,7 2,7 2,8 6,8 6,7 Z M 6,11 2,11 1,10 1,7 2,6 6,6 7,7 7,10 6,11 Z" /><path
       id="path22"
       style="fill:#c27d1a;fill-opacity:1;fill-rule:nonzero;stroke:none"
       d="m 10,13 -4,0 0,1 4,0 0,-1 z m 0,2 -4,0 -1,-1 0,-2 5,0 0,-1 L 7.414,11 8,10.414 8,10 l 2,0 1,1 0,3 -1,1 z" /><path
       id="path24"
       style="fill:#f0eff1;fill-opacity:1;fill-rule:nonzero;stroke:none"
       d="M 6,10 2,10 2,9 6,9 6,10 Z M 6,8 2,8 2,7 6,7 6,8 Z m 4,6 -4,0 0,-1 4,0 0,1 z m 0,-2 0,-1 -2.586,0 -1,1 3.586,0 z" /><g
       transform="translate(13.4492,2.8369)"
       id="g26"><path
         id="path28"
         style="fill:#424242;fill-opacity:1;fill-rule:nonzero;stroke:none"
         d="m 0,0 1.551,1.163 -1.901,0 -0.599,2 -0.6,-2 -1.9,0 1.551,-1.163 -0.551,-1.837 1.5,1.125 1.5,-1.125 L 0,0 Z" /></g></g></svg>