<?xml version="1.0" encoding="UTF-8" standalone="no"?>
<svg
   xmlns:dc="http://purl.org/dc/elements/1.1/"
   xmlns:cc="http://creativecommons.org/ns#"
   xmlns:rdf="http://www.w3.org/1999/02/22-rdf-syntax-ns#"
   xmlns:svg="http://www.w3.org/2000/svg"
   xmlns="http://www.w3.org/2000/svg"
   viewBox="0 0 20 20"
   height="20"
   width="20"
   xml:space="preserve"
   version="1.1"
   id="svg2"><metadata
     id="metadata8"><rdf:RDF><cc:Work
         rdf:about=""><dc:format>image/svg+xml</dc:format><dc:type
           rdf:resource="http://purl.org/dc/dcmitype/StillImage" /></cc:Work></rdf:RDF></metadata><defs
     id="defs6"><clipPath
       id="clipPath16"
       clipPathUnits="userSpaceOnUse"><path
         id="path18"
         d="M 0,16 16,16 16,0 0,0 0,16 Z" /></clipPath><clipPath
       id="clipPath24"
       clipPathUnits="userSpaceOnUse"><path
         id="path26"
         d="M 4.88281e-4,16.0005 16,16.0005 16,0 4.88281e-4,0 l 0,16.0005 z" /></clipPath></defs><g
     transform="matrix(1.25,0,0,-1.25,0,20)"
     id="g10"><g
       id="g12"><g
         clip-path="url(#clipPath16)"
         id="g14"><g
           id="g20"><g
             id="g22" /><g
             id="g28"><g
               style="opacity:0"
               id="g30"
               clip-path="url(#clipPath24)"><path
                 id="path32"
                 style="fill:#f6f6f6;fill-opacity:1;fill-rule:nonzero;stroke:none"
                 d="M 16,0 0,0 0,16 16,16 16,0 Z" /></g></g></g></g></g><g
       transform="translate(5.0004,16.0002)"
       id="g34"><path
         id="path36"
         style="fill:#f6f6f6;fill-opacity:1;fill-rule:nonzero;stroke:none"
         d="m 0,0 0,-4.001 -1.618,0 -3.382,-6.763 0,-1.237 2.393,0 -2.018,-3.999 2.556,0 4,3.999 9.069,0 L 11,0 0,0 Z" /></g><g
       transform="translate(7,14)"
       id="g38"><path
         id="path40"
         style="fill:#f0eff1;fill-opacity:1;fill-rule:nonzero;stroke:none"
         d="M 0,0 0,-2 3.414,-2 0,-5.414 0,-6 3.932,-6 2.932,-7 7,-7 7,0 0,0 Z" /></g><path
       id="path42"
       style="fill:#424242;fill-opacity:1;fill-rule:nonzero;stroke:none"
       d="m 10,5 1,0 0,1 -1,0 0,-1 z" /><path
       id="path44"
       style="fill:#424242;fill-opacity:1;fill-rule:nonzero;stroke:none"
       d="m 14,5 1,0 0,1 -1,0 0,-1 z" /><path
       id="path46"
       style="fill:#424242;fill-opacity:1;fill-rule:nonzero;stroke:none"
       d="m 12,5 1,0 0,1 -1,0 0,-1 z" /><g
       transform="translate(6.4143,8.0001)"
       id="g48"><path
         id="path50"
         style="fill:#424242;fill-opacity:1;fill-rule:nonzero;stroke:none"
         d="m 0,0 0.586,0 0,0.586 L 0,0 Z" /></g><g
       transform="translate(6,15)"
       id="g52"><path
         id="path54"
         style="fill:#424242;fill-opacity:1;fill-rule:nonzero;stroke:none"
         d="m 0,0 0,-3 1,0 0,2 7,0 0,-7 1,0 0,8 -9,0 z" /></g><g
       transform="translate(8.9316,6.0003)"
       id="g56"><path
         id="path58"
         style="fill:#424242;fill-opacity:1;fill-rule:nonzero;stroke:none"
         d="m 0,0 -0.931,-0.932 0,-0.068 0.999,0 0,1 L 0,0 Z" /></g><g
       transform="translate(4,7)"
       id="g60"><path
         id="path62"
         style="fill:#c27d1a;fill-opacity:1;fill-rule:nonzero;stroke:none"
         d="M 0,0 4,4 0,4 -3,-2 0.018,-2 -2,-6 l 0.518,0 6,6 L 0,0 Z" /></g></g></svg>