<?xml version="1.0" encoding="UTF-8" standalone="no"?>
<svg
   xmlns:dc="http://purl.org/dc/elements/1.1/"
   xmlns:cc="http://creativecommons.org/ns#"
   xmlns:rdf="http://www.w3.org/1999/02/22-rdf-syntax-ns#"
   xmlns:svg="http://www.w3.org/2000/svg"
   xmlns="http://www.w3.org/2000/svg"
   viewBox="0 0 20 20"
   height="20"
   width="20"
   xml:space="preserve"
   version="1.1"
   id="svg2"><metadata
     id="metadata8"><rdf:RDF><cc:Work
         rdf:about=""><dc:format>image/svg+xml</dc:format><dc:type
           rdf:resource="http://purl.org/dc/dcmitype/StillImage" /></cc:Work></rdf:RDF></metadata><defs
     id="defs6"><clipPath
       id="clipPath16"
       clipPathUnits="userSpaceOnUse"><path
         id="path18"
         d="M 0,16 16,16 16,0 0,0 0,16 Z" /></clipPath><clipPath
       id="clipPath24"
       clipPathUnits="userSpaceOnUse"><path
         id="path26"
         d="M 4.88281e-4,16.0005 16,16.0005 16,0 4.88281e-4,0 l 0,16.0005 z" /></clipPath><clipPath
       id="clipPath42"
       clipPathUnits="userSpaceOnUse"><path
         id="path44"
         d="M 0,16 16,16 16,0 0,0 0,16 Z" /></clipPath><clipPath
       id="clipPath58"
       clipPathUnits="userSpaceOnUse"><path
         id="path60"
         d="M 0,16 16,16 16,0 0,0 0,16 Z" /></clipPath></defs><g
     transform="matrix(1.25,0,0,-1.25,0,20)"
     id="g10"><g
       id="g12"><g
         clip-path="url(#clipPath16)"
         id="g14"><g
           id="g20"><g
             id="g22" /><g
             id="g28"><g
               style="opacity:0"
               id="g30"
               clip-path="url(#clipPath24)"><path
                 id="path32"
                 style="fill:#f6f6f6;fill-opacity:1;fill-rule:nonzero;stroke:none"
                 d="M 16,0 0,0 0,16 16,16 16,0 Z" /></g></g></g><g
           transform="translate(13.7754,8.3618)"
           id="g34"><path
             id="path36"
             style="fill:#f6f6f6;fill-opacity:1;fill-rule:nonzero;stroke:none"
             d="m 0,0 0.225,0.224 0,1.414 -4.586,0 4.586,4.586 0,1.414 -7.619,0 -4.381,-8.763 0,-1.237 3.371,0 -2.371,-4.765 0,-1.235 2.414,0 2.224,2.225 c 0.783,-1.326 2.21,-2.225 3.862,-2.225 2.485,0 4.5,2.015 4.5,4.5 C 2.225,-2.21 1.326,-0.783 0,0" /></g></g></g><g
       id="g38"><g
         clip-path="url(#clipPath42)"
         id="g40"><g
           transform="translate(7,4.5)"
           id="g46"><path
             id="path48"
             style="fill:#424242;fill-opacity:1;fill-rule:nonzero;stroke:none"
             d="m 0,0 c 0,2.485 2.015,4.5 4.5,4.5 l -4.5,0 6,6 -6,0 -4,-8 3.985,0 -2.985,-6 1,0 2.21,2.21 C 0.086,-0.879 0,-0.451 0,0" /></g><g
           transform="translate(13,9)"
           id="g50"><path
             id="path52"
             style="fill:#424242;fill-opacity:1;fill-rule:nonzero;stroke:none"
             d="m 0,0 -1.5,0 c 0.451,0 0.879,-0.086 1.29,-0.21 L 0,0 Z" /></g></g></g><g
       id="g54"><g
         clip-path="url(#clipPath58)"
         id="g56"><g
           transform="translate(13.3535,3.3535)"
           id="g62"><path
             id="path64"
             style="fill:#e51400;fill-opacity:1;fill-rule:nonzero;stroke:none"
             d="M 0,0 -0.707,-0.707 -1.854,0.439 -3,-0.707 -3.707,0 -2.561,1.146 -3.707,2.293 -3,3 -1.854,1.854 -0.707,3 0,2.293 -1.146,1.146 0,0 Z m -1.854,4.646 c -1.932,0 -3.5,-1.567 -3.5,-3.5 0,-1.932 1.568,-3.5 3.5,-3.5 1.933,0 3.5,1.568 3.5,3.5 0,1.933 -1.567,3.5 -3.5,3.5" /></g></g></g><g
       transform="translate(13.3535,5.6465)"
       id="g66"><path
         id="path68"
         style="fill:#ffffff;fill-opacity:1;fill-rule:nonzero;stroke:none"
         d="M 0,0 -0.707,0.707 -1.854,-0.439 -3,0.707 -3.707,0 -2.561,-1.146 -3.707,-2.293 -3,-3 -1.854,-1.854 -0.707,-3 0,-2.293 -1.146,-1.146 0,0 Z" /></g></g></svg>