<?xml version="1.0" encoding="UTF-8" standalone="no"?>
<svg
   xmlns:dc="http://purl.org/dc/elements/1.1/"
   xmlns:cc="http://creativecommons.org/ns#"
   xmlns:rdf="http://www.w3.org/1999/02/22-rdf-syntax-ns#"
   xmlns:svg="http://www.w3.org/2000/svg"
   xmlns="http://www.w3.org/2000/svg"
   viewBox="0 0 20 20"
   height="20"
   width="20"
   xml:space="preserve"
   version="1.1"
   id="svg2"><metadata
     id="metadata8"><rdf:RDF><cc:Work
         rdf:about=""><dc:format>image/svg+xml</dc:format><dc:type
           rdf:resource="http://purl.org/dc/dcmitype/StillImage" /></cc:Work></rdf:RDF></metadata><defs
     id="defs6"><clipPath
       id="clipPath16"
       clipPathUnits="userSpaceOnUse"><path
         id="path18"
         d="M 0,16 16,16 16,0 0,0 0,16 Z" /></clipPath><clipPath
       id="clipPath24"
       clipPathUnits="userSpaceOnUse"><path
         id="path26"
         d="M 0,16 16,16 16,0 0,0 0,16 Z" /></clipPath></defs><g
     transform="matrix(1.25,0,0,-1.25,0,20)"
     id="g10"><g
       id="g12"><g
         clip-path="url(#clipPath16)"
         id="g14"><g
           id="g20"><g
             id="g22" /><g
             id="g28"><g
               style="opacity:0"
               id="g30"
               clip-path="url(#clipPath24)"><path
                 id="path32"
                 style="fill:#f6f6f6;fill-opacity:1;fill-rule:nonzero;stroke:none"
                 d="M 16,0 0,0 0,16 16,16 16,0 Z" /></g></g></g></g></g><g
       transform="translate(9.9141,10)"
       id="g34"><path
         id="path36"
         style="fill:#f6f6f6;fill-opacity:1;fill-rule:nonzero;stroke:none"
         d="m 0,0 2.586,2.586 0,1.414 -5.618,0 -3.382,-6.764 0,-1.236 2.382,0 -2,-4 2.532,0 6.586,6.586 L 3.086,0 0,0 Z" /></g><g
       transform="translate(11.5,13)"
       id="g38"><path
         id="path40"
         style="fill:#4eb3bf;fill-opacity:1;fill-rule:nonzero;stroke:none"
         d="m 0,0 -4,0 -3,-6 3,0 -2,-4 0.5,0 6,6 -4.5,0 4,4 z" /></g></g></svg>