<?xml version="1.0" encoding="UTF-8" standalone="no"?>
<svg
   xmlns:dc="http://purl.org/dc/elements/1.1/"
   xmlns:cc="http://creativecommons.org/ns#"
   xmlns:rdf="http://www.w3.org/1999/02/22-rdf-syntax-ns#"
   xmlns:svg="http://www.w3.org/2000/svg"
   xmlns="http://www.w3.org/2000/svg"
   viewBox="0 0 20 20"
   height="20"
   width="20"
   xml:space="preserve"
   version="1.1"
   id="svg2"><metadata
     id="metadata8"><rdf:RDF><cc:Work
         rdf:about=""><dc:format>image/svg+xml</dc:format><dc:type
           rdf:resource="http://purl.org/dc/dcmitype/StillImage" /></cc:Work></rdf:RDF></metadata><defs
     id="defs6"><clipPath
       id="clipPath16"
       clipPathUnits="userSpaceOnUse"><path
         id="path18"
         d="M 0,16 16,16 16,0 0,0 0,16 Z" /></clipPath><clipPath
       id="clipPath24"
       clipPathUnits="userSpaceOnUse"><path
         id="path26"
         d="M 4.88281e-4,16.0005 16,16.0005 16,0 4.88281e-4,0 l 0,16.0005 z" /></clipPath></defs><g
     transform="matrix(1.25,0,0,-1.25,0,20)"
     id="g10"><g
       id="g12"><g
         clip-path="url(#clipPath16)"
         id="g14"><g
           id="g20"><g
             id="g22" /><g
             id="g28"><g
               style="opacity:0"
               id="g30"
               clip-path="url(#clipPath24)"><path
                 id="path32"
                 style="fill:#f6f6f6;fill-opacity:1;fill-rule:nonzero;stroke:none"
                 d="M 16,0 0,0 0,16 16,16 16,0 Z" /></g></g></g></g></g><g
       transform="translate(0,16.0002)"
       id="g34"><path
         id="path36"
         style="fill:#f6f6f6;fill-opacity:1;fill-rule:nonzero;stroke:none"
         d="m 0,0 0,-11 9,0 0,-1.5 1.392,-1.045 -0.736,-2.455 1.677,0 1.167,0.875 1.167,-0.875 1.677,0 -0.737,2.455 1.393,1.045 0,1.5 -2.156,0 -0.6,2 -1.488,0 -0.6,-2 L 11,-11 11,0 0,0 Z" /></g><path
       id="path38"
       style="fill:#424242;fill-opacity:1;fill-rule:nonzero;stroke:none"
       d="M 9,7 2,7 2,14 9,14 9,7 Z M 1,6 10,6 10,15 1,15 1,6 Z" /><path
       id="path40"
       style="fill:#424242;fill-opacity:1;fill-rule:nonzero;stroke:none"
       d="m 5,10 1,0 0,3 -1,0 0,-3 z" /><path
       id="path42"
       style="fill:#424242;fill-opacity:1;fill-rule:nonzero;stroke:none"
       d="M 5,8 6,8 6,9 5,9 5,8 Z" /><path
       id="path44"
       style="fill:#f0eff1;fill-opacity:1;fill-rule:nonzero;stroke:none"
       d="m 6,10 -1,0 0,3 1,0 0,-3 z M 6,8 5,8 5,9 6,9 6,8 Z M 2,7 9,7 9,14 2,14 2,7 Z" /><g
       transform="translate(13.4492,2.8369)"
       id="g46"><path
         id="path48"
         style="fill:#424242;fill-opacity:1;fill-rule:nonzero;stroke:none"
         d="m 0,0 1.551,1.163 -1.901,0 -0.599,2 -0.6,-2 -1.9,0 1.551,-1.163 -0.551,-1.837 1.5,1.125 1.5,-1.125 L 0,0 Z" /></g></g></svg>