<?xml version="1.0" encoding="UTF-8" standalone="no"?>
<svg
   xmlns:dc="http://purl.org/dc/elements/1.1/"
   xmlns:cc="http://creativecommons.org/ns#"
   xmlns:rdf="http://www.w3.org/1999/02/22-rdf-syntax-ns#"
   xmlns:svg="http://www.w3.org/2000/svg"
   xmlns="http://www.w3.org/2000/svg"
   viewBox="0 0 20 20"
   height="20"
   width="20"
   xml:space="preserve"
   version="1.1"
   id="svg2"><metadata
     id="metadata8"><rdf:RDF><cc:Work
         rdf:about=""><dc:format>image/svg+xml</dc:format><dc:type
           rdf:resource="http://purl.org/dc/dcmitype/StillImage" /></cc:Work></rdf:RDF></metadata><defs
     id="defs6" /><g
     transform="matrix(1.25,0,0,-1.25,0,20)"
     id="g10"><g
       transform="translate(0,16.0002)"
       id="g12"><path
         id="path14"
         style="fill:#f6f6f6;fill-opacity:1;fill-rule:nonzero;stroke:none"
         d="m 0,0 0,-11 9,0 0,-5 7,0 0,7 -5,0 0,9 -11,0 z" /></g><path
       id="path16"
       style="fill:#424242;fill-opacity:1;fill-rule:nonzero;stroke:none"
       d="m 5,10 1,0 0,3 -1,0 0,-3 z" /><path
       id="path18"
       style="fill:#424242;fill-opacity:1;fill-rule:nonzero;stroke:none"
       d="M 5,8 6,8 6,9 5,9 5,8 Z" /><path
       id="path20"
       style="fill:#424242;fill-opacity:1;fill-rule:nonzero;stroke:none"
       d="m 9,7 -7,0 0,7 7,0 0,-7 z m 0,0 1,0 0,8 -9,0 0,-9 8,0 0,1 z" /><path
       id="path22"
       style="fill:#f0eff1;fill-opacity:1;fill-rule:nonzero;stroke:none"
       d="m 6,10 -1,0 0,3 1,0 0,-3 z M 6,8 5,8 5,9 6,9 6,8 Z M 2,7 9,7 9,14 2,14 2,7 Z" /><g
       transform="translate(14,3)"
       id="g24"><path
         id="path26"
         style="fill:#424242;fill-opacity:1;fill-rule:nonzero;stroke:none"
         d="M 0,0 -1,-1 -1,0.5 -2.5,-1 -3,-0.5 -1.5,1 -3,1 -2,2 0,2 0,0 Z m -4,-2 5,0 0,5 -5,0 0,-5 z" /></g><g
       transform="translate(14,5)"
       id="g28"><path
         id="path30"
         style="fill:#f0eff1;fill-opacity:1;fill-rule:nonzero;stroke:none"
         d="M 0,0 0,-2 -1,-3 -1,-1.5 -2.5,-3 -3,-2.5 -1.5,-1 -3,-1 -2,0 0,0 Z" /></g></g></svg>