<?xml version="1.0" encoding="UTF-8" standalone="no"?>
<svg
   xmlns:dc="http://purl.org/dc/elements/1.1/"
   xmlns:cc="http://creativecommons.org/ns#"
   xmlns:rdf="http://www.w3.org/1999/02/22-rdf-syntax-ns#"
   xmlns:svg="http://www.w3.org/2000/svg"
   xmlns="http://www.w3.org/2000/svg"
   viewBox="0 0 20 20"
   height="20"
   width="20"
   xml:space="preserve"
   version="1.1"
   id="svg2"><metadata
     id="metadata8"><rdf:RDF><cc:Work
         rdf:about=""><dc:format>image/svg+xml</dc:format><dc:type
           rdf:resource="http://purl.org/dc/dcmitype/StillImage" /></cc:Work></rdf:RDF></metadata><defs
     id="defs6"><clipPath
       id="clipPath16"
       clipPathUnits="userSpaceOnUse"><path
         id="path18"
         d="M 0,16 16,16 16,0 0,0 0,16 Z" /></clipPath><clipPath
       id="clipPath24"
       clipPathUnits="userSpaceOnUse"><path
         id="path26"
         d="M 0,16 16,16 16,0 0,0 0,16 Z" /></clipPath></defs><g
     transform="matrix(1.25,0,0,-1.25,0,20)"
     id="g10"><g
       id="g12"><g
         clip-path="url(#clipPath16)"
         id="g14"><g
           id="g20"><g
             id="g22" /><g
             id="g28"><g
               style="opacity:0"
               id="g30"
               clip-path="url(#clipPath24)"><path
                 id="path32"
                 style="fill:#f6f6f6;fill-opacity:1;fill-rule:nonzero;stroke:none"
                 d="M 16,0 0,0 0,16 16,16 16,0 Z" /></g></g></g></g></g><g
       transform="translate(9.9999,10.9998)"
       id="g34"><path
         id="path36"
         style="fill:#f6f6f6;fill-opacity:1;fill-rule:nonzero;stroke:none"
         d="M 0,0 0,-4.585 -2,-2.586 -2,-7.414 1.586,-11 2.414,-11 6,-7.414 6,-2.586 4.001,-4.585 4.001,0 0,0 Z" /></g><g
       transform="translate(0.167,7.5742)"
       id="g38"><path
         id="path40"
         style="fill:#f6f6f6;fill-opacity:1;fill-rule:nonzero;stroke:none"
         d="m 0,0 0,5.569 4.884,2.47 4.704,-2.481 0,-5.513 L 5.124,-3.228 0,0 Z" /></g><g
       transform="translate(8.1904,8.4014)"
       id="g42"><path
         id="path44"
         style="fill:#652d90;fill-opacity:1;fill-rule:nonzero;stroke:none"
         d="m 0,0 -2.576,-1.856 0,3.462 L 0,3.173 0,0 Z m -3.22,-1.963 0,-0.016 -0.009,0.008 -0.008,-0.008 0,0.016 -3.167,2.065 0,3.319 3.209,-1.793 0,-3.573 -0.025,-0.018 z m 0.025,7.374 3.07,-1.514 -2.864,-1.718 -3.095,1.765 2.889,1.467 z m 3.759,-5.686 0,4.403 -3.713,1.959 -3.874,-1.959 0,-4.403 4.081,-2.571 3.506,2.571 z" /></g><g
       transform="translate(4.9951,13.8125)"
       id="g46"><path
         id="path48"
         style="fill:#f0eff1;fill-opacity:1;fill-rule:nonzero;stroke:none"
         d="M 0,0 3.07,-1.514 0.206,-3.232 -2.889,-1.467 0,0 Z" /></g><g
       transform="translate(4.9951,13.8125)"
       id="g50"><path
         id="path52"
         style="fill:none;stroke:#652d90;stroke-width:0.15000001;stroke-linecap:butt;stroke-linejoin:miter;stroke-miterlimit:10;stroke-dasharray:none;stroke-opacity:1"
         d="M 0,0 3.07,-1.514 0.206,-3.232 -2.889,-1.467 0,0 Z" /></g><g
       transform="translate(4.9707,6.4385)"
       id="g54"><path
         id="path56"
         style="fill:#f0eff1;fill-opacity:1;fill-rule:nonzero;stroke:none"
         d="m 0,0 0,-0.016 -0.01,0.008 -0.008,-0.008 0,0.016 -3.167,2.064 0,3.32 3.209,-1.793 0,-3.573 L 0,0 Z" /></g><g
       transform="translate(4.9707,6.4385)"
       id="g58"><path
         id="path60"
         style="fill:none;stroke:#652d90;stroke-width:0.15000001;stroke-linecap:butt;stroke-linejoin:miter;stroke-miterlimit:10;stroke-dasharray:none;stroke-opacity:1"
         d="m 0,0 0,-0.016 -0.01,0.008 -0.008,-0.008 0,0.016 -3.167,2.064 0,3.32 3.209,-1.793 0,-3.573 L 0,0 Z" /></g><g
       transform="translate(8.1904,8.4014)"
       id="g62"><path
         id="path64"
         style="fill:#f0eff1;fill-opacity:1;fill-rule:nonzero;stroke:none"
         d="m 0,0 -2.576,-1.856 0,3.462 L 0,3.173 0,0 Z" /></g><g
       transform="translate(8.1904,8.4014)"
       id="g66"><path
         id="path68"
         style="fill:none;stroke:#652d90;stroke-width:0.15000001;stroke-linecap:butt;stroke-linejoin:miter;stroke-miterlimit:10;stroke-dasharray:none;stroke-opacity:1"
         d="m 0,0 -2.576,-1.856 0,3.462 L 0,3.173 0,0 Z" /></g><g
       transform="translate(12,1)"
       id="g70"><path
         id="path72"
         style="fill:#424242;fill-opacity:1;fill-rule:nonzero;stroke:none"
         d="M 0,0 -3,3 -3,5 -1,3 -1,5 1,5 1,3 3,5 3,3 0,0 Z" /></g><path
       id="path74"
       style="fill:#424242;fill-opacity:1;fill-rule:nonzero;stroke:none"
       d="m 11,7 2,0 0,1 -2,0 0,-1 z" /><path
       id="path76"
       style="fill:#424242;fill-opacity:1;fill-rule:nonzero;stroke:none"
       d="m 11,9 2,0 0,1 -2,0 0,-1 z" /></g></svg>