<?xml version="1.0" encoding="UTF-8" standalone="no"?>
<svg
   xmlns:dc="http://purl.org/dc/elements/1.1/"
   xmlns:cc="http://creativecommons.org/ns#"
   xmlns:rdf="http://www.w3.org/1999/02/22-rdf-syntax-ns#"
   xmlns:svg="http://www.w3.org/2000/svg"
   xmlns="http://www.w3.org/2000/svg"
   viewBox="0 0 20 20"
   height="20"
   width="20"
   xml:space="preserve"
   version="1.1"
   id="svg2"><metadata
     id="metadata8"><rdf:RDF><cc:Work
         rdf:about=""><dc:format>image/svg+xml</dc:format><dc:type
           rdf:resource="http://purl.org/dc/dcmitype/StillImage" /></cc:Work></rdf:RDF></metadata><defs
     id="defs6"><clipPath
       id="clipPath16"
       clipPathUnits="userSpaceOnUse"><path
         id="path18"
         d="M 0,16 16,16 16,0 0,0 0,16 Z" /></clipPath><clipPath
       id="clipPath24"
       clipPathUnits="userSpaceOnUse"><path
         id="path26"
         d="M 0,16 16,16 16,0 0,0 0,16 Z" /></clipPath></defs><g
     transform="matrix(1.25,0,0,-1.25,0,20)"
     id="g10"><g
       id="g12"><g
         clip-path="url(#clipPath16)"
         id="g14"><g
           id="g20"><g
             id="g22" /><g
             id="g28"><g
               style="opacity:0"
               id="g30"
               clip-path="url(#clipPath24)"><path
                 id="path32"
                 style="fill:#f6f6f6;fill-opacity:1;fill-rule:nonzero;stroke:none"
                 d="M 16,0 0,0 0,16 16,16 16,0 Z" /></g></g></g></g></g><g
       transform="translate(10.5714,7.0002)"
       id="g34"><path
         id="path36"
         style="fill:#f6f6f6;fill-opacity:1;fill-rule:nonzero;stroke:none"
         d="m 0,0 -1.571,-1.571 0,-2.843 0.999,-1 0,-1.586 1.662,0 1.117,1 1.623,0 1.599,1.598 0,2.804 L 3.829,0 0,0 Z" /></g><g
       transform="translate(6.7392,16.0002)"
       id="g38"><path
         id="path40"
         style="fill:#f6f6f6;fill-opacity:1;fill-rule:nonzero;stroke:none"
         d="m 0,0 -6.739,-3.37 0,-5.236 4.789,-2.394 0.42,0 6.79,3.394 0,5.236 L 0.524,0 0,0 Z" /></g><g
       transform="translate(10.9854,6.0003)"
       id="g42"><path
         id="path44"
         style="fill:#424242;fill-opacity:1;fill-rule:nonzero;stroke:none"
         d="m 0,0 -0.986,-0.986 0,-2.014 1,-1.001 0,-1.25 1.397,1.25 1.591,0 1.013,1.013 0,1.975 L 3.001,0 0,0 Z m 0.015,-1 3.001,0 0,-2.001 -3.001,0 0,2.001 z" /></g><g
       transform="translate(5,11)"
       id="g46"><path
         id="path48"
         style="fill:#00539c;fill-opacity:1;fill-rule:nonzero;stroke:none"
         d="M 0,0 -2,1 2,3 4,2 0,0 Z m -4,1 0,-4 4,-2 6,3 0,4 -4,2 -6,-3 z" /></g><path
       id="path50"
       style="fill:#f0eff1;fill-opacity:1;fill-rule:nonzero;stroke:none"
       d="m 14,3 -3,0 0,2 3,0 0,-2 z" /><g
       transform="translate(3,12)"
       id="g52"><path
         id="path54"
         style="fill:#f0eff1;fill-opacity:1;fill-rule:nonzero;stroke:none"
         d="M 0,0 2,-1 6,1 4,2 0,0 Z" /></g></g></svg>