<?xml version="1.0" encoding="UTF-8" standalone="no"?>
<svg
   xmlns:dc="http://purl.org/dc/elements/1.1/"
   xmlns:cc="http://creativecommons.org/ns#"
   xmlns:rdf="http://www.w3.org/1999/02/22-rdf-syntax-ns#"
   xmlns:svg="http://www.w3.org/2000/svg"
   xmlns="http://www.w3.org/2000/svg"
   viewBox="0 0 20 20"
   height="20"
   width="20"
   xml:space="preserve"
   version="1.1"
   id="svg2"><metadata
     id="metadata8"><rdf:RDF><cc:Work
         rdf:about=""><dc:format>image/svg+xml</dc:format><dc:type
           rdf:resource="http://purl.org/dc/dcmitype/StillImage" /></cc:Work></rdf:RDF></metadata><defs
     id="defs6"><clipPath
       id="clipPath16"
       clipPathUnits="userSpaceOnUse"><path
         id="path18"
         d="M 0,16 16,16 16,0 0,0 0,16 Z" /></clipPath><clipPath
       id="clipPath24"
       clipPathUnits="userSpaceOnUse"><path
         id="path26"
         d="M 0,16 16,16 16,0 0,0 0,16 Z" /></clipPath><clipPath
       id="clipPath38"
       clipPathUnits="userSpaceOnUse"><path
         id="path40"
         d="M 0,16 16,16 16,0 0,0 0,16 Z" /></clipPath></defs><g
     transform="matrix(1.25,0,0,-1.25,0,20)"
     id="g10"><g
       id="g12"><g
         clip-path="url(#clipPath16)"
         id="g14"><g
           id="g20"><g
             id="g22" /><g
             id="g28"><g
               style="opacity:0"
               id="g30"
               clip-path="url(#clipPath24)"><path
                 id="path32"
                 style="fill:#f6f6f6;fill-opacity:1;fill-rule:nonzero;stroke:none"
                 d="M 16,0 0,0 0,16 16,16 16,0 Z" /></g></g></g><g
           id="g34"><g
             id="g36" /><g
             id="g42"><g
               style="opacity:0.00999451"
               id="g44"
               clip-path="url(#clipPath38)"><path
                 id="path46"
                 style="fill:#f6f6f6;fill-opacity:1;fill-rule:nonzero;stroke:none"
                 d="M 16,0 0,0 0,16 16,16 16,0 Z" /></g></g></g></g></g><g
       transform="translate(6.7392,16.0002)"
       id="g48"><path
         id="path50"
         style="fill:#f6f6f6;fill-opacity:1;fill-rule:nonzero;stroke:none"
         d="m 0,0 -6.739,-3.37 0,-5.236 4.789,-2.394 0.42,0 4.809,2.403 0,-1.421 -2.018,0 0,-3.982 2.018,0 0,-2 3.982,0 0,2 2,0 0,3.982 -2,0 0,2.018 -2.789,0 0.788,0.394 0,5.236 L 0.524,0 0,0 Z" /></g><g
       transform="translate(5,11)"
       id="g52"><path
         id="path54"
         style="fill:#00539c;fill-opacity:1;fill-rule:nonzero;stroke:none"
         d="M 0,0 -2,1 2,3 4,2 0,0 Z m -4,1 0,-4 4,-2 6,3 0,4 -4,2 -6,-3 z" /></g><g
       transform="translate(15,5)"
       id="g56"><path
         id="path58"
         style="fill:#388a34;fill-opacity:1;fill-rule:nonzero;stroke:none"
         d="m 0,0 -2,0 0,2 -2,0 0,-2 -2,0 0,-2 2,0 0,-2 2,0 0,2 2,0 0,2 z" /></g><g
       transform="translate(3,12)"
       id="g60"><path
         id="path62"
         style="fill:#f0eff1;fill-opacity:1;fill-rule:nonzero;stroke:none"
         d="M 0,0 2,-1 6,1 4,2 0,0 Z" /></g></g></svg>