<?xml version="1.0" encoding="UTF-8" standalone="no"?>
<svg
   xmlns:dc="http://purl.org/dc/elements/1.1/"
   xmlns:cc="http://creativecommons.org/ns#"
   xmlns:rdf="http://www.w3.org/1999/02/22-rdf-syntax-ns#"
   xmlns:svg="http://www.w3.org/2000/svg"
   xmlns="http://www.w3.org/2000/svg"
   viewBox="0 0 20 20"
   height="20"
   width="20"
   xml:space="preserve"
   version="1.1"
   id="svg2"><metadata
     id="metadata8"><rdf:RDF><cc:Work
         rdf:about=""><dc:format>image/svg+xml</dc:format><dc:type
           rdf:resource="http://purl.org/dc/dcmitype/StillImage" /></cc:Work></rdf:RDF></metadata><defs
     id="defs6"><clipPath
       id="clipPath20"
       clipPathUnits="userSpaceOnUse"><path
         id="path22"
         d="M 0,16 16,16 16,0 0,0 0,16 Z" /></clipPath><clipPath
       id="clipPath40"
       clipPathUnits="userSpaceOnUse"><path
         id="path42"
         d="M 0,16 16,16 16,0 0,0 0,16 Z" /></clipPath></defs><g
     transform="matrix(1.25,0,0,-1.25,0,20)"
     id="g10"><g
       transform="translate(6.7392,16.0002)"
       id="g12"><path
         id="path14"
         style="fill:#f6f6f6;fill-opacity:1;fill-rule:nonzero;stroke:none"
         d="m 0,0 -6.739,-3.37 0,-5.236 4.789,-2.394 0.42,0 6.79,3.394 0,5.236 L 0.524,0 0,0 Z" /></g><g
       id="g16"><g
         clip-path="url(#clipPath20)"
         id="g18"><g
           transform="translate(13.5713,7)"
           id="g24"><path
             id="path26"
             style="fill:#f6f6f6;fill-opacity:1;fill-rule:nonzero;stroke:none"
             d="M 0,0 C -0.276,0 -0.677,-0.055 -1.071,-0.305 -1.466,-0.055 -1.866,0 -2.143,0 c -1.316,0 -2.428,-1.137 -2.428,-2.482 0,-0.594 0.196,-1.188 0.56,-1.657 0.293,-0.354 2.246,-2.529 2.246,-2.529 L -1.468,-7 l 0.909,0 0.3,0.352 c 0,0 1.836,2.159 2.148,2.535 0.342,0.442 0.54,1.037 0.54,1.631 C 2.429,-1.137 1.316,0 0,0" /></g></g></g><g
       transform="translate(5,11)"
       id="g28"><path
         id="path30"
         style="fill:#00539c;fill-opacity:1;fill-rule:nonzero;stroke:none"
         d="M 0,0 -2,1 2,3 4,2 0,0 Z m -4,1 0,-4 4,-2 6,3 0,4 -4,2 -6,-3 z" /></g><g
       transform="translate(3,12)"
       id="g32"><path
         id="path34"
         style="fill:#f0eff1;fill-opacity:1;fill-rule:nonzero;stroke:none"
         d="M 0,0 2,-1 6,1 4,2 0,0 Z" /></g><g
       id="g36"><g
         clip-path="url(#clipPath40)"
         id="g38"><g
           transform="translate(13.5713,6)"
           id="g44"><path
             id="path46"
             style="fill:#424242;fill-opacity:1;fill-rule:nonzero;stroke:none"
             d="M 0,0 C -0.527,0 -0.86,-0.747 -1.071,-1.25 -1.282,-0.747 -1.616,0 -2.143,0 -2.87,0 -3.571,-0.664 -3.571,-1.482 c 0,-0.375 0.127,-0.756 0.329,-1.018 0.29,-0.35 2.221,-2.5 2.221,-2.5 0,0 1.83,2.15 2.12,2.5 0.203,0.262 0.33,0.643 0.33,1.018 C 1.429,-0.664 0.729,0 0,0" /></g></g></g></g></svg>