<?xml version="1.0" encoding="UTF-8" standalone="no"?>
<svg
   xmlns:dc="http://purl.org/dc/elements/1.1/"
   xmlns:cc="http://creativecommons.org/ns#"
   xmlns:rdf="http://www.w3.org/1999/02/22-rdf-syntax-ns#"
   xmlns:svg="http://www.w3.org/2000/svg"
   xmlns="http://www.w3.org/2000/svg"
   viewBox="0 0 20 20"
   height="20"
   width="20"
   xml:space="preserve"
   version="1.1"
   id="svg2"><metadata
     id="metadata8"><rdf:RDF><cc:Work
         rdf:about=""><dc:format>image/svg+xml</dc:format><dc:type
           rdf:resource="http://purl.org/dc/dcmitype/StillImage" /></cc:Work></rdf:RDF></metadata><defs
     id="defs6"><clipPath
       id="clipPath16"
       clipPathUnits="userSpaceOnUse"><path
         id="path18"
         d="M 0,16 16,16 16,0 0,0 0,16 Z" /></clipPath><clipPath
       id="clipPath24"
       clipPathUnits="userSpaceOnUse"><path
         id="path26"
         d="M 0,16 16,16 16,0 0,0 0,16 Z" /></clipPath></defs><g
     transform="matrix(1.25,0,0,-1.25,0,20)"
     id="g10"><g
       id="g12"><g
         clip-path="url(#clipPath16)"
         id="g14"><g
           id="g20"><g
             id="g22" /><g
             id="g28"><g
               style="opacity:0"
               id="g30"
               clip-path="url(#clipPath24)"><path
                 id="path32"
                 style="fill:#f6f6f6;fill-opacity:1;fill-rule:nonzero;stroke:none"
                 d="M 16,0 0,0 0,16 16,16 16,0 Z" /></g></g></g></g></g><g
       transform="translate(11.5803,7.5339)"
       id="g34"><path
         id="path36"
         style="fill:#f6f6f6;fill-opacity:1;fill-rule:nonzero;stroke:none"
         d="m 0,0 -0.707,-0.707 -2.122,-2.121 -0.706,-0.707 -0.237,-0.236 -0.729,-3.763 0.704,0 3.031,0.757 0.236,0.237 0.706,0.706 2.123,2.121 0.707,0.707 L 4.42,-1.59 1.415,1.414 0,0 Z" /></g><g
       transform="translate(12.2868,6.8274)"
       id="g38"><path
         id="path40"
         style="fill:#424242;fill-opacity:1;fill-rule:nonzero;stroke:none"
         d="M 0,0 1.592,-1.592 2.299,-0.884 0.708,0.707 0,0 Z m -2.828,-2.829 1.591,-1.591 2.122,2.121 -1.591,1.592 -2.122,-2.122 z m -1.237,-3.005 2.121,0.707 -1.591,1.592 -0.53,-2.299 z" /></g><g
       transform="translate(6.7392,16.0002)"
       id="g42"><path
         id="path44"
         style="fill:#f6f6f6;fill-opacity:1;fill-rule:nonzero;stroke:none"
         d="m 0,0 -6.739,-3.37 0,-5.236 4.789,-2.394 0.42,0 6.79,3.394 0,5.236 L 0.524,0 0,0 Z" /></g><g
       transform="translate(5,11)"
       id="g46"><path
         id="path48"
         style="fill:#00539c;fill-opacity:1;fill-rule:nonzero;stroke:none"
         d="M 0,0 -2,1 2,3 4,2 0,0 Z m -4,1 0,-4 4,-2 6,3 0,4 -4,2 -6,-3 z" /></g><g
       transform="translate(3,12)"
       id="g50"><path
         id="path52"
         style="fill:#f0eff1;fill-opacity:1;fill-rule:nonzero;stroke:none"
         d="M 0,0 2,-1 6,1 4,2 0,0 Z" /></g></g></svg>