<?xml version="1.0" encoding="UTF-8" standalone="no"?>
<svg
   xmlns:dc="http://purl.org/dc/elements/1.1/"
   xmlns:cc="http://creativecommons.org/ns#"
   xmlns:rdf="http://www.w3.org/1999/02/22-rdf-syntax-ns#"
   xmlns:svg="http://www.w3.org/2000/svg"
   xmlns="http://www.w3.org/2000/svg"
   viewBox="0 0 20 20"
   height="20"
   width="20"
   xml:space="preserve"
   version="1.1"
   id="svg2"><metadata
     id="metadata8"><rdf:RDF><cc:Work
         rdf:about=""><dc:format>image/svg+xml</dc:format><dc:type
           rdf:resource="http://purl.org/dc/dcmitype/StillImage" /></cc:Work></rdf:RDF></metadata><defs
     id="defs6"><clipPath
       id="clipPath16"
       clipPathUnits="userSpaceOnUse"><path
         id="path18"
         d="M 0,16 16,16 16,0 0,0 0,16 Z" /></clipPath><clipPath
       id="clipPath24"
       clipPathUnits="userSpaceOnUse"><path
         id="path26"
         d="M 0,16 16,16 16,0 0,0 0,16 Z" /></clipPath><clipPath
       id="clipPath38"
       clipPathUnits="userSpaceOnUse"><path
         id="path40"
         d="M 0,16 16,16 16,0 0,0 0,16 Z" /></clipPath><clipPath
       id="clipPath50"
       clipPathUnits="userSpaceOnUse"><path
         id="path52"
         d="M 0,16 16,16 16,0 0,0 0,16 Z" /></clipPath><clipPath
       id="clipPath62"
       clipPathUnits="userSpaceOnUse"><path
         id="path64"
         d="M 0,16 16,16 16,0 0,0 0,16 Z" /></clipPath></defs><g
     transform="matrix(1.25,0,0,-1.25,0,20)"
     id="g10"><g
       id="g12"><g
         clip-path="url(#clipPath16)"
         id="g14"><g
           id="g20"><g
             id="g22" /><g
             id="g28"><g
               style="opacity:0"
               id="g30"
               clip-path="url(#clipPath24)"><path
                 id="path32"
                 style="fill:#f6f6f6;fill-opacity:1;fill-rule:nonzero;stroke:none"
                 d="M 16,0 0,0 0,16 16,16 16,0 Z" /></g></g></g></g></g><g
       id="g34"><g
         clip-path="url(#clipPath38)"
         id="g36"><g
           transform="translate(11.5,4)"
           id="g42"><path
             id="path44"
             style="fill:#f6f6f6;fill-opacity:1;fill-rule:nonzero;stroke:none"
             d="M 0,0 C -1.914,0 -3.601,1.241 -4.227,3 L -5.909,3 C -6.434,2.089 -7.412,1.5 -8.5,1.5 c -1.654,0 -3,1.346 -3,3 0,1.654 1.346,3 3,3 1.088,0 2.066,-0.589 2.591,-1.5 l 1.682,0 C -3.601,7.759 -1.914,9 0,9 2.481,9 4.5,6.981 4.5,4.5 4.5,2.019 2.481,0 0,0" /></g></g></g><g
       id="g46"><g
         clip-path="url(#clipPath50)"
         id="g48"><g
           transform="translate(11.5,7)"
           id="g54"><path
             id="path56"
             style="fill:#424242;fill-opacity:1;fill-rule:nonzero;stroke:none"
             d="M 0,0 C -0.827,0 -1.5,0.673 -1.5,1.5 -1.5,2.327 -0.827,3 0,3 0.827,3 1.5,2.327 1.5,1.5 1.5,0.673 0.827,0 0,0 M 0,5 C -1.759,5 -3.204,3.692 -3.449,2 l -3.122,0 c -0.223,0.861 -0.998,1.5 -1.929,1.5 -1.104,0 -2,-0.895 -2,-2 0,-1.105 0.896,-2 2,-2 0.931,0 1.706,0.639 1.929,1.5 l 3.122,0 C -3.204,-0.691 -1.759,-2 0,-2 1.93,-2 3.5,-0.43 3.5,1.5 3.5,3.43 1.93,5 0,5" /></g></g></g><g
       id="g58"><g
         clip-path="url(#clipPath62)"
         id="g60"><g
           transform="translate(11.5,7)"
           id="g66"><path
             id="path68"
             style="fill:#f0eff1;fill-opacity:1;fill-rule:nonzero;stroke:none"
             d="M 0,0 C -0.827,0 -1.5,0.673 -1.5,1.5 -1.5,2.327 -0.827,3 0,3 0.827,3 1.5,2.327 1.5,1.5 1.5,0.673 0.827,0 0,0" /></g></g></g></g></svg>