<?xml version="1.0" encoding="UTF-8" standalone="no"?>
<svg
   xmlns:dc="http://purl.org/dc/elements/1.1/"
   xmlns:cc="http://creativecommons.org/ns#"
   xmlns:rdf="http://www.w3.org/1999/02/22-rdf-syntax-ns#"
   xmlns:svg="http://www.w3.org/2000/svg"
   xmlns="http://www.w3.org/2000/svg"
   viewBox="0 0 20 20"
   height="20"
   width="20"
   xml:space="preserve"
   version="1.1"
   id="svg2"><metadata
     id="metadata8"><rdf:RDF><cc:Work
         rdf:about=""><dc:format>image/svg+xml</dc:format><dc:type
           rdf:resource="http://purl.org/dc/dcmitype/StillImage" /></cc:Work></rdf:RDF></metadata><defs
     id="defs6"><clipPath
       id="clipPath16"
       clipPathUnits="userSpaceOnUse"><path
         id="path18"
         d="M 0,16 16,16 16,0 0,0 0,16 Z" /></clipPath><clipPath
       id="clipPath28"
       clipPathUnits="userSpaceOnUse"><path
         id="path30"
         d="M 0,16 16,16 16,0 0,0 0,16 Z" /></clipPath><clipPath
       id="clipPath40"
       clipPathUnits="userSpaceOnUse"><path
         id="path42"
         d="M 0,16 16,16 16,0 0,0 0,16 Z" /></clipPath><clipPath
       id="clipPath52"
       clipPathUnits="userSpaceOnUse"><path
         id="path54"
         d="M 0,16 16,16 16,0 0,0 0,16 Z" /></clipPath><clipPath
       id="clipPath64"
       clipPathUnits="userSpaceOnUse"><path
         id="path66"
         d="M 0,16 16,16 16,0 0,0 0,16 Z" /></clipPath></defs><g
     transform="matrix(1.25,0,0,-1.25,0,20)"
     id="g10"><g
       id="g12"><g
         clip-path="url(#clipPath16)"
         id="g14"><g
           transform="translate(13.707,7.6025)"
           id="g20"><path
             id="path22"
             style="fill:#f6f6f6;fill-opacity:1;fill-rule:nonzero;stroke:none"
             d="m 0,0 c 1.361,0.775 2.293,2.223 2.293,3.897 0,2.483 -2.019,4.5 -4.5,4.5 -1.914,0 -3.601,-1.24 -4.227,-3 l -1.682,0 c -0.525,0.913 -1.503,1.5 -2.591,1.5 -1.654,0 -3,-1.345 -3,-3 0,-1.654 1.346,-3 3,-3 1.088,0 2.066,0.59 2.591,1.5 l 1.682,0 c 0.433,-1.214 1.378,-2.171 2.548,-2.653 -1.093,-0.715 -1.821,-1.945 -1.821,-3.347 0,-2.207 1.794,-4 4,-4 2.206,0 4,1.793 4,4 C 2.293,-2.01 1.351,-0.643 0,0" /></g></g></g><g
       id="g24"><g
         clip-path="url(#clipPath28)"
         id="g26"><g
           transform="translate(11.5,10)"
           id="g32"><path
             id="path34"
             style="fill:#00539c;fill-opacity:1;fill-rule:nonzero;stroke:none"
             d="M 0,0 C -0.827,0 -1.5,0.674 -1.5,1.5 -1.5,2.328 -0.827,3 0,3 0.827,3 1.5,2.328 1.5,1.5 1.5,0.674 0.827,0 0,0 M 0,5 C -1.759,5 -3.204,3.692 -3.449,2 l -3.122,0 c -0.223,0.861 -0.998,1.5 -1.929,1.5 -1.104,0 -2,-0.895 -2,-2 0,-1.104 0.896,-2 2,-2 0.931,0 1.706,0.639 1.929,1.5 l 3.122,0 C -3.204,-0.691 -1.759,-2 0,-2 1.93,-2 3.5,-0.43 3.5,1.5 3.5,3.431 1.93,5 0,5" /></g></g></g><g
       id="g36"><g
         clip-path="url(#clipPath40)"
         id="g38"><g
           transform="translate(11.5,10)"
           id="g44"><path
             id="path46"
             style="fill:#f0eff1;fill-opacity:1;fill-rule:nonzero;stroke:none"
             d="M 0,0 C -0.827,0 -1.5,0.674 -1.5,1.5 -1.5,2.328 -0.827,3 0,3 0.827,3 1.5,2.328 1.5,1.5 1.5,0.674 0.827,0 0,0" /></g></g></g><g
       id="g48"><g
         clip-path="url(#clipPath52)"
         id="g50"><g
           transform="translate(12,1.7832)"
           id="g56"><path
             id="path58"
             style="fill:#424242;fill-opacity:1;fill-rule:nonzero;stroke:none"
             d="M 0,0 C -0.47,0 -0.904,0.148 -1.264,0.398 L 1.818,3.48 C 2.068,3.121 2.217,2.686 2.217,2.217 2.217,0.994 1.223,0 0,0 m -1.587,0.672 0.042,-0.043 c -0.013,0.016 -0.027,0.029 -0.042,0.043 m -0.63,1.545 c 0,1.222 0.994,2.217 2.217,2.217 0.47,0 0.904,-0.149 1.264,-0.399 L -1.818,0.953 c -0.25,0.36 -0.399,0.793 -0.399,1.264 M 1.587,3.762 1.545,3.803 C 1.558,3.789 1.572,3.773 1.587,3.762 M 0,5.217 c -1.654,0 -3,-1.346 -3,-3 0,-1.654 1.346,-3 3,-3 1.654,0 3,1.346 3,3 0,1.654 -1.346,3 -3,3" /></g></g></g><g
       id="g60"><g
         clip-path="url(#clipPath64)"
         id="g62"><g
           transform="translate(9.7832,4)"
           id="g68"><path
             id="path70"
             style="fill:#f0eff1;fill-opacity:1;fill-rule:nonzero;stroke:none"
             d="m 0,0 c 0,1.223 0.994,2.217 2.217,2.217 0.47,0 0.904,-0.149 1.263,-0.399 L 0.398,-1.264 C 0.148,-0.904 0,-0.471 0,0" /></g><g
           transform="translate(12,1.7832)"
           id="g72"><path
             id="path74"
             style="fill:#f0eff1;fill-opacity:1;fill-rule:nonzero;stroke:none"
             d="M 0,0 C -0.47,0 -0.904,0.148 -1.264,0.398 L 1.818,3.48 C 2.068,3.121 2.217,2.686 2.217,2.217 2.217,0.994 1.223,0 0,0" /></g></g></g></g></svg>