<?xml version="1.0" encoding="UTF-8" standalone="no"?>
<svg
   xmlns:dc="http://purl.org/dc/elements/1.1/"
   xmlns:cc="http://creativecommons.org/ns#"
   xmlns:rdf="http://www.w3.org/1999/02/22-rdf-syntax-ns#"
   xmlns:svg="http://www.w3.org/2000/svg"
   xmlns="http://www.w3.org/2000/svg"
   viewBox="0 0 20 20"
   height="20"
   width="20"
   xml:space="preserve"
   version="1.1"
   id="svg2"><metadata
     id="metadata8"><rdf:RDF><cc:Work
         rdf:about=""><dc:format>image/svg+xml</dc:format><dc:type
           rdf:resource="http://purl.org/dc/dcmitype/StillImage" /></cc:Work></rdf:RDF></metadata><defs
     id="defs6"><clipPath
       id="clipPath16"
       clipPathUnits="userSpaceOnUse"><path
         id="path18"
         d="M 0,16 16,16 16,0 0,0 0,16 Z" /></clipPath><clipPath
       id="clipPath28"
       clipPathUnits="userSpaceOnUse"><path
         id="path30"
         d="M 0,16 16,16 16,0 0,0 0,16 Z" /></clipPath><clipPath
       id="clipPath40"
       clipPathUnits="userSpaceOnUse"><path
         id="path42"
         d="M 0,16 16,16 16,0 0,0 0,16 Z" /></clipPath><clipPath
       id="clipPath52"
       clipPathUnits="userSpaceOnUse"><path
         id="path54"
         d="M 0,16 16,16 16,0 0,0 0,16 Z" /></clipPath></defs><g
     transform="matrix(1.25,0,0,-1.25,0,20)"
     id="g10"><g
       id="g12"><g
         clip-path="url(#clipPath16)"
         id="g14"><g
           transform="translate(13.9033,7.7095)"
           id="g20"><path
             id="path22"
             style="fill:#f6f6f6;fill-opacity:1;fill-rule:nonzero;stroke:none"
             d="m 0,0 c 1.256,0.799 2.097,2.195 2.097,3.791 0,2.482 -2.019,4.5 -4.5,4.5 -1.914,0 -3.601,-1.241 -4.227,-3 l -1.683,0 c -0.524,0.912 -1.502,1.5 -2.59,1.5 -1.655,0 -3,-1.346 -3,-3 0,-1.655 1.345,-3 3,-3 1.088,0 2.066,0.589 2.59,1.5 l 1.683,0 c 0.484,-1.359 1.604,-2.402 2.971,-2.809 -1.347,-1.158 -1.239,-3.207 -1.239,-3.207 l -0.005,-3.984 7,0 0,3.992 C 2.097,-1.546 1.118,-0.449 0,0" /></g></g></g><g
       id="g24"><g
         clip-path="url(#clipPath28)"
         id="g26"><g
           transform="translate(11.5,10)"
           id="g32"><path
             id="path34"
             style="fill:#00539c;fill-opacity:1;fill-rule:nonzero;stroke:none"
             d="M 0,0 C -0.827,0 -1.5,0.674 -1.5,1.5 -1.5,2.328 -0.827,3 0,3 0.827,3 1.5,2.328 1.5,1.5 1.5,0.674 0.827,0 0,0 M 0,5 C -1.759,5 -3.204,3.692 -3.449,2 l -3.122,0 c -0.223,0.861 -0.998,1.5 -1.929,1.5 -1.104,0 -2,-0.895 -2,-2 0,-1.104 0.896,-2 2,-2 0.931,0 1.706,0.639 1.929,1.5 l 3.122,0 C -3.204,-0.691 -1.759,-2 0,-2 1.93,-2 3.5,-0.43 3.5,1.5 3.5,3.431 1.93,5 0,5" /></g></g></g><g
       id="g36"><g
         clip-path="url(#clipPath40)"
         id="g38"><g
           transform="translate(11.5,10)"
           id="g44"><path
             id="path46"
             style="fill:#f0eff1;fill-opacity:1;fill-rule:nonzero;stroke:none"
             d="M 0,0 C -0.827,0 -1.5,0.674 -1.5,1.5 -1.5,2.328 -0.827,3 0,3 0.827,3 1.5,2.328 1.5,1.5 1.5,0.674 0.827,0 0,0" /></g></g></g><g
       id="g48"><g
         clip-path="url(#clipPath52)"
         id="g50"><g
           transform="translate(11.0186,4.4375)"
           id="g56"><path
             id="path58"
             style="fill:#424242;fill-opacity:1;fill-rule:nonzero;stroke:none"
             d="M 0,0 C 0.06,0.729 0.334,1.541 1.575,1.541 2.824,1.541 2.966,0.746 2.979,0 L 3.945,0 C 3.86,1.119 3.802,2.531 1.575,2.531 -0.82,2.531 -0.87,1.125 -1.001,0 L 0,0 Z" /></g><path
           id="path60"
           style="fill:#424242;fill-opacity:1;fill-rule:nonzero;stroke:none"
           d="m 13,2 -1,0 0,1 1,0 0,-1 z m 1,2 -3,0 -1,0 0,-3 5,0 0,3 -1,0 z" /></g></g><path
       id="path62"
       style="fill:#f0eff1;fill-opacity:1;fill-rule:nonzero;stroke:none"
       d="m 12,2 1,0 0,0.959 -1,0 L 12,2 Z" /><path
       id="path64"
       style="fill:#f0eff1;fill-opacity:1;fill-rule:nonzero;stroke:none"
       d="m 12,2 1,0 0,1 -1,0 0,-1 z" /></g></svg>