<?xml version="1.0" encoding="UTF-8" standalone="no"?>
<svg
   xmlns:dc="http://purl.org/dc/elements/1.1/"
   xmlns:cc="http://creativecommons.org/ns#"
   xmlns:rdf="http://www.w3.org/1999/02/22-rdf-syntax-ns#"
   xmlns:svg="http://www.w3.org/2000/svg"
   xmlns="http://www.w3.org/2000/svg"
   viewBox="0 0 20 20"
   height="20"
   width="20"
   xml:space="preserve"
   version="1.1"
   id="svg2"><metadata
     id="metadata8"><rdf:RDF><cc:Work
         rdf:about=""><dc:format>image/svg+xml</dc:format><dc:type
           rdf:resource="http://purl.org/dc/dcmitype/StillImage" /></cc:Work></rdf:RDF></metadata><defs
     id="defs6"><clipPath
       id="clipPath16"
       clipPathUnits="userSpaceOnUse"><path
         id="path18"
         d="M 0,16 16,16 16,0 0,0 0,16 Z" /></clipPath><clipPath
       id="clipPath32"
       clipPathUnits="userSpaceOnUse"><path
         id="path34"
         d="M 0,16 16,16 16,0 0,0 0,16 Z" /></clipPath><clipPath
       id="clipPath48"
       clipPathUnits="userSpaceOnUse"><path
         id="path50"
         d="M 0,16 16,16 16,0 0,0 0,16 Z" /></clipPath></defs><g
     transform="matrix(1.25,0,0,-1.25,0,20)"
     id="g10"><g
       id="g12"><g
         clip-path="url(#clipPath16)"
         id="g14"><g
           transform="translate(7.5,14)"
           id="g20"><path
             id="path22"
             style="fill:#f6f6f6;fill-opacity:1;fill-rule:nonzero;stroke:none"
             d="m 0,0 c -0.569,1.195 -1.631,2 -3,2 -1.93,0 -3.5,-1.57 -3.5,-3.5 0,-0.539 0.133,-1.043 0.352,-1.5 l -1.352,0 0,-7 8,0 0,5 5,0 0,2 1,0 0,3 L 0,0 Z" /></g><g
           transform="translate(13.5713,7)"
           id="g24"><path
             id="path26"
             style="fill:#f6f6f6;fill-opacity:1;fill-rule:nonzero;stroke:none"
             d="M 0,0 C -0.276,0 -0.677,-0.055 -1.071,-0.305 -1.466,-0.055 -1.866,0 -2.143,0 c -1.316,0 -2.428,-1.137 -2.428,-2.482 0,-0.594 0.196,-1.188 0.56,-1.657 0.293,-0.354 2.246,-2.529 2.246,-2.529 L -1.468,-7 l 0.909,0 0.3,0.352 c 0,0 1.836,2.159 2.148,2.535 0.342,0.442 0.54,1.037 0.54,1.631 C 2.429,-1.137 1.316,0 0,0" /></g></g></g><g
       id="g28"><g
         clip-path="url(#clipPath32)"
         id="g30"><g
           transform="translate(7,13)"
           id="g36"><path
             id="path38"
             style="fill:#424242;fill-opacity:1;fill-rule:nonzero;stroke:none"
             d="M 0,0 C -0.231,1.143 -1.291,2 -2.5,2 -3.881,2 -5,0.881 -5,-0.5 -5,-1.065 -4.806,-1.581 -4.488,-2 L -2.5,-2 C -3.328,-2 -4,-1.328 -4,-0.5 -4,0.33 -3.328,1 -2.5,1 -1.672,1 -1,0.33 -1,-0.5 -1,-1.328 -1.672,-2 -2.5,-2 l 2.026,0 c 0.229,0.292 0.399,0.629 0.474,1 l 2,0 0,-2 1,0 0,2 1,0 0,-2 1,0 0,2 1,0 0,1 -6,0 z" /></g><path
           id="path40"
           style="fill:#424242;fill-opacity:1;fill-rule:nonzero;stroke:none"
           d="M 2,8 6,8 6,7 2,7 2,8 Z M 1,5 7,5 7,10 1,10 1,5 Z" /></g></g><path
       id="path42"
       style="fill:#f0eff1;fill-opacity:1;fill-rule:nonzero;stroke:none"
       d="m 2,7 4.001,0 0,1 L 2,8 2,7 Z" /><g
       id="g44"><g
         clip-path="url(#clipPath48)"
         id="g46"><g
           transform="translate(13.5713,6)"
           id="g52"><path
             id="path54"
             style="fill:#424242;fill-opacity:1;fill-rule:nonzero;stroke:none"
             d="M 0,0 C -0.527,0 -0.86,-0.747 -1.071,-1.25 -1.282,-0.747 -1.616,0 -2.143,0 -2.87,0 -3.571,-0.664 -3.571,-1.482 c 0,-0.375 0.127,-0.756 0.329,-1.018 0.29,-0.35 2.221,-2.5 2.221,-2.5 0,0 1.83,2.15 2.12,2.5 0.203,0.262 0.33,0.643 0.33,1.018 C 1.429,-0.664 0.729,0 0,0" /></g></g></g></g></svg>