<?xml version="1.0" encoding="UTF-8" standalone="no"?>
<svg
   xmlns:dc="http://purl.org/dc/elements/1.1/"
   xmlns:cc="http://creativecommons.org/ns#"
   xmlns:rdf="http://www.w3.org/1999/02/22-rdf-syntax-ns#"
   xmlns:svg="http://www.w3.org/2000/svg"
   xmlns="http://www.w3.org/2000/svg"
   viewBox="0 0 20 20"
   height="20"
   width="20"
   xml:space="preserve"
   version="1.1"
   id="svg2"><metadata
     id="metadata8"><rdf:RDF><cc:Work
         rdf:about=""><dc:format>image/svg+xml</dc:format><dc:type
           rdf:resource="http://purl.org/dc/dcmitype/StillImage" /></cc:Work></rdf:RDF></metadata><defs
     id="defs6"><clipPath
       id="clipPath16"
       clipPathUnits="userSpaceOnUse"><path
         id="path18"
         d="M 0,16 16,16 16,0 0,0 0,16 Z" /></clipPath><clipPath
       id="clipPath30"
       clipPathUnits="userSpaceOnUse"><path
         id="path32"
         d="M 0,16 16,16 16,0 0,0 0,16 Z" /></clipPath></defs><g
     transform="matrix(1.25,0,0,-1.25,0,20)"
     id="g10"><g
       id="g12"><g
         clip-path="url(#clipPath16)"
         id="g14"><g
           transform="translate(3.5,9)"
           id="g20"><path
             id="path22"
             style="fill:#f6f6f6;fill-opacity:1;fill-rule:nonzero;stroke:none"
             d="m 0,0 c 1.369,0 2.431,0.805 3,2 l 1.5,0 0,-2 5,0 0,2 1,0 0,3 L 3,5 C 2.431,6.195 1.369,7 0,7 -1.93,7 -3.5,5.43 -3.5,3.5 -3.5,1.57 -1.93,0 0,0" /></g><path
           id="path24"
           style="fill:#f6f6f6;fill-opacity:1;fill-rule:nonzero;stroke:none"
           d="M 16,0 9,0 9,7 16,7 16,0 Z" /></g></g><g
       id="g26"><g
         clip-path="url(#clipPath30)"
         id="g28"><g
           transform="translate(3.5,11)"
           id="g34"><path
             id="path36"
             style="fill:#424242;fill-opacity:1;fill-rule:nonzero;stroke:none"
             d="M 0,0 C -0.828,0 -1.5,0.672 -1.5,1.5 -1.5,2.33 -0.828,3 0,3 0.828,3 1.5,2.33 1.5,1.5 1.5,0.672 0.828,0 0,0 M 2.5,2 C 2.269,3.143 1.209,4 0,4 -1.381,4 -2.5,2.881 -2.5,1.5 -2.5,0.119 -1.381,-1 0,-1 c 1.209,0 2.269,0.859 2.5,2 l 3,0 0,-2 1,0 0,2 1,0 0,-2 1,0 0,2 1,0 0,1 -7,0 z" /></g></g></g><g
       transform="translate(14,3)"
       id="g38"><path
         id="path40"
         style="fill:#424242;fill-opacity:1;fill-rule:nonzero;stroke:none"
         d="M 0,0 -1,-1 -1,0.5 -2.5,-1 -3,-0.5 -1.5,1 -3,1 -2,2 0,2 0,0 Z m -4,-2 5,0 0,5 -5,0 0,-5 z" /></g><g
       transform="translate(14,5)"
       id="g42"><path
         id="path44"
         style="fill:#f0eff1;fill-opacity:1;fill-rule:nonzero;stroke:none"
         d="M 0,0 0,-2 -1,-3 -1,-1.5 -2.5,-3 -3,-2.5 -1.5,-1 -3,-1 -2,0 0,0 Z" /></g></g></svg>