<?xml version="1.0" encoding="UTF-8" standalone="no"?>
<svg
   xmlns:dc="http://purl.org/dc/elements/1.1/"
   xmlns:cc="http://creativecommons.org/ns#"
   xmlns:rdf="http://www.w3.org/1999/02/22-rdf-syntax-ns#"
   xmlns:svg="http://www.w3.org/2000/svg"
   xmlns="http://www.w3.org/2000/svg"
   viewBox="0 0 20 20"
   height="20"
   width="20"
   xml:space="preserve"
   version="1.1"
   id="svg2"><metadata
     id="metadata8"><rdf:RDF><cc:Work
         rdf:about=""><dc:format>image/svg+xml</dc:format><dc:type
           rdf:resource="http://purl.org/dc/dcmitype/StillImage" /></cc:Work></rdf:RDF></metadata><defs
     id="defs6"><clipPath
       id="clipPath16"
       clipPathUnits="userSpaceOnUse"><path
         id="path18"
         d="M 0,16 16,16 16,0 0,0 0,16 Z" /></clipPath><clipPath
       id="clipPath24"
       clipPathUnits="userSpaceOnUse"><path
         id="path26"
         d="M 0,16 16,16 16,0 0,0 0,16 Z" /></clipPath></defs><g
     transform="matrix(1.25,0,0,-1.25,0,20)"
     id="g10"><g
       id="g12"><g
         clip-path="url(#clipPath16)"
         id="g14"><g
           id="g20"><g
             id="g22" /><g
             id="g28"><g
               style="opacity:0"
               id="g30"
               clip-path="url(#clipPath24)"><path
                 id="path32"
                 style="fill:#f6f6f6;fill-opacity:1;fill-rule:nonzero;stroke:none"
                 d="M 16,0 0,0 0,16 16,16 16,0 Z" /></g></g></g></g></g><g
       transform="translate(5.0004,16.0002)"
       id="g34"><path
         id="path36"
         style="fill:#f6f6f6;fill-opacity:1;fill-rule:nonzero;stroke:none"
         d="m 0,0 0,-5.413 -4.833,-2.444 0,-5.569 4.086,-2.574 1.928,0 3.574,2.619 0,1.38 6.245,0 L 11,0 0,0 Z" /></g><path
       id="path38"
       style="fill:#424242;fill-opacity:1;fill-rule:nonzero;stroke:none"
       d="m 10,5 1,0 0,1 -1,0 0,-1 z" /><path
       id="path40"
       style="fill:#424242;fill-opacity:1;fill-rule:nonzero;stroke:none"
       d="m 12,5 1,0 0,1 -1,0 0,-1 z" /><path
       id="path42"
       style="fill:#424242;fill-opacity:1;fill-rule:nonzero;stroke:none"
       d="m 14,5 1,0 0,1 -1,0 0,-1 z" /><g
       transform="translate(6,15)"
       id="g44"><path
         id="path46"
         style="fill:#424242;fill-opacity:1;fill-rule:nonzero;stroke:none"
         d="M 0,0 0,-4.888 1,-5.415 1,-1 8,-1 8,-8 9,-8 9,0 0,0 Z" /></g><g
       transform="translate(8.1904,3.4014)"
       id="g48"><path
         id="path50"
         style="fill:#652d90;fill-opacity:1;fill-rule:nonzero;stroke:none"
         d="m 0,0 -2.576,-1.856 0,3.462 L 0,3.173 0,0 Z m -3.22,-1.963 0,-0.016 -0.009,0.008 -0.008,-0.008 0,0.016 -3.167,2.065 0,3.319 3.209,-1.793 0,-3.573 -0.025,-0.018 z m 0.025,7.374 3.07,-1.513 -2.864,-1.719 -3.095,1.765 2.889,1.467 z m 3.759,-5.686 0,4.402 -3.713,1.959 -3.874,-1.959 0,-4.402 4.081,-2.571 3.506,2.571 z" /></g><g
       transform="translate(4.9951,8.812)"
       id="g52"><path
         id="path54"
         style="fill:#f0eff1;fill-opacity:1;fill-rule:nonzero;stroke:none"
         d="M 0,0 3.07,-1.513 0.206,-3.232 -2.889,-1.467 0,0 Z" /></g><g
       transform="translate(4.9951,8.812)"
       id="g56"><path
         id="path58"
         style="fill:none;stroke:#652d90;stroke-width:0.15000001;stroke-linecap:butt;stroke-linejoin:miter;stroke-miterlimit:10;stroke-dasharray:none;stroke-opacity:1"
         d="M 0,0 3.07,-1.513 0.206,-3.232 -2.889,-1.467 0,0 Z" /></g><g
       transform="translate(4.9707,1.4385)"
       id="g60"><path
         id="path62"
         style="fill:#f0eff1;fill-opacity:1;fill-rule:nonzero;stroke:none"
         d="m 0,0 0,-0.016 -0.01,0.008 -0.008,-0.008 0,0.016 -3.167,2.064 0,3.32 3.209,-1.793 0,-3.573 L 0,0 Z" /></g><g
       transform="translate(4.9707,1.4385)"
       id="g64"><path
         id="path66"
         style="fill:none;stroke:#652d90;stroke-width:0.15000001;stroke-linecap:butt;stroke-linejoin:miter;stroke-miterlimit:10;stroke-dasharray:none;stroke-opacity:1"
         d="m 0,0 0,-0.016 -0.01,0.008 -0.008,-0.008 0,0.016 -3.167,2.064 0,3.32 3.209,-1.793 0,-3.573 L 0,0 Z" /></g><g
       transform="translate(8.1904,3.4014)"
       id="g68"><path
         id="path70"
         style="fill:#f0eff1;fill-opacity:1;fill-rule:nonzero;stroke:none"
         d="m 0,0 -2.576,-1.856 0,3.462 L 0,3.173 0,0 Z" /></g><g
       transform="translate(8.1904,3.4014)"
       id="g72"><path
         id="path74"
         style="fill:none;stroke:#652d90;stroke-width:0.15000001;stroke-linecap:butt;stroke-linejoin:miter;stroke-miterlimit:10;stroke-dasharray:none;stroke-opacity:1"
         d="m 0,0 -2.576,-1.856 0,3.462 L 0,3.173 0,0 Z" /></g><g
       transform="translate(7,14)"
       id="g76"><path
         id="path78"
         style="fill:#f0eff1;fill-opacity:1;fill-rule:nonzero;stroke:none"
         d="M 0,0 0,-4.415 2.755,-5.868 2.755,-7 7,-7 7,0 0,0 Z" /></g></g></svg>