<?xml version="1.0" encoding="UTF-8" standalone="no"?>
<svg
   xmlns:dc="http://purl.org/dc/elements/1.1/"
   xmlns:cc="http://creativecommons.org/ns#"
   xmlns:rdf="http://www.w3.org/1999/02/22-rdf-syntax-ns#"
   xmlns:svg="http://www.w3.org/2000/svg"
   xmlns="http://www.w3.org/2000/svg"
   viewBox="0 0 20 20"
   height="20"
   width="20"
   xml:space="preserve"
   version="1.1"
   id="svg2"><metadata
     id="metadata8"><rdf:RDF><cc:Work
         rdf:about=""><dc:format>image/svg+xml</dc:format><dc:type
           rdf:resource="http://purl.org/dc/dcmitype/StillImage" /></cc:Work></rdf:RDF></metadata><defs
     id="defs6"><clipPath
       id="clipPath16"
       clipPathUnits="userSpaceOnUse"><path
         id="path18"
         d="M 0,16 16,16 16,0 0,0 0,16 Z" /></clipPath><clipPath
       id="clipPath24"
       clipPathUnits="userSpaceOnUse"><path
         id="path26"
         d="M 0,16 16,16 16,0 0,0 0,16 Z" /></clipPath><clipPath
       id="clipPath42"
       clipPathUnits="userSpaceOnUse"><path
         id="path44"
         d="M 0,16 16,16 16,0 0,0 0,16 Z" /></clipPath><clipPath
       id="clipPath82"
       clipPathUnits="userSpaceOnUse"><path
         id="path84"
         d="M 0,16 16,16 16,0 0,0 0,16 Z" /></clipPath><clipPath
       id="clipPath94"
       clipPathUnits="userSpaceOnUse"><path
         id="path96"
         d="M 0,16 16,16 16,0 0,0 0,16 Z" /></clipPath></defs><g
     transform="matrix(1.25,0,0,-1.25,0,20)"
     id="g10"><g
       id="g12"><g
         clip-path="url(#clipPath16)"
         id="g14"><g
           id="g20"><g
             id="g22" /><g
             id="g28"><g
               style="opacity:0"
               id="g30"
               clip-path="url(#clipPath24)"><path
                 id="path32"
                 style="fill:#f6f6f6;fill-opacity:1;fill-rule:nonzero;stroke:none"
                 d="M 16,0 0,0 0,16 16,16 16,0 Z" /></g></g></g></g></g><g
       transform="translate(0.167,7.5742)"
       id="g34"><path
         id="path36"
         style="fill:#f6f6f6;fill-opacity:1;fill-rule:nonzero;stroke:none"
         d="m 0,0 0,5.569 4.884,2.47 4.704,-2.481 0,-5.513 L 5.124,-3.228 0,0 Z" /></g><g
       id="g38"><g
         clip-path="url(#clipPath42)"
         id="g40"><g
           transform="translate(12,8)"
           id="g46"><path
             id="path48"
             style="fill:#f6f6f6;fill-opacity:1;fill-rule:nonzero;stroke:none"
             d="m 0,0 c -2.206,0 -4,-1.794 -4,-4 0,-2.206 1.794,-4 4,-4 2.206,0 4,1.794 4,4 0,2.206 -1.794,4 -4,4" /></g></g></g><g
       transform="translate(8.1904,8.4014)"
       id="g50"><path
         id="path52"
         style="fill:#652d90;fill-opacity:1;fill-rule:nonzero;stroke:none"
         d="m 0,0 -2.576,-1.856 0,3.462 L 0,3.173 0,0 Z m -3.22,-1.963 0,-0.016 -0.009,0.008 -0.008,-0.008 0,0.016 -3.167,2.065 0,3.319 3.209,-1.793 0,-3.573 -0.025,-0.018 z m 0.025,7.374 3.07,-1.514 -2.864,-1.718 -3.095,1.765 2.889,1.467 z m 3.759,-5.686 0,4.403 -3.713,1.959 -3.874,-1.959 0,-4.403 4.081,-2.571 3.506,2.571 z" /></g><g
       transform="translate(4.9951,13.8125)"
       id="g54"><path
         id="path56"
         style="fill:#f0eff1;fill-opacity:1;fill-rule:nonzero;stroke:none"
         d="M 0,0 3.07,-1.514 0.206,-3.232 -2.889,-1.467 0,0 Z" /></g><g
       transform="translate(4.9951,13.8125)"
       id="g58"><path
         id="path60"
         style="fill:none;stroke:#652d90;stroke-width:0.15000001;stroke-linecap:butt;stroke-linejoin:miter;stroke-miterlimit:10;stroke-dasharray:none;stroke-opacity:1"
         d="M 0,0 3.07,-1.514 0.206,-3.232 -2.889,-1.467 0,0 Z" /></g><g
       transform="translate(4.9707,6.4385)"
       id="g62"><path
         id="path64"
         style="fill:#f0eff1;fill-opacity:1;fill-rule:nonzero;stroke:none"
         d="m 0,0 0,-0.016 -0.01,0.008 -0.008,-0.008 0,0.016 -3.167,2.064 0,3.32 3.209,-1.793 0,-3.573 L 0,0 Z" /></g><g
       transform="translate(4.9707,6.4385)"
       id="g66"><path
         id="path68"
         style="fill:none;stroke:#652d90;stroke-width:0.15000001;stroke-linecap:butt;stroke-linejoin:miter;stroke-miterlimit:10;stroke-dasharray:none;stroke-opacity:1"
         d="m 0,0 0,-0.016 -0.01,0.008 -0.008,-0.008 0,0.016 -3.167,2.064 0,3.32 3.209,-1.793 0,-3.573 L 0,0 Z" /></g><g
       transform="translate(8.1904,8.4014)"
       id="g70"><path
         id="path72"
         style="fill:#f0eff1;fill-opacity:1;fill-rule:nonzero;stroke:none"
         d="m 0,0 -2.576,-1.856 0,3.462 L 0,3.173 0,0 Z" /></g><g
       transform="translate(8.1904,8.4014)"
       id="g74"><path
         id="path76"
         style="fill:none;stroke:#652d90;stroke-width:0.15000001;stroke-linecap:butt;stroke-linejoin:miter;stroke-miterlimit:10;stroke-dasharray:none;stroke-opacity:1"
         d="m 0,0 -2.576,-1.856 0,3.462 L 0,3.173 0,0 Z" /></g><g
       id="g78"><g
         clip-path="url(#clipPath82)"
         id="g80"><g
           transform="translate(12,1.7832)"
           id="g86"><path
             id="path88"
             style="fill:#424242;fill-opacity:1;fill-rule:nonzero;stroke:none"
             d="M 0,0 C -0.47,0 -0.904,0.148 -1.264,0.398 L 1.818,3.48 C 2.068,3.121 2.217,2.687 2.217,2.217 2.217,0.994 1.223,0 0,0 M -1.587,0.672 -1.545,0.63 c -0.013,0.015 -0.027,0.029 -0.042,0.042 m -0.63,1.545 c 0,1.222 0.994,2.217 2.217,2.217 0.47,0 0.904,-0.149 1.264,-0.399 L -1.818,0.953 c -0.25,0.36 -0.399,0.794 -0.399,1.264 M 1.587,3.762 1.545,3.804 C 1.558,3.789 1.572,3.774 1.587,3.762 M 0,5.217 c -1.654,0 -3,-1.346 -3,-3 0,-1.654 1.346,-3 3,-3 1.654,0 3,1.346 3,3 0,1.654 -1.346,3 -3,3" /></g></g></g><g
       id="g90"><g
         clip-path="url(#clipPath94)"
         id="g92"><g
           transform="translate(9.7832,4)"
           id="g98"><path
             id="path100"
             style="fill:#f0eff1;fill-opacity:1;fill-rule:nonzero;stroke:none"
             d="m 0,0 c 0,1.223 0.994,2.217 2.217,2.217 0.47,0 0.904,-0.149 1.263,-0.399 L 0.398,-1.264 C 0.148,-0.904 0,-0.47 0,0" /></g><g
           transform="translate(12,1.7832)"
           id="g102"><path
             id="path104"
             style="fill:#f0eff1;fill-opacity:1;fill-rule:nonzero;stroke:none"
             d="M 0,0 C -0.47,0 -0.904,0.148 -1.264,0.398 L 1.818,3.48 C 2.068,3.121 2.217,2.687 2.217,2.217 2.217,0.994 1.223,0 0,0" /></g></g></g></g></svg>