<?xml version="1.0" encoding="UTF-8" standalone="no"?>
<svg
   xmlns:dc="http://purl.org/dc/elements/1.1/"
   xmlns:cc="http://creativecommons.org/ns#"
   xmlns:rdf="http://www.w3.org/1999/02/22-rdf-syntax-ns#"
   xmlns:svg="http://www.w3.org/2000/svg"
   xmlns="http://www.w3.org/2000/svg"
   viewBox="0 0 20 20"
   height="20"
   width="20"
   xml:space="preserve"
   version="1.1"
   id="svg2"><metadata
     id="metadata8"><rdf:RDF><cc:Work
         rdf:about=""><dc:format>image/svg+xml</dc:format><dc:type
           rdf:resource="http://purl.org/dc/dcmitype/StillImage" /></cc:Work></rdf:RDF></metadata><defs
     id="defs6"><clipPath
       id="clipPath16"
       clipPathUnits="userSpaceOnUse"><path
         id="path18"
         d="M 0,16 16,16 16,0 0,0 0,16 Z" /></clipPath><clipPath
       id="clipPath24"
       clipPathUnits="userSpaceOnUse"><path
         id="path26"
         d="M 0,16 16,16 16,0 0,0 0,16 Z" /></clipPath><clipPath
       id="clipPath42"
       clipPathUnits="userSpaceOnUse"><path
         id="path44"
         d="M 0,16 16,16 16,0 0,0 0,16 Z" /></clipPath><clipPath
       id="clipPath54"
       clipPathUnits="userSpaceOnUse"><path
         id="path56"
         d="M 0,16 16,16 16,0 0,0 0,16 Z" /></clipPath></defs><g
     transform="matrix(1.25,0,0,-1.25,0,20)"
     id="g10"><g
       id="g12"><g
         clip-path="url(#clipPath16)"
         id="g14"><g
           id="g20"><g
             id="g22" /><g
             id="g28"><g
               style="opacity:0"
               id="g30"
               clip-path="url(#clipPath24)"><path
                 id="path32"
                 style="fill:#f6f6f6;fill-opacity:1;fill-rule:nonzero;stroke:none"
                 d="M 16,0 0,0 0,16 16,16 16,0 Z" /></g></g></g></g></g><g
       transform="translate(0.167,7.5742)"
       id="g34"><path
         id="path36"
         style="fill:#f6f6f6;fill-opacity:1;fill-rule:nonzero;stroke:none"
         d="m 0,0 0,5.569 4.884,2.47 4.704,-2.481 0,-5.513 L 5.124,-3.228 0,0 Z" /></g><g
       id="g38"><g
         clip-path="url(#clipPath42)"
         id="g40"><g
           transform="translate(16,1.3623)"
           id="g46"><path
             id="path48"
             style="fill:#f6f6f6;fill-opacity:1;fill-rule:nonzero;stroke:none"
             d="M 0,0 -1.933,2.319 0,4.639 l 0,1.362 -1.688,0 -1.898,-1.696 -1.005,1.204 C -4.875,5.821 -5.295,6 -5.742,6 -6.174,6 -6.589,5.837 -6.882,5.553 -7.186,5.257 -7.362,4.843 -7.363,4.418 -7.364,3.992 -7.195,3.59 -6.851,3.253 L -5.807,2.319 -6.887,1.354 C -7.195,1.049 -7.364,0.646 -7.363,0.221 c 0.001,-0.425 0.177,-0.839 0.481,-1.135 0.293,-0.285 0.709,-0.448 1.14,-0.448 0.448,0 0.869,0.179 1.179,0.524 l 0.977,1.172 1.898,-1.696 1.688,0 L 0,0 Z" /></g></g></g><g
       id="g50"><g
         clip-path="url(#clipPath54)"
         id="g52"><g
           transform="translate(11.6934,3.6816)"
           id="g58"><path
             id="path60"
             style="fill:#a1260d;fill-opacity:1;fill-rule:nonzero;stroke:none"
             d="m 0,0 -1.878,-1.679 c -0.259,-0.255 -0.216,-0.628 0,-0.838 0.21,-0.204 0.641,-0.235 0.854,0 L 0.615,-0.55 3,-2.682 l 0.307,0 L 1.072,0 3.307,2.682 3,2.682 0.615,0.55 -1.024,2.517 c -0.213,0.234 -0.644,0.204 -0.854,0 -0.216,-0.21 -0.259,-0.583 0,-0.838 L 0,0 Z" /></g></g></g><g
       transform="translate(8.1904,8.4014)"
       id="g62"><path
         id="path64"
         style="fill:#652d90;fill-opacity:1;fill-rule:nonzero;stroke:none"
         d="m 0,0 -2.576,-1.856 0,3.462 L 0,3.173 0,0 Z m -3.22,-1.963 0,-0.016 -0.009,0.008 -0.008,-0.008 0,0.016 -3.167,2.065 0,3.319 3.209,-1.793 0,-3.573 -0.025,-0.018 z m 0.025,7.374 3.07,-1.514 -2.864,-1.718 -3.095,1.765 2.889,1.467 z m 3.759,-5.686 0,4.403 -3.713,1.959 -3.874,-1.959 0,-4.403 4.081,-2.571 3.506,2.571 z" /></g><g
       transform="translate(4.9951,13.8125)"
       id="g66"><path
         id="path68"
         style="fill:#f0eff1;fill-opacity:1;fill-rule:nonzero;stroke:none"
         d="M 0,0 3.07,-1.514 0.206,-3.232 -2.889,-1.467 0,0 Z" /></g><g
       transform="translate(4.9951,13.8125)"
       id="g70"><path
         id="path72"
         style="fill:none;stroke:#652d90;stroke-width:0.15000001;stroke-linecap:butt;stroke-linejoin:miter;stroke-miterlimit:10;stroke-dasharray:none;stroke-opacity:1"
         d="M 0,0 3.07,-1.514 0.206,-3.232 -2.889,-1.467 0,0 Z" /></g><g
       transform="translate(4.9707,6.4385)"
       id="g74"><path
         id="path76"
         style="fill:#f0eff1;fill-opacity:1;fill-rule:nonzero;stroke:none"
         d="m 0,0 0,-0.016 -0.01,0.008 -0.008,-0.008 0,0.016 -3.167,2.064 0,3.32 3.209,-1.793 0,-3.573 L 0,0 Z" /></g><g
       transform="translate(4.9707,6.4385)"
       id="g78"><path
         id="path80"
         style="fill:none;stroke:#652d90;stroke-width:0.15000001;stroke-linecap:butt;stroke-linejoin:miter;stroke-miterlimit:10;stroke-dasharray:none;stroke-opacity:1"
         d="m 0,0 0,-0.016 -0.01,0.008 -0.008,-0.008 0,0.016 -3.167,2.064 0,3.32 3.209,-1.793 0,-3.573 L 0,0 Z" /></g><g
       transform="translate(8.1904,8.4014)"
       id="g82"><path
         id="path84"
         style="fill:#f0eff1;fill-opacity:1;fill-rule:nonzero;stroke:none"
         d="m 0,0 -2.576,-1.856 0,3.462 L 0,3.173 0,0 Z" /></g><g
       transform="translate(8.1904,8.4014)"
       id="g86"><path
         id="path88"
         style="fill:none;stroke:#652d90;stroke-width:0.15000001;stroke-linecap:butt;stroke-linejoin:miter;stroke-miterlimit:10;stroke-dasharray:none;stroke-opacity:1"
         d="m 0,0 -2.576,-1.856 0,3.462 L 0,3.173 0,0 Z" /></g></g></svg>