<?xml version="1.0" encoding="UTF-8" standalone="no"?>
<svg
   xmlns:dc="http://purl.org/dc/elements/1.1/"
   xmlns:cc="http://creativecommons.org/ns#"
   xmlns:rdf="http://www.w3.org/1999/02/22-rdf-syntax-ns#"
   xmlns:svg="http://www.w3.org/2000/svg"
   xmlns="http://www.w3.org/2000/svg"
   viewBox="0 0 20 20"
   height="20"
   width="20"
   xml:space="preserve"
   version="1.1"
   id="svg2"><metadata
     id="metadata8"><rdf:RDF><cc:Work
         rdf:about=""><dc:format>image/svg+xml</dc:format><dc:type
           rdf:resource="http://purl.org/dc/dcmitype/StillImage" /></cc:Work></rdf:RDF></metadata><defs
     id="defs6"><clipPath
       id="clipPath16"
       clipPathUnits="userSpaceOnUse"><path
         id="path18"
         d="M 0,16 16,16 16,0 0,0 0,16 Z" /></clipPath><clipPath
       id="clipPath30"
       clipPathUnits="userSpaceOnUse"><path
         id="path32"
         d="M 0,16 16,16 16,0 0,0 0,16 Z" /></clipPath><clipPath
       id="clipPath44"
       clipPathUnits="userSpaceOnUse"><path
         id="path46"
         d="M 0,16 16,16 16,0 0,0 0,16 Z" /></clipPath></defs><g
     transform="matrix(1.25,0,0,-1.25,0,20)"
     id="g10"><g
       id="g12"><g
         clip-path="url(#clipPath16)"
         id="g14"><g
           transform="translate(13.5713,7)"
           id="g20"><path
             id="path22"
             style="fill:#f6f6f6;fill-opacity:1;fill-rule:nonzero;stroke:none"
             d="m 0,0 c -0.276,0 -0.677,-0.055 -1.071,-0.305 -0.17,0.108 -0.339,0.174 -0.5,0.22 l 0,9.085 -12,0 0,-11 9.049,0 c -0.032,-0.156 -0.049,-0.317 -0.049,-0.482 0,-0.594 0.196,-1.188 0.56,-1.657 0.293,-0.354 2.246,-2.529 2.246,-2.529 L -1.468,-7 l 0.909,0 0.3,0.352 c 0,0 1.836,2.159 2.148,2.535 0.342,0.442 0.54,1.037 0.54,1.631 C 2.429,-1.137 1.316,0 0,0" /></g></g></g><path
       id="path24"
       style="fill:#652d90;fill-opacity:1;fill-rule:nonzero;stroke:none"
       d="m 11,15 -4,0 0,-4 4,0 0,4 z" /><g
       id="g26"><g
         clip-path="url(#clipPath30)"
         id="g28"><g
           transform="translate(11,6.9541)"
           id="g34"><path
             id="path36"
             style="fill:#652d90;fill-opacity:1;fill-rule:nonzero;stroke:none"
             d="m 0,0 0,3.046 -10,0 0,-4 8.507,0 C -1.129,-0.468 -0.603,-0.115 0,0" /></g><path
           id="path38"
           style="fill:#652d90;fill-opacity:1;fill-rule:nonzero;stroke:none"
           d="m 5,15 -4,0 0,-4 4,0 0,4 z" /></g></g><g
       id="g40"><g
         clip-path="url(#clipPath44)"
         id="g42"><g
           transform="translate(13.5713,6)"
           id="g48"><path
             id="path50"
             style="fill:#424242;fill-opacity:1;fill-rule:nonzero;stroke:none"
             d="M 0,0 C -0.527,0 -0.86,-0.747 -1.071,-1.25 -1.282,-0.747 -1.616,0 -2.143,0 -2.87,0 -3.571,-0.664 -3.571,-1.482 c 0,-0.375 0.127,-0.756 0.329,-1.018 0.29,-0.35 2.221,-2.5 2.221,-2.5 0,0 1.83,2.15 2.12,2.5 0.203,0.262 0.33,0.643 0.33,1.018 C 1.429,-0.664 0.729,0 0,0" /></g></g></g></g></svg>