<?xml version="1.0" encoding="UTF-8" standalone="no"?>
<svg
   xmlns:dc="http://purl.org/dc/elements/1.1/"
   xmlns:cc="http://creativecommons.org/ns#"
   xmlns:rdf="http://www.w3.org/1999/02/22-rdf-syntax-ns#"
   xmlns:svg="http://www.w3.org/2000/svg"
   xmlns="http://www.w3.org/2000/svg"
   viewBox="0 0 20 20"
   height="20"
   width="20"
   xml:space="preserve"
   version="1.1"
   id="svg2"><metadata
     id="metadata8"><rdf:RDF><cc:Work
         rdf:about=""><dc:format>image/svg+xml</dc:format><dc:type
           rdf:resource="http://purl.org/dc/dcmitype/StillImage" /></cc:Work></rdf:RDF></metadata><defs
     id="defs6"><clipPath
       id="clipPath16"
       clipPathUnits="userSpaceOnUse"><path
         id="path18"
         d="M 0,16 16,16 16,0 0,0 0,16 Z" /></clipPath><clipPath
       id="clipPath28"
       clipPathUnits="userSpaceOnUse"><path
         id="path30"
         d="M 0,16 16,16 16,0 0,0 0,16 Z" /></clipPath><clipPath
       id="clipPath38"
       clipPathUnits="userSpaceOnUse"><path
         id="path40"
         d="M 0,16 16,16 16,0 0,0 0,16 Z" /></clipPath></defs><g
     transform="matrix(1.25,0,0,-1.25,0,20)"
     id="g10"><g
       id="g12"><g
         clip-path="url(#clipPath16)"
         id="g14"><g
           transform="translate(16,4.5)"
           id="g20"><path
             id="path22"
             style="fill:#f6f6f6;fill-opacity:1;fill-rule:nonzero;stroke:none"
             d="m 0,0 c 0,-2.485 -2.015,-4.5 -4.5,-4.5 -2.314,0 -4.198,1.753 -4.449,4 l -7.051,0 0,12 12,0 0,-7.05 C -1.753,4.198 0,2.314 0,0" /></g></g></g><g
       id="g24"><g
         clip-path="url(#clipPath28)"
         id="g26"><path
           id="path32"
           style="fill:#424242;fill-opacity:1;fill-rule:nonzero;stroke:none"
           d="m 5,15 -4,0 0,-4 4,0 0,4 z m 6,0 -4,0 0,-4 4,0 0,4 z M 7.051,5 1,5 1,9 11,9 11,8.95 C 8.92,8.716 7.283,7.081 7.051,5" /></g></g><g
       id="g34"><g
         clip-path="url(#clipPath38)"
         id="g36"><g
           transform="translate(13.3535,3.3535)"
           id="g42"><path
             id="path44"
             style="fill:#e51400;fill-opacity:1;fill-rule:nonzero;stroke:none"
             d="M 0,0 -0.707,-0.707 -1.854,0.439 -3,-0.707 -3.707,0 -2.561,1.146 -3.707,2.293 -3,3 -1.854,1.854 -0.707,3 0,2.293 -1.146,1.146 0,0 Z m -1.854,4.646 c -1.932,0 -3.5,-1.567 -3.5,-3.5 0,-1.932 1.568,-3.5 3.5,-3.5 1.933,0 3.5,1.568 3.5,3.5 0,1.933 -1.567,3.5 -3.5,3.5" /></g></g></g><g
       transform="translate(12.6465,6.3535)"
       id="g46"><path
         id="path48"
         style="fill:#ffffff;fill-opacity:1;fill-rule:nonzero;stroke:none"
         d="M 0,0 -1.146,-1.146 -2.293,0 -3,-0.707 -1.854,-1.854 -3,-3 -2.293,-3.707 -1.146,-2.561 0,-3.707 0.707,-3 -0.439,-1.854 0.707,-0.707 0,0 Z" /></g></g></svg>