<?xml version="1.0" encoding="UTF-8" standalone="no"?>
<svg
   xmlns:dc="http://purl.org/dc/elements/1.1/"
   xmlns:cc="http://creativecommons.org/ns#"
   xmlns:rdf="http://www.w3.org/1999/02/22-rdf-syntax-ns#"
   xmlns:svg="http://www.w3.org/2000/svg"
   xmlns="http://www.w3.org/2000/svg"
   viewBox="0 0 20 20"
   height="20"
   width="20"
   xml:space="preserve"
   version="1.1"
   id="svg2"><metadata
     id="metadata8"><rdf:RDF><cc:Work
         rdf:about=""><dc:format>image/svg+xml</dc:format><dc:type
           rdf:resource="http://purl.org/dc/dcmitype/StillImage" /></cc:Work></rdf:RDF></metadata><defs
     id="defs6"><clipPath
       id="clipPath16"
       clipPathUnits="userSpaceOnUse"><path
         id="path18"
         d="M 0,16 16,16 16,0 0,0 0,16 Z" /></clipPath><clipPath
       id="clipPath32"
       clipPathUnits="userSpaceOnUse"><path
         id="path34"
         d="M 0,16 16,16 16,0 0,0 0,16 Z" /></clipPath><clipPath
       id="clipPath46"
       clipPathUnits="userSpaceOnUse"><path
         id="path48"
         d="M 0,16 16,16 16,0 0,0 0,16 Z" /></clipPath></defs><g
     transform="matrix(1.25,0,0,-1.25,0,20)"
     id="g10"><g
       id="g12"><g
         clip-path="url(#clipPath16)"
         id="g14"><g
           transform="translate(12.5938,7.9688)"
           id="g20"><path
             id="path22"
             style="fill:#f6f6f6;fill-opacity:1;fill-rule:nonzero;stroke:none"
             d="m 0,0 c -0.212,0 -0.406,-0.017 -0.594,-0.04 l 0,8.072 -12,0 0,-11.001 9.087,0 c -0.103,-0.58 -0.082,-1.015 -0.082,-1.015 l -0.005,-3.985 7,0 0,3.993 C 3.406,-0.967 1.532,0 0,0" /></g></g></g><path
       id="path24"
       style="fill:#652d90;fill-opacity:1;fill-rule:nonzero;stroke:none"
       d="m 11,15 -4,0 0,-4 4,0 0,4 z" /><path
       id="path26"
       style="fill:#652d90;fill-opacity:1;fill-rule:nonzero;stroke:none"
       d="m 5,15 -4,0 0,-4 4,0 0,4 z" /><g
       id="g28"><g
         clip-path="url(#clipPath32)"
         id="g30"><g
           transform="translate(9.3809,6)"
           id="g36"><path
             id="path38"
             style="fill:#652d90;fill-opacity:1;fill-rule:nonzero;stroke:none"
             d="m 0,0 c 0.144,0.335 0.347,0.666 0.619,0.961 l 0,0.039 0.033,0 c 0.254,0.265 0.575,0.492 0.967,0.662 l 0,2.338 -10,0 0,-4 8,0 L 0,0 Z" /></g></g></g><path
       id="path40"
       style="fill:#f0eff1;fill-opacity:1;fill-rule:nonzero;stroke:none"
       d="m 12,2 1,0 0,0.959 -1,0 L 12,2 Z" /><g
       id="g42"><g
         clip-path="url(#clipPath46)"
         id="g44"><g
           transform="translate(11.0186,4.4375)"
           id="g50"><path
             id="path52"
             style="fill:#424242;fill-opacity:1;fill-rule:nonzero;stroke:none"
             d="M 0,0 C 0.06,0.729 0.334,1.541 1.575,1.541 2.824,1.541 2.966,0.746 2.979,0 L 3.945,0 C 3.86,1.119 3.802,2.531 1.575,2.531 -0.82,2.531 -0.87,1.125 -1.001,0 L 0,0 Z" /></g><path
           id="path54"
           style="fill:#424242;fill-opacity:1;fill-rule:nonzero;stroke:none"
           d="m 13,2 -1,0 0,1 1,0 0,-1 z m 1,2 -3,0 -1,0 0,-3 5,0 0,3 -1,0 z" /><path
           id="path56"
           style="fill:#f0eff1;fill-opacity:1;fill-rule:nonzero;stroke:none"
           d="m 12,2 1,0 0,1 -1,0 0,-1 z" /></g></g></g></svg>