<?xml version="1.0" encoding="UTF-8" standalone="no"?>
<svg
   xmlns:dc="http://purl.org/dc/elements/1.1/"
   xmlns:cc="http://creativecommons.org/ns#"
   xmlns:rdf="http://www.w3.org/1999/02/22-rdf-syntax-ns#"
   xmlns:svg="http://www.w3.org/2000/svg"
   xmlns="http://www.w3.org/2000/svg"
   viewBox="0 0 20 20"
   height="20"
   width="20"
   xml:space="preserve"
   version="1.1"
   id="svg2"><metadata
     id="metadata8"><rdf:RDF><cc:Work
         rdf:about=""><dc:format>image/svg+xml</dc:format><dc:type
           rdf:resource="http://purl.org/dc/dcmitype/StillImage" /></cc:Work></rdf:RDF></metadata><defs
     id="defs6"><clipPath
       id="clipPath16"
       clipPathUnits="userSpaceOnUse"><path
         id="path18"
         d="M 0,16 16,16 16,0 0,0 0,16 Z" /></clipPath><clipPath
       id="clipPath24"
       clipPathUnits="userSpaceOnUse"><path
         id="path26"
         d="M 0,16 16,16 16,0 0,0 0,16 Z" /></clipPath><clipPath
       id="clipPath46"
       clipPathUnits="userSpaceOnUse"><path
         id="path48"
         d="M 0,16 16,16 16,0 0,0 0,16 Z" /></clipPath><clipPath
       id="clipPath66"
       clipPathUnits="userSpaceOnUse"><path
         id="path68"
         d="M 0,16 16,16 16,0 0,0 0,16 Z" /></clipPath></defs><g
     transform="matrix(1.25,0,0,-1.25,0,20)"
     id="g10"><g
       id="g12"><g
         clip-path="url(#clipPath16)"
         id="g14"><g
           id="g20"><g
             id="g22" /><g
             id="g28"><g
               style="opacity:0"
               id="g30"
               clip-path="url(#clipPath24)"><path
                 id="path32"
                 style="fill:#f6f6f6;fill-opacity:1;fill-rule:nonzero;stroke:none"
                 d="M 16,0 0,0 0,16 16,16 16,0 Z" /></g></g></g><g
           transform="translate(4,7.1177)"
           id="g34"><path
             id="path36"
             style="fill:#f6f6f6;fill-opacity:1;fill-rule:nonzero;stroke:none"
             d="M 0,0 0,0.882 C 0,1.58 -0.24,2.312 -0.617,2.885 -0.24,3.459 0,4.19 0,4.882 l 0,1 1,0 0,3 -1,0 C -1.048,8.882 -1.808,8.631 -2.323,8.113 -3.005,7.429 -3.002,6.517 -3,5.882 L -3,4.884 C -3.021,4.883 -4,4.819 -4,4.819 L -4,1.882 -3.992,0.94 c 0,0 0.973,-0.058 0.992,-0.06 l 0,-1.087 c -0.002,-0.544 -0.005,-1.458 0.677,-2.141 0.515,-0.518 1.275,-0.77 2.323,-0.77 l 1,0 0,2 0.078,0.967 -1,0 C 0.054,-0.127 0.02,-0.058 0,0" /></g><g
           transform="translate(12,8)"
           id="g38"><path
             id="path40"
             style="fill:#f6f6f6;fill-opacity:1;fill-rule:nonzero;stroke:none"
             d="m 0,0 c -0.348,0 -0.679,-0.059 -1,-0.142 l 0,0.14 C -0.979,0 0,0.059 0,0.059 L 0,3 -0.029,3.941 c 0,0 -0.959,0.06 -0.971,0.061 l 0,1.087 C -0.998,5.634 -0.994,6.546 -1.677,7.231 -2.192,7.749 -2.952,8 -4,8 L -5,8 -5,6 -4.903,4.99 -4,4.99 -4,4 C -4,3.308 -3.76,2.577 -3.383,2.002 -3.76,1.43 -4,0.698 -4,0 l 0,-0.887 C -4.012,-0.935 -4.024,-0.996 -4,-1 l -1,0 0,-3 1,0 c 0,-2.206 1.794,-4 4,-4 2.206,0 4,1.794 4,4 0,2.206 -1.794,4 -4,4" /></g></g></g><g
       id="g42"><g
         clip-path="url(#clipPath46)"
         id="g44"><g
           transform="translate(12,1.7832)"
           id="g50"><path
             id="path52"
             style="fill:#424242;fill-opacity:1;fill-rule:nonzero;stroke:none"
             d="M 0,0 C -0.47,0 -0.904,0.148 -1.264,0.398 L 1.818,3.48 C 2.068,3.121 2.217,2.687 2.217,2.217 2.217,0.994 1.223,0 0,0 M -1.587,0.672 -1.545,0.63 c -0.013,0.015 -0.027,0.029 -0.042,0.042 m -0.63,1.545 c 0,1.222 0.994,2.217 2.217,2.217 0.47,0 0.904,-0.149 1.264,-0.399 L -1.818,0.953 c -0.25,0.36 -0.399,0.794 -0.399,1.264 M 1.587,3.762 1.545,3.804 C 1.558,3.789 1.572,3.774 1.587,3.762 M 0,5.217 c -1.654,0 -3,-1.346 -3,-3 0,-1.654 1.346,-3 3,-3 1.654,0 3,1.346 3,3 0,1.654 -1.346,3 -3,3" /></g><g
           transform="translate(10,7.4438)"
           id="g54"><path
             id="path56"
             style="fill:#424242;fill-opacity:1;fill-rule:nonzero;stroke:none"
             d="m 0,0 0,0.556 c 0,0.947 0.678,0.981 1,1 l 0,2 c -0.297,0.02 -1,0.031 -1,1 l 0,1 c 0,0.834 0.083,2 -2,2 l 0,-1 c 0.416,0 1,-0.16 1,-1 l 0,-1 c 0,-0.832 0.496,-1.73 1,-2 -0.504,-0.262 -1,-1.166 -1,-2 l 0,-1 c 0,0 -0.167,-1 -1,-1 l 0,-1 c 0.055,0 0.093,0.01 0.146,0.011 C -1.582,-1.395 -0.906,-0.529 0,0" /></g><g
           transform="translate(2,13)"
           id="g58"><path
             id="path60"
             style="fill:#424242;fill-opacity:1;fill-rule:nonzero;stroke:none"
             d="m 0,0 0,-1 c 0,-0.969 -0.703,-0.98 -1,-1 l 0,-2 c 0.322,-0.02 1,-0.053 1,-1 l 0,-1 c 0,-0.834 -0.083,-2 2,-2 l 0,1 c -0.833,0 -1,1 -1,1 l 0,1 c 0,0.834 -0.496,1.738 -1,2 0.504,0.27 1,1.168 1,2 L 1,0 C 1,0.84 1.584,1 2,1 L 2,2 C -0.083,2 0,0.834 0,0" /></g></g></g><g
       id="g62"><g
         clip-path="url(#clipPath66)"
         id="g64"><g
           transform="translate(9.7832,4)"
           id="g70"><path
             id="path72"
             style="fill:#f0eff1;fill-opacity:1;fill-rule:nonzero;stroke:none"
             d="m 0,0 c 0,1.223 0.994,2.217 2.217,2.217 0.47,0 0.904,-0.149 1.263,-0.399 L 0.398,-1.264 C 0.148,-0.904 0,-0.47 0,0" /></g><g
           transform="translate(12,1.7832)"
           id="g74"><path
             id="path76"
             style="fill:#f0eff1;fill-opacity:1;fill-rule:nonzero;stroke:none"
             d="M 0,0 C -0.47,0 -0.904,0.148 -1.264,0.398 L 1.818,3.48 C 2.068,3.121 2.217,2.687 2.217,2.217 2.217,0.994 1.223,0 0,0" /></g></g></g></g></svg>