<?xml version="1.0" encoding="UTF-8" standalone="no"?>
<svg
   xmlns:dc="http://purl.org/dc/elements/1.1/"
   xmlns:cc="http://creativecommons.org/ns#"
   xmlns:rdf="http://www.w3.org/1999/02/22-rdf-syntax-ns#"
   xmlns:svg="http://www.w3.org/2000/svg"
   xmlns="http://www.w3.org/2000/svg"
   viewBox="0 0 20 20"
   height="20"
   width="20"
   xml:space="preserve"
   version="1.1"
   id="svg2"><metadata
     id="metadata8"><rdf:RDF><cc:Work
         rdf:about=""><dc:format>image/svg+xml</dc:format><dc:type
           rdf:resource="http://purl.org/dc/dcmitype/StillImage" /></cc:Work></rdf:RDF></metadata><defs
     id="defs6"><clipPath
       id="clipPath16"
       clipPathUnits="userSpaceOnUse"><path
         id="path18"
         d="M 0,16 16,16 16,0 0,0 0,16 Z" /></clipPath><clipPath
       id="clipPath28"
       clipPathUnits="userSpaceOnUse"><path
         id="path30"
         d="M 0,16 16,16 16,0 0,0 0,16 Z" /></clipPath></defs><g
     transform="matrix(1.25,0,0,-1.25,0,20)"
     id="g10"><g
       id="g12"><g
         clip-path="url(#clipPath16)"
         id="g14"><g
           transform="translate(7,5)"
           id="g20"><path
             id="path22"
             style="fill:#f6f6f6;fill-opacity:1;fill-rule:nonzero;stroke:none"
             d="m 0,0 -1,0 c -10e-4,0.02 0,1 0,1 0,0.535 -0.741,1.612 -1,2 0.259,0.389 1,1.466 1,2 l 0,1 1,0 0,3 -1,0 C -2.969,8.979 -4,7.723 -4,6 -4,6 -3.996,5.035 -4,5 L -5,4 -5,2 -4,1 c 0.003,-0.03 0,-1 0,-1 0,-1.71 1.317,-2.979 3.286,-3 L 0,-3 0,0 Z M 2,0 3,0 C 3.001,0.02 3,1 3,1 3,1.535 3.741,2.612 4,3 3.741,3.389 3,4.466 3,5 L 3,6 2,6 2,9 3,9 C 4.969,8.979 6,7.723 6,6 6,6 5.996,5.035 6,5 L 7,4 7,2 6,1 C 5.997,0.97 6,0 6,0 6,-1.71 4.969,-2.979 3,-3 l -1,0 0,3 z" /></g></g></g><g
       id="g24"><g
         clip-path="url(#clipPath28)"
         id="g26"><g
           transform="translate(5,5)"
           id="g32"><path
             id="path34"
             style="fill:#424242;fill-opacity:1;fill-rule:nonzero;stroke:none"
             d="m 0,0 0,1 c 0,0.834 -0.496,1.737 -1,2 0.504,0.269 1,1.167 1,2 L 0,6 C 0,6.84 0.584,7 1,7 L 1,8 C -1.083,8 -1,6.833 -1,6 L -1,5 C -1,4.031 -1.703,4.019 -2,4 l 0,-2 c 0.322,-0.02 1,-0.053 1,-1 l 0,-1 c 0,-0.834 -0.083,-2 2,-2 l 0,1 C 0.167,-1 0,0 0,0 M 6,0 6,1 C 6,1.834 6.496,2.737 7,3 6.496,3.269 6,4.167 6,5 L 6,6 C 6,6.84 5.416,7 5,7 L 5,8 C 7.083,8 7,6.833 7,6 L 7,5 C 7,4.031 7.703,4.019 8,4 L 8,2 C 7.678,1.98 7,1.947 7,1 L 7,0 C 7,-0.834 7.083,-2 5,-2 l 0,1 c 0.833,0 1,1 1,1" /></g></g></g></g></svg>