<?xml version="1.0" encoding="UTF-8" standalone="no"?>
<svg
   xmlns:dc="http://purl.org/dc/elements/1.1/"
   xmlns:cc="http://creativecommons.org/ns#"
   xmlns:rdf="http://www.w3.org/1999/02/22-rdf-syntax-ns#"
   xmlns:svg="http://www.w3.org/2000/svg"
   xmlns="http://www.w3.org/2000/svg"
   viewBox="0 0 20 20"
   height="20"
   width="20"
   xml:space="preserve"
   version="1.1"
   id="svg2"><metadata
     id="metadata8"><rdf:RDF><cc:Work
         rdf:about=""><dc:format>image/svg+xml</dc:format><dc:type
           rdf:resource="http://purl.org/dc/dcmitype/StillImage" /></cc:Work></rdf:RDF></metadata><defs
     id="defs6"><clipPath
       id="clipPath16"
       clipPathUnits="userSpaceOnUse"><path
         id="path18"
         d="M 0,16 16,16 16,0 0,0 0,16 Z" /></clipPath><clipPath
       id="clipPath24"
       clipPathUnits="userSpaceOnUse"><path
         id="path26"
         d="M 0,16 16,16 16,0 0,0 0,16 Z" /></clipPath><clipPath
       id="clipPath46"
       clipPathUnits="userSpaceOnUse"><path
         id="path48"
         d="M 0,16 16,16 16,0 0,0 0,16 Z" /></clipPath></defs><g
     transform="matrix(1.25,0,0,-1.25,0,20)"
     id="g10"><g
       id="g12"><g
         clip-path="url(#clipPath16)"
         id="g14"><g
           id="g20"><g
             id="g22" /><g
             id="g28"><g
               style="opacity:0"
               id="g30"
               clip-path="url(#clipPath24)"><path
                 id="path32"
                 style="fill:#f6f6f6;fill-opacity:1;fill-rule:nonzero;stroke:none"
                 d="M 16,0 0,0 0,16 16,16 16,0 Z" /></g></g></g><g
           transform="translate(4,7.1177)"
           id="g34"><path
             id="path36"
             style="fill:#f6f6f6;fill-opacity:1;fill-rule:nonzero;stroke:none"
             d="M 0,0 0,0.882 C 0,1.58 -0.24,2.312 -0.617,2.885 -0.24,3.459 0,4.19 0,4.882 l 0,1 1,0 0,3 -1,0 C -1.048,8.882 -1.808,8.631 -2.323,8.113 -3.005,7.429 -3.002,6.517 -3,5.882 L -3,4.884 C -3.021,4.883 -4,4.819 -4,4.819 L -4,1.882 -3.992,0.94 c 0,0 0.973,-0.058 0.992,-0.06 l 0,-1.087 c -0.002,-0.544 -0.005,-1.458 0.677,-2.141 0.515,-0.518 1.275,-0.77 2.323,-0.77 l 1,0 0,2 0.078,0.967 -1,0 C 0.054,-0.127 0.02,-0.058 0,0" /></g><g
           transform="translate(9,3.4375)"
           id="g38"><path
             id="path40"
             style="fill:#f6f6f6;fill-opacity:1;fill-rule:nonzero;stroke:none"
             d="m 0,0 0,-3.438 7,0 0,5.001 -0.08,0 C 6.796,2.736 6.349,4.531 3.594,4.531 2.948,4.531 2.428,4.437 2,4.284 l 0,0.277 c 0.021,0.001 1,0.06 1,0.06 L 3,7.563 2.971,8.504 c 0,0 -0.959,0.06 -0.971,0.06 l 0,1.087 c 0.002,0.546 0.006,1.458 -0.677,2.142 -0.515,0.518 -1.275,0.77 -2.323,0.77 l -1,0 0,-2 0.097,-1.011 0.903,0 0,-0.989 C -1,7.87 -0.76,7.139 -0.383,6.565 -0.76,5.992 -1,5.26 -1,4.563 L -1,3.675 C -1.012,3.628 -1.024,3.567 -1,3.563 l -1,0 0,-1.635 -0.043,-0.063 0.148,-1.251 0.835,-0.05 c 0,0 0.154,-0.003 0.155,-0.003 0.186,0 0.514,0.018 0.876,0.101 L 0,0 Z" /></g></g></g><g
       id="g42"><g
         clip-path="url(#clipPath46)"
         id="g44"><g
           transform="translate(2,13)"
           id="g50"><path
             id="path52"
             style="fill:#424242;fill-opacity:1;fill-rule:nonzero;stroke:none"
             d="m 0,0 0,-1 c 0,-0.969 -0.703,-0.98 -1,-1 l 0,-2 c 0.322,-0.02 1,-0.053 1,-1 l 0,-1 c 0,-0.834 -0.083,-2 2,-2 l 0,1 c -0.833,0 -1,1 -1,1 l 0,1 c 0,0.834 -0.496,1.738 -1,2 0.504,0.27 1,1.168 1,2 L 1,0 C 1,0.84 1.584,1 2,1 L 2,2 C -0.083,2 0,0.834 0,0" /></g><g
           transform="translate(10,7.1147)"
           id="g54"><path
             id="path56"
             style="fill:#424242;fill-opacity:1;fill-rule:nonzero;stroke:none"
             d="m 0,0 0,0.885 c 0,0.948 0.678,0.981 1,1 l 0,2 c -0.297,0.02 -1,0.032 -1,1 l 0,1 c 0,0.834 0.083,2 -2,2 l 0,-1 c 0.416,0 1,-0.16 1,-1 l 0,-1 c 0,-0.832 0.496,-1.73 1,-2 -0.504,-0.261 -1,-1.166 -1,-2 l 0,-1 c 0,0 -0.167,-1 -1,-1 L -2,-2.053 -2.006,-2.061 -2,-2.115 c 0,0 0.505,-0.03 0.994,0.141 0.002,0 0.004,0 0.006,10e-4 l 0,0.001 c 0.041,0.021 0.07,0.05 0.109,0.073 C -0.794,-1.297 -0.582,-0.561 0,0" /></g><g
           transform="translate(14,4)"
           id="g58"><path
             id="path60"
             style="fill:#424242;fill-opacity:1;fill-rule:nonzero;stroke:none"
             d="m 0,0 -3,0 -1,0 0,-3 5,0 0,3 -1,0 z" /></g><g
           transform="translate(11.0186,4.4375)"
           id="g62"><path
             id="path64"
             style="fill:#424242;fill-opacity:1;fill-rule:nonzero;stroke:none"
             d="M 0,0 C 0.06,0.729 0.334,1.541 1.575,1.541 2.824,1.541 2.966,0.746 2.979,0 L 3.945,0 C 3.86,1.119 3.802,2.531 1.575,2.531 -0.82,2.531 -0.87,1.125 -1.001,0 L 0,0 Z" /></g></g></g><path
       id="path66"
       style="fill:#f0eff1;fill-opacity:1;fill-rule:nonzero;stroke:none"
       d="m 12,2 1,0 0,1 -1,0 0,-1 z" /></g></svg>