<?xml version="1.0" encoding="UTF-8" standalone="no"?>
<svg
   xmlns:dc="http://purl.org/dc/elements/1.1/"
   xmlns:cc="http://creativecommons.org/ns#"
   xmlns:rdf="http://www.w3.org/1999/02/22-rdf-syntax-ns#"
   xmlns:svg="http://www.w3.org/2000/svg"
   xmlns="http://www.w3.org/2000/svg"
   viewBox="0 0 20 20"
   height="20"
   width="20"
   xml:space="preserve"
   version="1.1"
   id="svg2"><metadata
     id="metadata8"><rdf:RDF><cc:Work
         rdf:about=""><dc:format>image/svg+xml</dc:format><dc:type
           rdf:resource="http://purl.org/dc/dcmitype/StillImage" /></cc:Work></rdf:RDF></metadata><defs
     id="defs6"><clipPath
       id="clipPath16"
       clipPathUnits="userSpaceOnUse"><path
         id="path18"
         d="M 0,16 16,16 16,0 0,0 0,16 Z" /></clipPath><clipPath
       id="clipPath24"
       clipPathUnits="userSpaceOnUse"><path
         id="path26"
         d="M 0,16 16,16 16,0 0,0 0,16 Z" /></clipPath><clipPath
       id="clipPath42"
       clipPathUnits="userSpaceOnUse"><path
         id="path44"
         d="M 0,16 16,16 16,0 0,0 0,16 Z" /></clipPath><clipPath
       id="clipPath66"
       clipPathUnits="userSpaceOnUse"><path
         id="path68"
         d="M 0,16 16,16 16,0 0,0 0,16 Z" /></clipPath></defs><g
     transform="matrix(1.25,0,0,-1.25,0,20)"
     id="g10"><g
       id="g12"><g
         clip-path="url(#clipPath16)"
         id="g14"><g
           id="g20"><g
             id="g22" /><g
             id="g28"><g
               style="opacity:0"
               id="g30"
               clip-path="url(#clipPath24)"><path
                 id="path32"
                 style="fill:#f6f6f6;fill-opacity:1;fill-rule:nonzero;stroke:none"
                 d="M 16,0 0,0 0,16 16,16 16,0 Z" /></g></g></g><g
           transform="translate(16,16)"
           id="g34"><path
             id="path36"
             style="fill:#f6f6f6;fill-opacity:1;fill-rule:nonzero;stroke:none"
             d="m 0,0 -11,0 0,-4 -1,0 c -1.048,0 -1.808,-0.251 -2.323,-0.769 C -15.005,-5.454 -15.002,-6.366 -15,-7 l 0,-0.998 C -15.021,-8 -16,-8.063 -16,-8.063 l 0,-2.937 0.008,-0.942 c 0,0 0.973,-0.059 0.992,-0.06 l 0,-1.087 c -0.002,-0.545 -0.005,-1.458 0.677,-2.141 0.515,-0.518 1.275,-0.77 2.323,-0.77 l 1,0 0,2 0.078,0.967 -1,0 c -0.024,0.023 -0.058,0.093 -0.078,0.15 l 0,0.883 c 0,0.697 -0.24,1.43 -0.617,2.003 C -12.24,-9.424 -12,-8.692 -12,-8 l 0,1 1,0 0,2 2,0 0,-1 0.097,-1.01 0.903,0 0,-0.99 c 0,-0.692 0.24,-1.424 0.617,-1.997 C -7.76,-10.57 -8,-11.303 -8,-12 l 0,-0.888 c -0.012,-0.047 -0.024,-0.107 0,-0.112 l -1,0 0,-3 1,0 c 1.048,0 1.808,0.252 2.323,0.77 0.683,0.683 0.679,1.596 0.677,2.23 l 0,0.998 c 0.002,0 0.019,0.001 0.033,0.002 L 0,-12 0,0 Z" /></g></g></g><g
       id="g38"><g
         clip-path="url(#clipPath42)"
         id="g40"><g
           transform="translate(10,8)"
           id="g46"><path
             id="path48"
             style="fill:#424242;fill-opacity:1;fill-rule:nonzero;stroke:none"
             d="m 0,0 0,1 c 0,0.834 0.083,2 -2,2 l 0,-1 c 0.416,0 1,-0.16 1,-1 l 0,-1 c 0,-0.832 0.496,-1.73 1,-2 -0.504,-0.262 -1,-1.166 -1,-2 l 0,-1 c 0,0 -0.167,-1 -1,-1 l 0,-1 c 2.083,0 2,1.166 2,2 l 0,1 c 0,0.947 0.678,0.98 1,1 l 0,2 C 0.703,-0.98 0,-0.969 0,0" /></g><g
           transform="translate(2,9)"
           id="g50"><path
             id="path52"
             style="fill:#424242;fill-opacity:1;fill-rule:nonzero;stroke:none"
             d="m 0,0 0,-1 c 0,-0.969 -0.703,-0.98 -1,-1 l 0,-2 c 0.322,-0.02 1,-0.053 1,-1 l 0,-1 c 0,-0.834 -0.083,-2 2,-2 l 0,1 c -0.833,0 -1,1 -1,1 l 0,1 c 0,0.834 -0.496,1.738 -1,2 0.504,0.27 1,1.168 1,2 L 1,0 C 1,0.84 1.584,1 2,1 L 2,2 C -0.083,2 0,0.834 0,0" /></g><path
           id="path54"
           style="fill:#424242;fill-opacity:1;fill-rule:nonzero;stroke:none"
           d="m 12,5 1,0 0,1 -1,0 0,-1 z" /><path
           id="path56"
           style="fill:#424242;fill-opacity:1;fill-rule:nonzero;stroke:none"
           d="m 14,5 1,0 0,1 -1,0 0,-1 z" /><g
           transform="translate(6,15)"
           id="g58"><path
             id="path60"
             style="fill:#424242;fill-opacity:1;fill-rule:nonzero;stroke:none"
             d="m 0,0 0,-3 1,0 0,2 7,0 0,-7 1,0 0,8 -9,0 z" /></g></g></g><g
       id="g62"><g
         clip-path="url(#clipPath66)"
         id="g64"><g
           transform="translate(7,14)"
           id="g70"><path
             id="path72"
             style="fill:#f0eff1;fill-opacity:1;fill-rule:nonzero;stroke:none"
             d="m 0,0 0,-2 1,0 C 2.048,-2 2.808,-2.251 3.323,-2.769 4.006,-3.454 4.002,-4.366 4,-4.911 L 4,-5.998 C 4.012,-5.999 4.971,-6.059 4.971,-6.059 L 5,-7 7,-7 7,0 0,0 Z" /></g></g></g></g></svg>