<?xml version="1.0" encoding="UTF-8" standalone="no"?>
<svg
   xmlns:dc="http://purl.org/dc/elements/1.1/"
   xmlns:cc="http://creativecommons.org/ns#"
   xmlns:rdf="http://www.w3.org/1999/02/22-rdf-syntax-ns#"
   xmlns:svg="http://www.w3.org/2000/svg"
   xmlns="http://www.w3.org/2000/svg"
   viewBox="0 0 20 20"
   height="20"
   width="20"
   xml:space="preserve"
   version="1.1"
   id="svg2"><metadata
     id="metadata8"><rdf:RDF><cc:Work
         rdf:about=""><dc:format>image/svg+xml</dc:format><dc:type
           rdf:resource="http://purl.org/dc/dcmitype/StillImage" /></cc:Work></rdf:RDF></metadata><defs
     id="defs6"><clipPath
       id="clipPath16"
       clipPathUnits="userSpaceOnUse"><path
         id="path18"
         d="M 0,16 16,16 16,0 0,0 0,16 Z" /></clipPath><clipPath
       id="clipPath24"
       clipPathUnits="userSpaceOnUse"><path
         id="path26"
         d="M 0,16 16,16 16,0 0,0 0,16 Z" /></clipPath><clipPath
       id="clipPath46"
       clipPathUnits="userSpaceOnUse"><path
         id="path48"
         d="M 0,16 16,16 16,0 0,0 0,16 Z" /></clipPath></defs><g
     transform="matrix(1.25,0,0,-1.25,0,20)"
     id="g10"><g
       id="g12"><g
         clip-path="url(#clipPath16)"
         id="g14"><g
           id="g20"><g
             id="g22" /><g
             id="g28"><g
               style="opacity:0"
               id="g30"
               clip-path="url(#clipPath24)"><path
                 id="path32"
                 style="fill:#f6f6f6;fill-opacity:1;fill-rule:nonzero;stroke:none"
                 d="M 16,0 0,0 0,16 16,16 16,0 Z" /></g></g></g><g
           transform="translate(1,13)"
           id="g34"><path
             id="path36"
             style="fill:#f6f6f6;fill-opacity:1;fill-rule:nonzero;stroke:none"
             d="m 0,0 c 0,0 0.004,-0.965 0,-1 l -1,-1 0,-2 1,-1 C 0.003,-5.029 0,-6 0,-6 0,-7.709 1.317,-8.979 3.286,-9 L 4,-9 4,-6 3,-6 c -10e-4,0.021 0,1 0,1 0,0.537 -0.741,1.613 -1,2 0.259,0.389 1,1.467 1,2 L 3,0 4,0 4,3 3,3 C 1.031,2.979 0,1.723 0,0" /></g><g
           transform="translate(11,7)"
           id="g38"><path
             id="path40"
             style="fill:#f6f6f6;fill-opacity:1;fill-rule:nonzero;stroke:none"
             d="M 0,0 C 0,0 -0.003,0.971 0,1 L 1,2 1,4 0,5 c -0.004,0.035 0,1 0,1 0,1.723 -1.031,2.979 -3,3 l -1,0 0,-3 1,0 0,-1 C -3,4.467 -2.259,3.389 -2,3 -2.259,2.613 -3,1.537 -3,1 -3,1 -2.999,0.021 -3,0 l -1,0 0,-3 1,0 c 0.371,0.004 0.696,0.065 1,0.152 L -2,-7 5,-7 5,0 0,0 Z" /></g></g></g><g
       id="g42"><g
         clip-path="url(#clipPath46)"
         id="g44"><g
           transform="translate(2,13)"
           id="g50"><path
             id="path52"
             style="fill:#424242;fill-opacity:1;fill-rule:nonzero;stroke:none"
             d="m 0,0 0,-1 c 0,-0.969 -0.703,-0.98 -1,-1 l 0,-2 c 0.322,-0.02 1,-0.053 1,-1 l 0,-1 c 0,-0.834 -0.083,-2 2,-2 l 0,1 c -0.833,0 -1,1 -1,1 l 0,1 c 0,0.834 -0.496,1.738 -1,2 0.504,0.27 1,1.168 1,2 L 1,0 C 1,0.84 1.584,1 2,1 L 2,2 C -0.083,2 0,0.834 0,0" /></g><g
           transform="translate(10,8)"
           id="g54"><path
             id="path56"
             style="fill:#424242;fill-opacity:1;fill-rule:nonzero;stroke:none"
             d="M 0,0 C 0,0.947 0.678,0.98 1,1 L 1,3 C 0.703,3.02 0,3.031 0,4 l 0,1 c 0,0.834 0.083,2 -2,2 l 0,-1 c 0.416,0 1,-0.16 1,-1 L -1,4 C -1,3.168 -0.504,2.27 0,2 -0.504,1.738 -1,0.834 -1,0 l 0,-1 1,0 0,1 z" /></g><g
           transform="translate(9,7)"
           id="g58"><path
             id="path60"
             style="fill:#424242;fill-opacity:1;fill-rule:nonzero;stroke:none"
             d="m 0,0 c 0,0 -0.167,-1 -1,-1 l 0,-1 c 0.423,0 0.737,0.058 1,0.142 L 0,0 Z" /></g><g
           transform="translate(14,3)"
           id="g62"><path
             id="path64"
             style="fill:#424242;fill-opacity:1;fill-rule:nonzero;stroke:none"
             d="M 0,0 -1,-1 -1,0.5 -2.5,-1 -3,-0.5 -1.5,1 -3,1 -2,2 0,2 0,0 Z m -4,-2 5,0 0,5 -5,0 0,-5 z" /></g></g></g><g
       transform="translate(14,5)"
       id="g66"><path
         id="path68"
         style="fill:#f0eff1;fill-opacity:1;fill-rule:nonzero;stroke:none"
         d="M 0,0 0,-2 -1,-3 -1,-1.5 -2.5,-3 -3,-2.5 -1.5,-1 -3,-1 -2,0 0,0 Z" /></g></g></svg>