<?xml version="1.0" encoding="UTF-8" standalone="no"?>
<svg
   xmlns:dc="http://purl.org/dc/elements/1.1/"
   xmlns:cc="http://creativecommons.org/ns#"
   xmlns:rdf="http://www.w3.org/1999/02/22-rdf-syntax-ns#"
   xmlns:svg="http://www.w3.org/2000/svg"
   xmlns="http://www.w3.org/2000/svg"
   viewBox="0 0 20 20"
   height="20"
   width="20"
   xml:space="preserve"
   version="1.1"
   id="svg2"><metadata
     id="metadata8"><rdf:RDF><cc:Work
         rdf:about=""><dc:format>image/svg+xml</dc:format><dc:type
           rdf:resource="http://purl.org/dc/dcmitype/StillImage" /></cc:Work></rdf:RDF></metadata><defs
     id="defs6"><clipPath
       id="clipPath16"
       clipPathUnits="userSpaceOnUse"><path
         id="path18"
         d="M 0,16 16,16 16,0 0,0 0,16 Z" /></clipPath><clipPath
       id="clipPath24"
       clipPathUnits="userSpaceOnUse"><path
         id="path26"
         d="M 0,16 16,16 16,0 0,0 0,16 Z" /></clipPath><clipPath
       id="clipPath46"
       clipPathUnits="userSpaceOnUse"><path
         id="path48"
         d="M 0,16 16,16 16,0 0,0 0,16 Z" /></clipPath></defs><g
     transform="matrix(1.25,0,0,-1.25,0,20)"
     id="g10"><g
       id="g12"><g
         clip-path="url(#clipPath16)"
         id="g14"><g
           id="g20"><g
             id="g22" /><g
             id="g28"><g
               style="opacity:0"
               id="g30"
               clip-path="url(#clipPath24)"><path
                 id="path32"
                 style="fill:#f6f6f6;fill-opacity:1;fill-rule:nonzero;stroke:none"
                 d="M 16,0 0,0 0,16 16,16 16,0 Z" /></g></g></g><g
           transform="translate(1,13)"
           id="g34"><path
             id="path36"
             style="fill:#f6f6f6;fill-opacity:1;fill-rule:nonzero;stroke:none"
             d="m 0,0 c 0,0 0.004,-0.965 0,-1 l -1,-1 0,-2 1,-1 C 0.003,-5.029 0,-6 0,-6 0,-7.709 1.317,-8.979 3.286,-9 L 4,-9 4,-6 3,-6 c -10e-4,0.021 0,1 0,1 0,0.537 -0.741,1.613 -1,2 0.259,0.389 1,1.467 1,2 L 3,0 4,0 4,3 3,3 C 1.031,2.979 0,1.723 0,0" /></g><g
           transform="translate(13.5713,7)"
           id="g38"><path
             id="path40"
             style="fill:#f6f6f6;fill-opacity:1;fill-rule:nonzero;stroke:none"
             d="M 0,0 C -0.276,0 -0.677,-0.055 -1.071,-0.305 -1.466,-0.055 -1.866,0 -2.143,0 -2.29,0 -2.434,-0.019 -2.575,-0.046 c 0,0.016 0.004,0.03 0.004,0.046 0,0 -0.003,0.971 0,1 l 1,1 0,2 -1,1 c -0.004,0.035 0,1 0,1 0,1.723 -1.032,2.979 -3,3 l -1,0 0,-3 1,0 0,-1 c 0,-0.533 0.741,-1.611 1,-2 -0.259,-0.387 -1,-1.463 -1,-2 0,0 10e-4,-0.979 0,-1 l -1,0 0,-3 1,0 c 0.382,0.004 0.718,0.068 1.029,0.16 0.063,-0.47 0.24,-0.925 0.531,-1.299 0.293,-0.354 2.246,-2.529 2.246,-2.529 L -1.468,-7 l 0.909,0 0.3,0.352 c 0,0 1.836,2.159 2.148,2.535 0.342,0.442 0.54,1.037 0.54,1.631 C 2.429,-1.137 1.316,0 0,0" /></g></g></g><g
       id="g42"><g
         clip-path="url(#clipPath46)"
         id="g44"><g
           transform="translate(2,13)"
           id="g50"><path
             id="path52"
             style="fill:#424242;fill-opacity:1;fill-rule:nonzero;stroke:none"
             d="m 0,0 0,-1 c 0,-0.969 -0.703,-0.98 -1,-1 l 0,-2 c 0.322,-0.02 1,-0.053 1,-1 l 0,-1 c 0,-0.834 -0.083,-2 2,-2 l 0,1 c -0.833,0 -1,1 -1,1 l 0,1 c 0,0.834 -0.496,1.738 -1,2 0.504,0.27 1,1.168 1,2 L 1,0 C 1,0.84 1.584,1 2,1 L 2,2 C -0.083,2 0,0.834 0,0" /></g><g
           transform="translate(9.9893,6.4912)"
           id="g54"><path
             id="path56"
             style="fill:#424242;fill-opacity:1;fill-rule:nonzero;stroke:none"
             d="m 0,0 c 0.01,0.175 0.011,0.348 0.011,0.509 l 0,1 c 0,0.947 0.677,0.98 1,1 l 0,2 c -0.297,0.019 -1,0.031 -1,1 l 0,1 c 0,0.834 0.083,2 -2,2 l 0,-1 c 0.416,0 1,-0.16 1,-1 l 0,-1 c 0,-0.832 0.496,-1.731 1,-2 -0.504,-0.262 -1,-1.166 -1,-2 l 0,-1 c 0,0 -0.167,-1 -1,-1 l 0,-1 c 0.473,0 0.823,0.066 1.099,0.169 C -0.741,-0.791 -0.425,-0.328 0,0" /></g><g
           transform="translate(13.5713,6)"
           id="g58"><path
             id="path60"
             style="fill:#424242;fill-opacity:1;fill-rule:nonzero;stroke:none"
             d="M 0,0 C -0.527,0 -0.86,-0.747 -1.071,-1.25 -1.282,-0.747 -1.616,0 -2.143,0 -2.87,0 -3.571,-0.664 -3.571,-1.482 c 0,-0.375 0.127,-0.756 0.329,-1.018 0.29,-0.35 2.221,-2.5 2.221,-2.5 0,0 1.83,2.15 2.12,2.5 0.203,0.262 0.33,0.643 0.33,1.018 C 1.429,-0.664 0.729,0 0,0" /></g></g></g></g></svg>