<?xml version="1.0" encoding="UTF-8" standalone="no"?>
<svg
   xmlns:dc="http://purl.org/dc/elements/1.1/"
   xmlns:cc="http://creativecommons.org/ns#"
   xmlns:rdf="http://www.w3.org/1999/02/22-rdf-syntax-ns#"
   xmlns:svg="http://www.w3.org/2000/svg"
   xmlns="http://www.w3.org/2000/svg"
   viewBox="0 0 20 20"
   height="20"
   width="20"
   xml:space="preserve"
   version="1.1"
   id="svg2"><metadata
     id="metadata8"><rdf:RDF><cc:Work
         rdf:about=""><dc:format>image/svg+xml</dc:format><dc:type
           rdf:resource="http://purl.org/dc/dcmitype/StillImage" /></cc:Work></rdf:RDF></metadata><defs
     id="defs6"><clipPath
       id="clipPath16"
       clipPathUnits="userSpaceOnUse"><path
         id="path18"
         d="M 0,16 16,16 16,0 0,0 0,16 Z" /></clipPath><clipPath
       id="clipPath28"
       clipPathUnits="userSpaceOnUse"><path
         id="path30"
         d="M 0,16 16,16 16,0 0,0 0,16 Z" /></clipPath></defs><g
     transform="matrix(1.25,0,0,-1.25,0,20)"
     id="g10"><g
       id="g12"><g
         clip-path="url(#clipPath16)"
         id="g14"><g
           transform="translate(12.5938,7.9688)"
           id="g20"><path
             id="path22"
             style="fill:#f6f6f6;fill-opacity:1;fill-rule:nonzero;stroke:none"
             d="m 0,0 c -0.642,0 -1.16,-0.12 -1.594,-0.307 l 0,0.338 0,0.001 1,0 0,2.999 2,0 0,3 -5,0 0,2 -9,0 0,-5 2,0 0,-3 -2,0 0,-3 9,0 0.087,0 c -0.103,-0.58 -0.082,-1.015 -0.082,-1.015 l -0.005,-3.985 7,0 0,3.993 C 3.406,-0.967 1.532,0 0,0" /></g></g></g><g
       id="g24"><g
         clip-path="url(#clipPath28)"
         id="g26"><g
           transform="translate(11.0186,4.4375)"
           id="g32"><path
             id="path34"
             style="fill:#424242;fill-opacity:1;fill-rule:nonzero;stroke:none"
             d="M 0,0 C 0.06,0.729 0.334,1.541 1.575,1.541 2.824,1.541 2.966,0.746 2.979,0 L 3.945,0 C 3.86,1.119 3.802,2.531 1.575,2.531 -0.82,2.531 -0.87,1.125 -1.001,0 L 0,0 Z" /></g><path
           id="path36"
           style="fill:#424242;fill-opacity:1;fill-rule:nonzero;stroke:none"
           d="m 13,2 -1,0 0,1 1,0 0,-1 z m 1,2 -3,0 -1,0 0,-3 5,0 0,3 -1,0 z" /><path
           id="path38"
           style="fill:#424242;fill-opacity:1;fill-rule:nonzero;stroke:none"
           d="m 13,12 -3,0 0,1 3,0 0,-1 z" /><path
           id="path40"
           style="fill:#424242;fill-opacity:1;fill-rule:nonzero;stroke:none"
           d="m 11,9 -8,0 0,1 8,0 0,-1 z" /><path
           id="path42"
           style="fill:#424242;fill-opacity:1;fill-rule:nonzero;stroke:none"
           d="M 5,6 1,6 1,7 5,7 5,6 Z" /><g
           transform="translate(10,6.9609)"
           id="g44"><path
             id="path46"
             style="fill:#424242;fill-opacity:1;fill-rule:nonzero;stroke:none"
             d="m 0,0 0,0.039 -3,0 0,-1 2.381,0 C -0.476,-0.626 -0.272,-0.295 0,0" /></g></g></g><path
       id="path48"
       style="fill:#388a34;fill-opacity:1;fill-rule:nonzero;stroke:none"
       d="m 7,13 -5,0 0,1 5,0 0,-1 z m -6,-1 7,0 0,3 -7,0 0,-3 z" /><path
       id="path50"
       style="fill:#f0eff1;fill-opacity:1;fill-rule:nonzero;stroke:none"
       d="m 2,13 5,0 0,1.001 -5,0 L 2,13 Z" /><path
       id="path52"
       style="fill:#f0eff1;fill-opacity:1;fill-rule:nonzero;stroke:none"
       d="m 12,2 1,0 0,0.959 -1,0 L 12,2 Z" /><path
       id="path54"
       style="fill:#f0eff1;fill-opacity:1;fill-rule:nonzero;stroke:none"
       d="m 12,2 1,0 0,1 -1,0 0,-1 z" /></g></svg>