<?xml version="1.0" encoding="UTF-8" standalone="no"?>
<svg
   xmlns:dc="http://purl.org/dc/elements/1.1/"
   xmlns:cc="http://creativecommons.org/ns#"
   xmlns:rdf="http://www.w3.org/1999/02/22-rdf-syntax-ns#"
   xmlns:svg="http://www.w3.org/2000/svg"
   xmlns="http://www.w3.org/2000/svg"
   viewBox="0 0 20 20"
   height="20"
   width="20"
   xml:space="preserve"
   version="1.1"
   id="svg2"><metadata
     id="metadata8"><rdf:RDF><cc:Work
         rdf:about=""><dc:format>image/svg+xml</dc:format><dc:type
           rdf:resource="http://purl.org/dc/dcmitype/StillImage" /></cc:Work></rdf:RDF></metadata><defs
     id="defs6" /><g
     transform="matrix(1.25,0,0,-1.25,0,20)"
     id="g10"><g
       transform="translate(0,16.0002)"
       id="g12"><path
         id="path14"
         style="fill:#f6f6f6;fill-opacity:1;fill-rule:nonzero;stroke:none"
         d="m 0,0 0,-5 2,0 0,-3 -2,0 0,-3 9,0 0,-1.5 1.392,-1.045 -0.736,-2.455 1.677,0 1.167,0.875 1.167,-0.875 1.677,0 -0.737,2.455 1.393,1.045 0,1.5 -2.156,0 -0.6,2 -1.488,0 -0.6,-2 -0.156,0 0,3 1,0 0,3 2,0 0,3 -5,0 0,2 -9,0 z" /></g><path
       id="path16"
       style="fill:#424242;fill-opacity:1;fill-rule:nonzero;stroke:none"
       d="m 10,12 3,0 0,1 -3,0 0,-1 z" /><path
       id="path18"
       style="fill:#424242;fill-opacity:1;fill-rule:nonzero;stroke:none"
       d="m 3,9 8,0 0,1 -8,0 0,-1 z" /><path
       id="path20"
       style="fill:#424242;fill-opacity:1;fill-rule:nonzero;stroke:none"
       d="m 1,6 4.001,0 0,1 L 1,7 1,6 Z" /><path
       id="path22"
       style="fill:#424242;fill-opacity:1;fill-rule:nonzero;stroke:none"
       d="M 7,6 10,6 10,7 7,7 7,6 Z" /><path
       id="path24"
       style="fill:#388a34;fill-opacity:1;fill-rule:nonzero;stroke:none"
       d="m 7,13 -5,0 0,1 5,0 0,-1 z m -6,-1 7,0 0,3 -7,0 0,-3 z" /><path
       id="path26"
       style="fill:#f0eff1;fill-opacity:1;fill-rule:nonzero;stroke:none"
       d="m 2,13 5,0 0,1.001 -5,0 L 2,13 Z" /><g
       transform="translate(13.4492,2.8369)"
       id="g28"><path
         id="path30"
         style="fill:#424242;fill-opacity:1;fill-rule:nonzero;stroke:none"
         d="m 0,0 1.551,1.163 -1.901,0 -0.599,2 -0.6,-2 -1.9,0 1.551,-1.163 -0.551,-1.837 1.5,1.125 1.5,-1.125 L 0,0 Z" /></g></g></svg>