<?xml version="1.0" encoding="UTF-8" standalone="no"?>
<svg
   xmlns:dc="http://purl.org/dc/elements/1.1/"
   xmlns:cc="http://creativecommons.org/ns#"
   xmlns:rdf="http://www.w3.org/1999/02/22-rdf-syntax-ns#"
   xmlns:svg="http://www.w3.org/2000/svg"
   xmlns="http://www.w3.org/2000/svg"
   viewBox="0 0 20 20"
   height="20"
   width="20"
   xml:space="preserve"
   version="1.1"
   id="svg2"><metadata
     id="metadata8"><rdf:RDF><cc:Work
         rdf:about=""><dc:format>image/svg+xml</dc:format><dc:type
           rdf:resource="http://purl.org/dc/dcmitype/StillImage" /></cc:Work></rdf:RDF></metadata><defs
     id="defs6"><clipPath
       id="clipPath16"
       clipPathUnits="userSpaceOnUse"><path
         id="path18"
         d="M 0,16 16,16 16,0 0,0 0,16 Z" /></clipPath><clipPath
       id="clipPath24"
       clipPathUnits="userSpaceOnUse"><path
         id="path26"
         d="M 0,16 16,16 16,0 0,0 0,16 Z" /></clipPath><clipPath
       id="clipPath52"
       clipPathUnits="userSpaceOnUse"><path
         id="path54"
         d="M 0,16 16,16 16,0 0,0 0,16 Z" /></clipPath></defs><g
     transform="matrix(1.25,0,0,-1.25,0,20)"
     id="g10"><g
       id="g12"><g
         clip-path="url(#clipPath16)"
         id="g14"><g
           id="g20"><g
             id="g22" /><g
             id="g28"><g
               style="opacity:0"
               id="g30"
               clip-path="url(#clipPath24)"><path
                 id="path32"
                 style="fill:#f6f6f6;fill-opacity:1;fill-rule:nonzero;stroke:none"
                 d="M 16,0 0,0 0,16 16,16 16,0 Z" /></g></g></g></g></g><g
       transform="translate(12.9996,8.0001)"
       id="g34"><path
         id="path36"
         style="fill:#f6f6f6;fill-opacity:1;fill-rule:nonzero;stroke:none"
         d="m 0,0 -2,0 -1,-1 0,-2 1,0 0,-2 -1,0 0,-3 2,0 1,0 2.001,0 0,3 -1,0 0,2 1,0 0,3 L 0,0 Z" /></g><path
       id="path38"
       style="fill:#424242;fill-opacity:1;fill-rule:nonzero;stroke:none"
       d="m 12,2 1,0 0,4.001 -1,0 L 12,2 Z" /><path
       id="path40"
       style="fill:#424242;fill-opacity:1;fill-rule:nonzero;stroke:none"
       d="m 13,6 1.001,0 0,1 L 13,7 13,6 Z" /><path
       id="path42"
       style="fill:#424242;fill-opacity:1;fill-rule:nonzero;stroke:none"
       d="m 11,6 1,0 0,1 -1,0 0,-1 z" /><path
       id="path44"
       style="fill:#424242;fill-opacity:1;fill-rule:nonzero;stroke:none"
       d="m 11,1 1,0 0,1 -1,0 0,-1 z" /><path
       id="path46"
       style="fill:#424242;fill-opacity:1;fill-rule:nonzero;stroke:none"
       d="m 13,1 1.001,0 0,1 L 13,2 13,1 Z" /><g
       id="g48"><g
         clip-path="url(#clipPath52)"
         id="g50"><g
           transform="translate(2.5,4)"
           id="g56"><path
             id="path58"
             style="fill:#f6f6f6;fill-opacity:1;fill-rule:nonzero;stroke:none"
             d="m 0,0 c -1.379,0 -2.5,1.122 -2.5,2.5 0,0.67 0.261,1.299 0.734,1.771 L 0.593,6.629 C 0.53,6.922 0.5,7.211 0.5,7.5 0.5,9.982 2.519,12 5,12 7.481,12 9.5,9.982 9.5,7.5 9.5,5.02 7.481,3 5,3 4.71,3 4.421,3.031 4.128,3.094 L 1.769,0.734 C 1.297,0.262 0.669,0 0,0" /></g><g
           transform="translate(8,10)"
           id="g60"><path
             id="path62"
             style="fill:#424242;fill-opacity:1;fill-rule:nonzero;stroke:none"
             d="M 0,0 -2,2 0.758,4.758 C 0.366,4.909 -0.056,5 -0.5,5 -2.433,5 -4,3.434 -4,1.5 -4,1.09 -3.916,0.701 -3.786,0.336 L -6.56,-2.438 C -6.832,-2.709 -7,-3.084 -7,-3.5 -7,-4.328 -6.328,-5 -5.5,-5 c 0.414,0 0.79,0.169 1.062,0.441 l 2.773,2.774 C -1.299,-1.916 -0.91,-2 -0.5,-2 1.433,-2 3,-0.433 3,1.5 3,1.945 2.909,2.367 2.758,2.758 L 0,0 Z" /></g></g></g></g></svg>