<?xml version="1.0" encoding="UTF-8" standalone="no"?>
<svg
   xmlns:dc="http://purl.org/dc/elements/1.1/"
   xmlns:cc="http://creativecommons.org/ns#"
   xmlns:rdf="http://www.w3.org/1999/02/22-rdf-syntax-ns#"
   xmlns:svg="http://www.w3.org/2000/svg"
   xmlns="http://www.w3.org/2000/svg"
   viewBox="0 0 20 20"
   height="20"
   width="20"
   xml:space="preserve"
   version="1.1"
   id="svg2"><metadata
     id="metadata8"><rdf:RDF><cc:Work
         rdf:about=""><dc:format>image/svg+xml</dc:format><dc:type
           rdf:resource="http://purl.org/dc/dcmitype/StillImage" /></cc:Work></rdf:RDF></metadata><defs
     id="defs6"><clipPath
       id="clipPath16"
       clipPathUnits="userSpaceOnUse"><path
         id="path18"
         d="M 0,16 16,16 16,0 0,0 0,16 Z" /></clipPath><clipPath
       id="clipPath24"
       clipPathUnits="userSpaceOnUse"><path
         id="path26"
         d="M 0,16 16,16 16,0 0,0 0,16 Z" /></clipPath></defs><g
     transform="matrix(1.25,0,0,-1.25,0,20)"
     id="g10"><g
       id="g12"><g
         clip-path="url(#clipPath16)"
         id="g14"><g
           id="g20"><g
             id="g22" /><g
             id="g28"><g
               style="opacity:0"
               id="g30"
               clip-path="url(#clipPath24)"><path
                 id="path32"
                 style="fill:#f6f6f6;fill-opacity:1;fill-rule:nonzero;stroke:none"
                 d="M 16,0 0,0 0,16 16,16 16,0 Z" /></g></g></g></g></g><path
       id="path34"
       style="fill:#f6f6f6;fill-opacity:1;fill-rule:nonzero;stroke:none"
       d="M 2,16 15,16 15,1 2,1 2,16 Z" /><path
       id="path36"
       style="fill:#424242;fill-opacity:1;fill-rule:nonzero;stroke:none"
       d="M 7,2 8,2 8,3 7,3 7,2 Z" /><path
       id="path38"
       style="fill:#424242;fill-opacity:1;fill-rule:nonzero;stroke:none"
       d="M 5,2 6,2 6,3 5,3 5,2 Z" /><path
       id="path40"
       style="fill:#424242;fill-opacity:1;fill-rule:nonzero;stroke:none"
       d="M 3,2 4,2 4,3 3,3 3,2 Z" /><path
       id="path42"
       style="fill:#424242;fill-opacity:1;fill-rule:nonzero;stroke:none"
       d="M 9,2 10,2 10,3 9,3 9,2 Z" /><path
       id="path44"
       style="fill:#424242;fill-opacity:1;fill-rule:nonzero;stroke:none"
       d="m 11,2 1,0 0,1 -1,0 0,-1 z" /><path
       id="path46"
       style="fill:#424242;fill-opacity:1;fill-rule:nonzero;stroke:none"
       d="m 13,2 1.001,0 0,1 L 13,3 13,2 Z" /><g
       transform="translate(3,15)"
       id="g48"><path
         id="path50"
         style="fill:#424242;fill-opacity:1;fill-rule:nonzero;stroke:none"
         d="m 0,0 0,-11 1,0 0,10 9,0 0,-10 1,0 0,11 -11,0 z" /></g><path
       id="path52"
       style="fill:#f0eff1;fill-opacity:1;fill-rule:nonzero;stroke:none"
       d="M 13,4 4,4 4,14 13,14 13,4 Z" /></g></svg>