<?xml version="1.0" encoding="UTF-8" standalone="no"?>
<svg
   xmlns:dc="http://purl.org/dc/elements/1.1/"
   xmlns:cc="http://creativecommons.org/ns#"
   xmlns:rdf="http://www.w3.org/1999/02/22-rdf-syntax-ns#"
   xmlns:svg="http://www.w3.org/2000/svg"
   xmlns="http://www.w3.org/2000/svg"
   viewBox="0 0 20 20"
   height="20"
   width="20"
   xml:space="preserve"
   version="1.1"
   id="svg2"><metadata
     id="metadata8"><rdf:RDF><cc:Work
         rdf:about=""><dc:format>image/svg+xml</dc:format><dc:type
           rdf:resource="http://purl.org/dc/dcmitype/StillImage" /></cc:Work></rdf:RDF></metadata><defs
     id="defs6"><clipPath
       id="clipPath16"
       clipPathUnits="userSpaceOnUse"><path
         id="path18"
         d="M 0,16 16,16 16,0 0,0 0,16 Z" /></clipPath><clipPath
       id="clipPath32"
       clipPathUnits="userSpaceOnUse"><path
         id="path34"
         d="M 0,16 16,16 16,0 0,0 0,16 Z" /></clipPath><clipPath
       id="clipPath44"
       clipPathUnits="userSpaceOnUse"><path
         id="path46"
         d="M 0,16 16,16 16,0 0,0 0,16 Z" /></clipPath></defs><g
     transform="matrix(1.25,0,0,-1.25,0,20)"
     id="g10"><g
       id="g12"><g
         clip-path="url(#clipPath16)"
         id="g14"><g
           transform="translate(9,0)"
           id="g20"><path
             id="path22"
             style="fill:#f6f6f6;fill-opacity:1;fill-rule:nonzero;stroke:none"
             d="M 0,0 7,0 6.92,5 C 6.821,5.932 6.499,7.241 5,7.747 L 5,16 -9,16 -9,5 0,5 0,3.438 0,0 Z" /></g></g></g><path
       id="path24"
       style="fill:#00539c;fill-opacity:1;fill-rule:nonzero;stroke:none"
       d="M 1,6 5,6 5,10 1,10 1,6 Z" /><path
       id="path26"
       style="fill:#00539c;fill-opacity:1;fill-rule:nonzero;stroke:none"
       d="m 13,15 -12,0 0,-3 12,0 0,3 z" /><g
       id="g28"><g
         clip-path="url(#clipPath32)"
         id="g30"><g
           transform="translate(12.5938,7.9688)"
           id="g36"><path
             id="path38"
             style="fill:#00539c;fill-opacity:1;fill-rule:nonzero;stroke:none"
             d="m 0,0 c 0.15,0 0.27,-0.024 0.406,-0.035 l 0,2.066 -4,0 0,-4 0.303,0 C -2.95,-0.994 -2.138,0 0,0" /></g></g></g><g
       id="g40"><g
         clip-path="url(#clipPath44)"
         id="g42"><g
           transform="translate(11.0186,4.4375)"
           id="g48"><path
             id="path50"
             style="fill:#424242;fill-opacity:1;fill-rule:nonzero;stroke:none"
             d="M 0,0 C 0.06,0.729 0.334,1.541 1.575,1.541 2.824,1.541 2.966,0.746 2.979,0 L 3.945,0 C 3.86,1.119 3.802,2.531 1.575,2.531 -0.82,2.531 -0.87,1.125 -1.001,0 L 0,0 Z" /></g><path
           id="path52"
           style="fill:#424242;fill-opacity:1;fill-rule:nonzero;stroke:none"
           d="m 13,2 -1,0 0,1 1,0 0,-1 z m 1,2 -3,0 -1,0 0,-3 5,0 0,3 -1,0 z" /></g></g><path
       id="path54"
       style="fill:#f0eff1;fill-opacity:1;fill-rule:nonzero;stroke:none"
       d="m 12,2 1,0 0,1 -1,0 0,-1 z" /></g></svg>