<?xml version="1.0" encoding="UTF-8" standalone="no"?>
<svg
   xmlns:dc="http://purl.org/dc/elements/1.1/"
   xmlns:cc="http://creativecommons.org/ns#"
   xmlns:rdf="http://www.w3.org/1999/02/22-rdf-syntax-ns#"
   xmlns:svg="http://www.w3.org/2000/svg"
   xmlns="http://www.w3.org/2000/svg"
   viewBox="0 0 20 20"
   height="20"
   width="20"
   xml:space="preserve"
   version="1.1"
   id="svg2"><metadata
     id="metadata8"><rdf:RDF><cc:Work
         rdf:about=""><dc:format>image/svg+xml</dc:format><dc:type
           rdf:resource="http://purl.org/dc/dcmitype/StillImage" /></cc:Work></rdf:RDF></metadata><defs
     id="defs6" /><g
     transform="matrix(1.25,0,0,-1.25,0,20)"
     id="g10"><path
       id="path12"
       style="fill:#f6f6f6;fill-opacity:1;fill-rule:nonzero;stroke:none"
       d="M 14,1 2,1 2,16 14,16 14,1 Z" /><path
       id="path14"
       style="fill:#424242;fill-opacity:1;fill-rule:nonzero;stroke:none"
       d="M 12,14 4,14 4,3 12,3 12,14 Z M 13,2 3,2 3,15 13,15 13,2 Z m -3,4 -5,0 0,-1 5,0 0,1 z m 1,2 -6,0 0,-1 6,0 0,1 z m 0,2 -6,0 0,-1 6,0 0,1 z m 0,1 -4,0 0,1 4,0 0,-1 z" /><path
       id="path16"
       style="fill:#f0eff1;fill-opacity:1;fill-rule:nonzero;stroke:none"
       d="m 11,11 -4,0 0,1 4,0 0,-1 z m 0,-2 -6,0 0,1 6,0 0,-1 z M 11,7 5,7 5,8 11,8 11,7 Z M 10,5 5,5 5,6 10,6 10,5 Z M 4,3 12,3 12,14 4,14 4,3 Z" /></g></svg>