<?xml version="1.0" encoding="UTF-8" standalone="no"?>
<svg
   xmlns:dc="http://purl.org/dc/elements/1.1/"
   xmlns:cc="http://creativecommons.org/ns#"
   xmlns:rdf="http://www.w3.org/1999/02/22-rdf-syntax-ns#"
   xmlns:svg="http://www.w3.org/2000/svg"
   xmlns="http://www.w3.org/2000/svg"
   viewBox="0 0 20 20"
   height="20"
   width="20"
   xml:space="preserve"
   version="1.1"
   id="svg2"><metadata
     id="metadata8"><rdf:RDF><cc:Work
         rdf:about=""><dc:format>image/svg+xml</dc:format><dc:type
           rdf:resource="http://purl.org/dc/dcmitype/StillImage" /></cc:Work></rdf:RDF></metadata><defs
     id="defs6"><clipPath
       id="clipPath16"
       clipPathUnits="userSpaceOnUse"><path
         id="path18"
         d="M 0,16 16,16 16,0 0,0 0,16 Z" /></clipPath><clipPath
       id="clipPath32"
       clipPathUnits="userSpaceOnUse"><path
         id="path34"
         d="M 0,16 16,16 16,0 0,0 0,16 Z" /></clipPath><clipPath
       id="clipPath52"
       clipPathUnits="userSpaceOnUse"><path
         id="path54"
         d="M 0,16 16,16 16,0 0,0 0,16 Z" /></clipPath></defs><g
     transform="matrix(1.25,0,0,-1.25,0,20)"
     id="g10"><g
       id="g12"><g
         clip-path="url(#clipPath16)"
         id="g14"><g
           transform="translate(13.5713,7)"
           id="g20"><path
             id="path22"
             style="fill:#f6f6f6;fill-opacity:1;fill-rule:nonzero;stroke:none"
             d="m 0,0 c -0.157,0 -0.357,-0.023 -0.571,-0.085 l 0,9.085 -9,0 0,-6 -4,0 0,-7 7,0 0,2 2.049,0 c -0.032,-0.156 -0.049,-0.317 -0.049,-0.482 0,-0.594 0.196,-1.188 0.56,-1.657 0.293,-0.354 2.246,-2.529 2.246,-2.529 L -1.468,-7 l 0.909,0 0.3,0.352 c 0,0 1.836,2.159 2.148,2.535 0.342,0.442 0.54,1.037 0.54,1.631 C 2.429,-1.137 1.316,0 0,0" /></g></g></g><path
       id="path24"
       style="fill:#424242;fill-opacity:1;fill-rule:nonzero;stroke:none"
       d="M 2,8 5,8 5,5 2,5 2,8 Z M 1,4 6,4 6,9 1,9 1,4 Z" /><path
       id="path26"
       style="fill:#424242;fill-opacity:1;fill-rule:nonzero;stroke:none"
       d="m 7,10 3,0 0,1 -3,0 0,-1 z" /><g
       id="g28"><g
         clip-path="url(#clipPath32)"
         id="g30"><g
           transform="translate(7,6)"
           id="g36"><path
             id="path38"
             style="fill:#424242;fill-opacity:1;fill-rule:nonzero;stroke:none"
             d="M 0,0 2.507,0 C 2.955,0.6 3.653,1 4.429,1 4.586,1 4.786,0.977 5,0.915 L 5,9 -2,9 -2,4 -1,4 -1,8 4,8 4,1 0,1 0,0 Z" /></g><path
           id="path40"
           style="fill:#424242;fill-opacity:1;fill-rule:nonzero;stroke:none"
           d="m 10,13 -3,0 0,-1 3,0 0,1 z" /><path
           id="path42"
           style="fill:#424242;fill-opacity:1;fill-rule:nonzero;stroke:none"
           d="M 7,8 10,8 10,9 7,9 7,8 Z" /></g></g><path
       id="path44"
       style="fill:#f0eff1;fill-opacity:1;fill-rule:nonzero;stroke:none"
       d="m 10,12 -3,0 0,1 3,0 0,-1 z m -4,2 0,-4 1,0 0,1 3,0 0,-1 -3,0 0,-1 3,0 0,-1 -3,0 0,-1 4,0 0,7 -5,0 z" /><path
       id="path46"
       style="fill:#f0eff1;fill-opacity:1;fill-rule:nonzero;stroke:none"
       d="m 2,4.998 3,0 0,3 -3,0 0,-3 z" /><g
       id="g48"><g
         clip-path="url(#clipPath52)"
         id="g50"><g
           transform="translate(13.5713,6)"
           id="g56"><path
             id="path58"
             style="fill:#424242;fill-opacity:1;fill-rule:nonzero;stroke:none"
             d="M 0,0 C -0.527,0 -0.86,-0.747 -1.071,-1.25 -1.282,-0.747 -1.616,0 -2.143,0 -2.87,0 -3.571,-0.664 -3.571,-1.482 c 0,-0.375 0.127,-0.756 0.329,-1.018 0.29,-0.35 2.221,-2.5 2.221,-2.5 0,0 1.83,2.15 2.12,2.5 0.203,0.262 0.33,0.643 0.33,1.018 C 1.429,-0.664 0.729,0 0,0" /></g></g></g></g></svg>