<?xml version="1.0" encoding="UTF-8" standalone="no"?>
<svg
   xmlns:dc="http://purl.org/dc/elements/1.1/"
   xmlns:cc="http://creativecommons.org/ns#"
   xmlns:rdf="http://www.w3.org/1999/02/22-rdf-syntax-ns#"
   xmlns:svg="http://www.w3.org/2000/svg"
   xmlns="http://www.w3.org/2000/svg"
   viewBox="0 0 20 20"
   height="20"
   width="20"
   xml:space="preserve"
   version="1.1"
   id="svg2"><metadata
     id="metadata8"><rdf:RDF><cc:Work
         rdf:about=""><dc:format>image/svg+xml</dc:format><dc:type
           rdf:resource="http://purl.org/dc/dcmitype/StillImage" /></cc:Work></rdf:RDF></metadata><defs
     id="defs6" /><g
     transform="matrix(1.25,0,0,-1.25,0,20)"
     id="g10"><g
       transform="translate(3.9996,16.0002)"
       id="g12"><path
         id="path14"
         style="fill:#f6f6f6;fill-opacity:1;fill-rule:nonzero;stroke:none"
         d="m 0,0 0,-6 -4,0 0,-7.001 7.001,0 0,2.001 1.999,0 0,-5 7.001,0 0,7 L 9,-9 9,0 0,0 Z" /></g><g
       transform="translate(11,7)"
       id="g16"><path
         id="path18"
         style="fill:#424242;fill-opacity:1;fill-rule:nonzero;stroke:none"
         d="m 0,0 1,0 0,8 -7,0 0,-5 1,0 0,4 5,0 0,-7 z" /></g><path
       id="path20"
       style="fill:#424242;fill-opacity:1;fill-rule:nonzero;stroke:none"
       d="M 2,8 5,8 5,5 2,5 2,8 Z M 1,4 6,4 6,9 1,9 1,4 Z" /><path
       id="path22"
       style="fill:#424242;fill-opacity:1;fill-rule:nonzero;stroke:none"
       d="M 7,8 10,8 10,9 7,9 7,8 Z" /><path
       id="path24"
       style="fill:#424242;fill-opacity:1;fill-rule:nonzero;stroke:none"
       d="m 7,10 3,0 0,1 -3,0 0,-1 z" /><path
       id="path26"
       style="fill:#424242;fill-opacity:1;fill-rule:nonzero;stroke:none"
       d="M 7,6 9,6 9,7 7,7 7,6 Z" /><path
       id="path28"
       style="fill:#424242;fill-opacity:1;fill-rule:nonzero;stroke:none"
       d="m 7,12 3,0 0,1 -3,0 0,-1 z" /><path
       id="path30"
       style="fill:#f0eff1;fill-opacity:1;fill-rule:nonzero;stroke:none"
       d="m 10,12 -3,0 0,1 3,0 0,-1 z m -4,2 0,-4 1,0 0,1 3,0 0,-1 -3,0 0,-1 3,0 0,-1 -3,0 0,-1 4,0 0,7 -5,0 z" /><path
       id="path32"
       style="fill:#f0eff1;fill-opacity:1;fill-rule:nonzero;stroke:none"
       d="m 2,4.998 3,0 0,3 -3,0 0,-3 z" /><g
       transform="translate(14,3)"
       id="g34"><path
         id="path36"
         style="fill:#424242;fill-opacity:1;fill-rule:nonzero;stroke:none"
         d="M 0,0 -1,-1 -1,0.5 -2.5,-1 -3,-0.5 -1.5,1 -3,1 -2,2 0,2 0,0 Z m -4,-2 5,0 0,5 -5,0 0,-5 z" /></g><g
       transform="translate(14,5)"
       id="g38"><path
         id="path40"
         style="fill:#f0eff1;fill-opacity:1;fill-rule:nonzero;stroke:none"
         d="M 0,0 0,-2 -1,-3 -1,-1.5 -2.5,-3 -3,-2.5 -1.5,-1 -3,-1 -2,0 0,0 Z" /></g></g></svg>