<?xml version="1.0" encoding="UTF-8" standalone="no"?>
<svg
   xmlns:dc="http://purl.org/dc/elements/1.1/"
   xmlns:cc="http://creativecommons.org/ns#"
   xmlns:rdf="http://www.w3.org/1999/02/22-rdf-syntax-ns#"
   xmlns:svg="http://www.w3.org/2000/svg"
   xmlns="http://www.w3.org/2000/svg"
   viewBox="0 0 20 20"
   height="20"
   width="20"
   xml:space="preserve"
   version="1.1"
   id="svg2"><metadata
     id="metadata8"><rdf:RDF><cc:Work
         rdf:about=""><dc:format>image/svg+xml</dc:format><dc:type
           rdf:resource="http://purl.org/dc/dcmitype/StillImage" /></cc:Work></rdf:RDF></metadata><defs
     id="defs6"><clipPath
       id="clipPath16"
       clipPathUnits="userSpaceOnUse"><path
         id="path18"
         d="M 0,16 16,16 16,0 0,0 0,16 Z" /></clipPath><clipPath
       id="clipPath24"
       clipPathUnits="userSpaceOnUse"><path
         id="path26"
         d="M 0,16 16,16 16,0 0,0 0,16 Z" /></clipPath><clipPath
       id="clipPath48"
       clipPathUnits="userSpaceOnUse"><path
         id="path50"
         d="M 0,16 16,16 16,0 0,0 0,16 Z" /></clipPath><clipPath
       id="clipPath70"
       clipPathUnits="userSpaceOnUse"><path
         id="path72"
         d="M 0,16 16,16 16,0 0,0 0,16 Z" /></clipPath></defs><g
     transform="matrix(1.25,0,0,-1.25,0,20)"
     id="g10"><g
       id="g12"><g
         clip-path="url(#clipPath16)"
         id="g14"><g
           id="g20"><g
             id="g22" /><g
             id="g28"><g
               style="opacity:0"
               id="g30"
               clip-path="url(#clipPath24)"><path
                 id="path32"
                 style="fill:#f6f6f6;fill-opacity:1;fill-rule:nonzero;stroke:none"
                 d="M 16,0 0,0 0,16 16,16 16,0 Z" /></g></g></g><g
           transform="translate(13,7.8579)"
           id="g34"><path
             id="path36"
             style="fill:#f6f6f6;fill-opacity:1;fill-rule:nonzero;stroke:none"
             d="m 0,0 0,8.142 -9,0 0,-6.018 -4,0 0,-6.982 7,0 0,2 1.142,0 C -4.941,-3.179 -5,-3.51 -5,-3.858 c 0,-2.206 1.794,-4 4,-4 2.206,0 4,1.794 4,4 C 3,-2 1.721,-0.447 0,0" /></g></g></g><path
       id="path38"
       style="fill:#424242;fill-opacity:1;fill-rule:nonzero;stroke:none"
       d="M 2,8 5,8 5,5 2,5 2,8 Z M 1,4 6,4 6,9 1,9 1,4 Z" /><path
       id="path40"
       style="fill:#424242;fill-opacity:1;fill-rule:nonzero;stroke:none"
       d="m 7,10 3,0 0,1 -3,0 0,-1 z" /><path
       id="path42"
       style="fill:#424242;fill-opacity:1;fill-rule:nonzero;stroke:none"
       d="m 7,12 3,0 0,1 -3,0 0,-1 z" /><g
       id="g44"><g
         clip-path="url(#clipPath48)"
         id="g46"><g
           transform="translate(11,7.8579)"
           id="g52"><path
             id="path54"
             style="fill:#424242;fill-opacity:1;fill-rule:nonzero;stroke:none"
             d="m 0,0 c 0.321,0.083 0.652,0.142 1,0.142 l 0,7 -7,0 0,-5 1,0 0,4 5,0 L 0,0 Z" /></g><g
           transform="translate(9.3818,7)"
           id="g56"><path
             id="path58"
             style="fill:#424242;fill-opacity:1;fill-rule:nonzero;stroke:none"
             d="m 0,0 -2.382,0 0,-1 1.556,0 c 0.221,0.378 0.499,0.714 0.826,1" /></g><path
           id="path60"
           style="fill:#424242;fill-opacity:1;fill-rule:nonzero;stroke:none"
           d="M 7,8 10,8 10,9 7,9 7,8 Z" /><g
           transform="translate(12,1.7832)"
           id="g62"><path
             id="path64"
             style="fill:#424242;fill-opacity:1;fill-rule:nonzero;stroke:none"
             d="M 0,0 C -0.47,0 -0.904,0.148 -1.264,0.398 L 1.818,3.48 C 2.068,3.121 2.217,2.687 2.217,2.217 2.217,0.994 1.223,0 0,0 M -1.587,0.672 -1.545,0.63 c -0.013,0.015 -0.027,0.029 -0.042,0.042 m -0.63,1.545 c 0,1.222 0.994,2.217 2.217,2.217 0.47,0 0.904,-0.149 1.264,-0.399 L -1.818,0.953 c -0.25,0.36 -0.399,0.794 -0.399,1.264 M 1.587,3.762 1.545,3.804 C 1.558,3.789 1.572,3.774 1.587,3.762 M 0,5.217 c -1.654,0 -3,-1.346 -3,-3 0,-1.654 1.346,-3 3,-3 1.654,0 3,1.346 3,3 0,1.654 -1.346,3 -3,3" /></g></g></g><g
       id="g66"><g
         clip-path="url(#clipPath70)"
         id="g68"><path
           id="path74"
           style="fill:#f0eff1;fill-opacity:1;fill-rule:nonzero;stroke:none"
           d="m 7,13 3,0 0,-1 -3,0 0,1 z M 7,8 7,7 9.382,7 C 9.843,7.402 10.391,7.7 11,7.858 l 0,6.142 -5,0 0,-4 1,0 0,1 3,0 0,-1 -3,0 0,-1 3,0 0,-1 -3,0 z" /><g
           transform="translate(9.7832,4)"
           id="g76"><path
             id="path78"
             style="fill:#f0eff1;fill-opacity:1;fill-rule:nonzero;stroke:none"
             d="m 0,0 c 0,1.223 0.994,2.217 2.217,2.217 0.47,0 0.904,-0.149 1.263,-0.399 L 0.398,-1.264 C 0.148,-0.904 0,-0.47 0,0" /></g><g
           transform="translate(12,1.7832)"
           id="g80"><path
             id="path82"
             style="fill:#f0eff1;fill-opacity:1;fill-rule:nonzero;stroke:none"
             d="M 0,0 C -0.47,0 -0.904,0.148 -1.264,0.398 L 1.818,3.48 C 2.068,3.121 2.217,2.687 2.217,2.217 2.217,0.994 1.223,0 0,0" /></g><path
           id="path84"
           style="fill:#f0eff1;fill-opacity:1;fill-rule:nonzero;stroke:none"
           d="M 5,5 2,5 2,8 5,8 5,5 Z" /></g></g></g></svg>