<?xml version="1.0" encoding="UTF-8" standalone="no"?>
<svg
   xmlns:dc="http://purl.org/dc/elements/1.1/"
   xmlns:cc="http://creativecommons.org/ns#"
   xmlns:rdf="http://www.w3.org/1999/02/22-rdf-syntax-ns#"
   xmlns:svg="http://www.w3.org/2000/svg"
   xmlns="http://www.w3.org/2000/svg"
   viewBox="0 0 20 20"
   height="20"
   width="20"
   xml:space="preserve"
   version="1.1"
   id="svg2"><metadata
     id="metadata8"><rdf:RDF><cc:Work
         rdf:about=""><dc:format>image/svg+xml</dc:format><dc:type
           rdf:resource="http://purl.org/dc/dcmitype/StillImage" /></cc:Work></rdf:RDF></metadata><defs
     id="defs6" /><g
     transform="matrix(1.25,0,0,-1.25,0,20)"
     id="g10"><g
       transform="translate(2.9997,16.0002)"
       id="g12"><path
         id="path14"
         style="fill:#f6f6f6;fill-opacity:1;fill-rule:nonzero;stroke:none"
         d="m 0,0 0,-3.001 -3,0 0,-7.999 9,0 0,3 3,0 0,8 -9,0 z" /></g><g
       transform="translate(11.7558,7.0002)"
       id="g16"><path
         id="path18"
         style="fill:#f6f6f6;fill-opacity:1;fill-rule:nonzero;stroke:none"
         d="m 0,0 -0.599,-2 -2.157,0 0,-1.5 1.393,-1.045 L -2.1,-7 -0.423,-7 0.744,-6.125 1.912,-7 3.588,-7 2.851,-4.545 4.244,-3.5 4.244,-2 2.088,-2 1.489,0 0,0 Z" /></g><g
       transform="translate(1,6)"
       id="g20"><path
         id="path22"
         style="fill:#424242;fill-opacity:1;fill-rule:nonzero;stroke:none"
         d="M 0,0 7,0 7,3 6,3 6,1 1,1 1,5.001 3,5.001 3,6 0,6 0,0 Z" /></g><g
       transform="translate(4,15)"
       id="g24"><path
         id="path26"
         style="fill:#424242;fill-opacity:1;fill-rule:nonzero;stroke:none"
         d="m 0,0 0,-3 1,0 0,2.001 5,0 L 6,-5 4,-5 4,-6 7,-6 7,0 0,0 Z" /></g><path
       id="path28"
       style="fill:#00539c;fill-opacity:1;fill-rule:nonzero;stroke:none"
       d="M 8,9 4,9 4,12 8,12 8,9 Z" /><g
       transform="translate(13.4492,2.8369)"
       id="g30"><path
         id="path32"
         style="fill:#424242;fill-opacity:1;fill-rule:nonzero;stroke:none"
         d="m 0,0 1.551,1.163 -1.901,0 -0.599,2 -0.6,-2 -1.9,0 1.551,-1.163 -0.551,-1.837 1.5,1.125 1.5,-1.125 L 0,0 Z" /></g></g></svg>