<?xml version="1.0" encoding="UTF-8" standalone="no"?>
<svg
   xmlns:dc="http://purl.org/dc/elements/1.1/"
   xmlns:cc="http://creativecommons.org/ns#"
   xmlns:rdf="http://www.w3.org/1999/02/22-rdf-syntax-ns#"
   xmlns:svg="http://www.w3.org/2000/svg"
   xmlns="http://www.w3.org/2000/svg"
   viewBox="0 0 20 20"
   height="20"
   width="20"
   xml:space="preserve"
   version="1.1"
   id="svg2"><metadata
     id="metadata8"><rdf:RDF><cc:Work
         rdf:about=""><dc:format>image/svg+xml</dc:format><dc:type
           rdf:resource="http://purl.org/dc/dcmitype/StillImage" /></cc:Work></rdf:RDF></metadata><defs
     id="defs6"><clipPath
       id="clipPath16"
       clipPathUnits="userSpaceOnUse"><path
         id="path18"
         d="M 0,16 16,16 16,0 0,0 0,16 Z" /></clipPath><clipPath
       id="clipPath24"
       clipPathUnits="userSpaceOnUse"><path
         id="path26"
         d="M 0,16 16,16 16,0 0,0 0,16 Z" /></clipPath></defs><g
     transform="matrix(1.25,0,0,-1.25,0,20)"
     id="g10"><g
       id="g12"><g
         clip-path="url(#clipPath16)"
         id="g14"><g
           id="g20"><g
             id="g22" /><g
             id="g28"><g
               style="opacity:0"
               id="g30"
               clip-path="url(#clipPath24)"><path
                 id="path32"
                 style="fill:#f6f6f6;fill-opacity:1;fill-rule:nonzero;stroke:none"
                 d="M 16,0 0,0 0,16 16,16 16,0 Z" /></g></g></g></g></g><g
       transform="translate(2.9997,14.0004)"
       id="g34"><path
         id="path36"
         style="fill:#f6f6f6;fill-opacity:1;fill-rule:nonzero;stroke:none"
         d="m 0,0 0,-3.001 -3,0 0,-8 9,0 L 6,-8 9,-8 9,0 0,0 Z" /></g><g
       transform="translate(1,4)"
       id="g38"><path
         id="path40"
         style="fill:#424242;fill-opacity:1;fill-rule:nonzero;stroke:none"
         d="M 0,0 7,0 7,3 6,3 6,1 1,1 1,5.001 3,5.001 3,6 0,6 0,0 Z" /></g><g
       transform="translate(4,13)"
       id="g42"><path
         id="path44"
         style="fill:#424242;fill-opacity:1;fill-rule:nonzero;stroke:none"
         d="m 0,0 0,-3 1,0 0,2.001 5,0 L 6,-5 4,-5 4,-6 7,-6 7,0 0,0 Z" /></g><path
       id="path46"
       style="fill:#00539c;fill-opacity:1;fill-rule:nonzero;stroke:none"
       d="M 8,7 4,7 4,10 8,10 8,7 Z" /></g></svg>