<?xml version="1.0" encoding="UTF-8" standalone="no"?>
<svg
   xmlns:dc="http://purl.org/dc/elements/1.1/"
   xmlns:cc="http://creativecommons.org/ns#"
   xmlns:rdf="http://www.w3.org/1999/02/22-rdf-syntax-ns#"
   xmlns:svg="http://www.w3.org/2000/svg"
   xmlns="http://www.w3.org/2000/svg"
   viewBox="0 0 20 20"
   height="20"
   width="20"
   xml:space="preserve"
   version="1.1"
   id="svg2"><metadata
     id="metadata8"><rdf:RDF><cc:Work
         rdf:about=""><dc:format>image/svg+xml</dc:format><dc:type
           rdf:resource="http://purl.org/dc/dcmitype/StillImage" /></cc:Work></rdf:RDF></metadata><defs
     id="defs6"><clipPath
       id="clipPath16"
       clipPathUnits="userSpaceOnUse"><path
         id="path18"
         d="M 0,16 16,16 16,0 0,0 0,16 Z" /></clipPath><clipPath
       id="clipPath24"
       clipPathUnits="userSpaceOnUse"><path
         id="path26"
         d="M 0,16 16,16 16,0 0,0 0,16 Z" /></clipPath></defs><g
     transform="matrix(1.25,0,0,-1.25,0,20)"
     id="g10"><g
       id="g12"><g
         clip-path="url(#clipPath16)"
         id="g14"><g
           id="g20"><g
             id="g22" /><g
             id="g28"><g
               style="opacity:0"
               id="g30"
               clip-path="url(#clipPath24)"><path
                 id="path32"
                 style="fill:#f6f6f6;fill-opacity:1;fill-rule:nonzero;stroke:none"
                 d="M 16,0 0,0 0,16 16,16 16,0 Z" /></g></g></g></g></g><g
       transform="translate(0.9999,15.0003)"
       id="g34"><path
         id="path36"
         style="fill:#f6f6f6;fill-opacity:1;fill-rule:nonzero;stroke:none"
         d="m 0,0 0,-5 -1,0 0,-8.001 4,0 4,0 0,6.001 8,0 0,7 -15,0 z m 2,-8 1,0 1.001,0 0,-2 -1.001,0 -1,0 0,2 z" /></g><g
       transform="translate(1,3)"
       id="g38"><path
         id="path40"
         style="fill:#424242;fill-opacity:1;fill-rule:nonzero;stroke:none"
         d="M 0,0 2,0 2,1 1,1 1,5 2,5 2,6 0,6 0,0 Z" /></g><g
       transform="translate(5,8)"
       id="g42"><path
         id="path44"
         style="fill:#424242;fill-opacity:1;fill-rule:nonzero;stroke:none"
         d="M 0,0 1,0 1,-4 0,-4 0,-5 2,-5 2,1 0,1 0,0 Z" /></g><g
       transform="translate(3.9996,11.9997)"
       id="g46"><path
         id="path48"
         style="fill:#424242;fill-opacity:1;fill-rule:nonzero;stroke:none"
         d="m 0,0 0,-1 0,-1 1.001,0 0,2 L 0,0 Z" /></g><g
       transform="translate(14,10)"
       id="g50"><path
         id="path52"
         style="fill:#424242;fill-opacity:1;fill-rule:nonzero;stroke:none"
         d="m 0,0 -1,0 0,2 -1,0 0,-2 -1,0 0,3 3,0 0,-3 z m -12,4 0,-0.987 0,-3.013 1,0 0,1 0,2 3,0 0,-2 0,-1 1,0 0,3 3,0 0,-3 -1,0 0,2 -1,0 0,-2 0,-1 7,0 L 1,3.013 1,4 -12,4 Z" /></g><g
       transform="translate(7,10)"
       id="g54"><path
         id="path56"
         style="fill:#f0eff1;fill-opacity:1;fill-rule:nonzero;stroke:none"
         d="M 0,0 1,0 1,2 2,2 2,0 3,0 3,3 0,3 0,0 Z" /></g><g
       transform="translate(3,10)"
       id="g58"><path
         id="path60"
         style="fill:#f0eff1;fill-opacity:1;fill-rule:nonzero;stroke:none"
         d="M 0,0 1,0 1,2 2,2 2,0 3,0 3,3 0,3 0,0 Z" /></g><g
       transform="translate(11,13)"
       id="g62"><path
         id="path64"
         style="fill:#f0eff1;fill-opacity:1;fill-rule:nonzero;stroke:none"
         d="m 0,0 0,-3 1,0 0,2 1,0 0,-2 1,0 0,3 -3,0 z" /></g></g></svg>