<?xml version="1.0" encoding="UTF-8" standalone="no"?>
<svg
   xmlns:dc="http://purl.org/dc/elements/1.1/"
   xmlns:cc="http://creativecommons.org/ns#"
   xmlns:rdf="http://www.w3.org/1999/02/22-rdf-syntax-ns#"
   xmlns:svg="http://www.w3.org/2000/svg"
   xmlns="http://www.w3.org/2000/svg"
   viewBox="0 0 20 20"
   height="20"
   width="20"
   xml:space="preserve"
   version="1.1"
   id="svg2"><metadata
     id="metadata8"><rdf:RDF><cc:Work
         rdf:about=""><dc:format>image/svg+xml</dc:format><dc:type
           rdf:resource="http://purl.org/dc/dcmitype/StillImage" /></cc:Work></rdf:RDF></metadata><defs
     id="defs6"><clipPath
       id="clipPath16"
       clipPathUnits="userSpaceOnUse"><path
         id="path18"
         d="M 0,16 16,16 16,0 0,0 0,16 Z" /></clipPath><clipPath
       id="clipPath24"
       clipPathUnits="userSpaceOnUse"><path
         id="path26"
         d="M 0,16 16,16 16,0 0,0 0,16 Z" /></clipPath><clipPath
       id="clipPath38"
       clipPathUnits="userSpaceOnUse"><path
         id="path40"
         d="M 0,16 16,16 16,0 0,0 0,16 Z" /></clipPath><clipPath
       id="clipPath50"
       clipPathUnits="userSpaceOnUse"><path
         id="path52"
         d="M 0,16 16,16 16,0 0,0 0,16 Z" /></clipPath></defs><g
     transform="matrix(1.25,0,0,-1.25,0,20)"
     id="g10"><g
       id="g12"><g
         clip-path="url(#clipPath16)"
         id="g14"><g
           id="g20"><g
             id="g22" /><g
             id="g28"><g
               style="opacity:0"
               id="g30"
               clip-path="url(#clipPath24)"><path
                 id="path32"
                 style="fill:#f6f6f6;fill-opacity:1;fill-rule:nonzero;stroke:none"
                 d="M 16,0 0,0 0,16 16,16 16,0 Z" /></g></g></g></g></g><g
       id="g34"><g
         clip-path="url(#clipPath38)"
         id="g36"><g
           transform="translate(15.9199,5)"
           id="g42"><path
             id="path44"
             style="fill:#f6f6f6;fill-opacity:1;fill-rule:nonzero;stroke:none"
             d="M 0,0 C -0.124,1.174 -0.571,2.969 -3.326,2.969 -6.234,2.969 -6.68,1.129 -6.828,0 l 0,-5 6.908,0 m -4,9 -4,0 0,-4 -8,0 0,7 4,0 0,4 8,0 0,-7 z" /></g></g></g><g
       id="g46"><g
         clip-path="url(#clipPath50)"
         id="g48"><path
           id="path54"
           style="fill:#424242;fill-opacity:1;fill-rule:nonzero;stroke:none"
           d="m 13,3 -1,0 0,-1 1,0 0,1 z m 2,1 0,-3 -5,0 0,3 1,0 3,0 1,0 z m -4.982,0.437 c 0.13,1.125 0.18,2.532 2.576,2.532 2.226,0 2.285,-1.412 2.37,-2.532 l -0.966,0 c -0.014,0.747 -0.155,1.542 -1.404,1.542 -1.242,0 -1.516,-0.812 -1.575,-1.542 l -1.001,0 z" /></g></g><path
       id="path56"
       style="fill:#f0eff1;fill-opacity:1;fill-rule:nonzero;stroke:none"
       d="m 12,2 1,0 0,1 -1,0 0,-1 z" /><path
       id="path58"
       style="fill:#00539c;fill-opacity:1;fill-rule:nonzero;stroke:none"
       d="m 1,6 6,0 0,5 -6,0 0,-5 z m 10,9 0,-5 -3,0 0,2 -3,0 0,3 6,0 z" /></g></svg>